<?xml version="1.0" encoding="UTF-8" standalone="no"?>
<!DOCTYPE svg PUBLIC "-//W3C//DTD SVG 1.1//EN"
 "http://www.w3.org/Graphics/SVG/1.1/DTD/svg11.dtd">
<!-- Generated by graphviz version 2.40.1 (20161225.0304)
 -->
<!-- Title: sh_t_progress_sales_info_history Pages: 1 -->
<svg width="495pt" height="1792pt"
 viewBox="0.00 0.00 494.80 1792.00" xmlns="http://www.w3.org/2000/svg" xmlns:xlink="http://www.w3.org/1999/xlink">
<g id="graph0" class="graph" transform="scale(1 1) rotate(0) translate(4 1788)">
<title>sh_t_progress_sales_info_history</title>
<polygon fill="#ffffff" stroke="transparent" points="-4,4 -4,-1788 490.801,-1788 490.801,4 -4,4"/>
<!-- sh_t_progress_sales_info_history -->
<g id="node1" class="node">
<title>sh_t_progress_sales_info_history</title>
<polygon fill="#efefef" stroke="transparent" points="46.5,-1702.5 46.5,-1737.5 429.5,-1737.5 429.5,-1702.5 46.5,-1702.5"/>
<polygon fill="none" stroke="#000000" points="46.5,-1702.5 46.5,-1737.5 429.5,-1737.5 429.5,-1702.5 46.5,-1702.5"/>
<text text-anchor="start" x="53.0103" y="-1715.3" font-family="Arial Bold" font-size="18.00" fill="#000000">sh_t_progress_sales_info_history</text>
<text text-anchor="start" x="321.0753" y="-1715.3" font-family="Arial" font-size="14.00" fill="#000000"> </text>
<text text-anchor="start" x="324.9659" y="-1715.3" font-family="Arial" font-size="14.00" fill="#666666">[BASIC TABLE]</text>
<polygon fill="none" stroke="#000000" points="46.5,-1672.5 46.5,-1702.5 429.5,-1702.5 429.5,-1672.5 46.5,-1672.5"/>
<text text-anchor="start" x="53.5" y="-1683.9" font-family="Arial" font-size="14.00" fill="#000000">project_number </text>
<text text-anchor="start" x="154.6304" y="-1683.9" font-family="Arial" font-size="14.00" fill="#666666">[nvarchar(255)]</text>
<polygon fill="none" stroke="#000000" points="46.5,-1642.5 46.5,-1672.5 429.5,-1672.5 429.5,-1642.5 46.5,-1642.5"/>
<text text-anchor="start" x="53.5" y="-1653.9" font-family="Arial" font-size="14.00" fill="#000000">order_number </text>
<text text-anchor="start" x="145.2938" y="-1653.9" font-family="Arial" font-size="14.00" fill="#666666">[nvarchar(255)]</text>
<polygon fill="none" stroke="#000000" points="46.5,-1612.5 46.5,-1642.5 429.5,-1642.5 429.5,-1612.5 46.5,-1612.5"/>
<text text-anchor="start" x="53.5" y="-1623.9" font-family="Arial" font-size="14.00" fill="#000000">detail_number </text>
<text text-anchor="start" x="146.0764" y="-1623.9" font-family="Arial" font-size="14.00" fill="#666666">[nvarchar(255)]</text>
<polygon fill="none" stroke="#000000" points="46.5,-1582.5 46.5,-1612.5 429.5,-1612.5 429.5,-1582.5 46.5,-1582.5"/>
<text text-anchor="start" x="53.5" y="-1593.9" font-family="Arial" font-size="14.00" fill="#000000">department_cd </text>
<text text-anchor="start" x="150.7538" y="-1593.9" font-family="Arial" font-size="14.00" fill="#666666">[nvarchar(100)]</text>
<polygon fill="none" stroke="#000000" points="46.5,-1552.5 46.5,-1582.5 429.5,-1582.5 429.5,-1552.5 46.5,-1552.5"/>
<text text-anchor="start" x="53.5" y="-1563.9" font-family="Arial" font-size="14.00" fill="#000000">history_number </text>
<text text-anchor="start" x="153.8478" y="-1563.9" font-family="Arial" font-size="14.00" fill="#666666">[int]</text>
<polygon fill="none" stroke="#000000" points="46.5,-1522.5 46.5,-1552.5 429.5,-1552.5 429.5,-1522.5 46.5,-1522.5"/>
<text text-anchor="start" x="53.5" y="-1533.9" font-family="Arial" font-size="14.00" fill="#000000">main_department_cd </text>
<text text-anchor="start" x="188.8688" y="-1533.9" font-family="Arial" font-size="14.00" fill="#666666">[nvarchar(100)]</text>
<polygon fill="none" stroke="#000000" points="46.5,-1492.5 46.5,-1522.5 429.5,-1522.5 429.5,-1492.5 46.5,-1492.5"/>
<text text-anchor="start" x="53.5" y="-1503.9" font-family="Arial" font-size="14.00" fill="#000000">year </text>
<text text-anchor="start" x="84.6164" y="-1503.9" font-family="Arial" font-size="14.00" fill="#666666">[int]</text>
<polygon fill="none" stroke="#000000" points="46.5,-1462.5 46.5,-1492.5 429.5,-1492.5 429.5,-1462.5 46.5,-1462.5"/>
<text text-anchor="start" x="53.5" y="-1473.9" font-family="Arial" font-size="14.00" fill="#000000">month </text>
<text text-anchor="start" x="96.2896" y="-1473.9" font-family="Arial" font-size="14.00" fill="#666666">[int]</text>
<polygon fill="none" stroke="#000000" points="46.5,-1432.5 46.5,-1462.5 429.5,-1462.5 429.5,-1432.5 46.5,-1432.5"/>
<text text-anchor="start" x="53.5" y="-1443.9" font-family="Arial" font-size="14.00" fill="#000000">progress_sales_status_cd </text>
<text text-anchor="start" x="219.9908" y="-1443.9" font-family="Arial" font-size="14.00" fill="#666666">[nvarchar(2)]</text>
<polygon fill="none" stroke="#000000" points="46.5,-1402.5 46.5,-1432.5 429.5,-1432.5 429.5,-1402.5 46.5,-1402.5"/>
<text text-anchor="start" x="53.5" y="-1413.9" font-family="Arial" font-size="14.00" fill="#000000">overall_progress </text>
<text text-anchor="start" x="160.8464" y="-1413.9" font-family="Arial" font-size="14.00" fill="#666666">[decimal]</text>
<polygon fill="none" stroke="#000000" points="46.5,-1372.5 46.5,-1402.5 429.5,-1402.5 429.5,-1372.5 46.5,-1372.5"/>
<text text-anchor="start" x="53.5" y="-1383.9" font-family="Arial" font-size="14.00" fill="#000000">progress_manhour </text>
<text text-anchor="start" x="174.859" y="-1383.9" font-family="Arial" font-size="14.00" fill="#666666">[decimal]</text>
<polygon fill="none" stroke="#000000" points="46.5,-1342.5 46.5,-1372.5 429.5,-1372.5 429.5,-1342.5 46.5,-1342.5"/>
<text text-anchor="start" x="53.5" y="-1353.9" font-family="Arial" font-size="14.00" fill="#000000">progress_cost_outsourcing </text>
<text text-anchor="start" x="225.434" y="-1353.9" font-family="Arial" font-size="14.00" fill="#666666">[decimal]</text>
<polygon fill="none" stroke="#000000" points="46.5,-1312.5 46.5,-1342.5 429.5,-1342.5 429.5,-1312.5 46.5,-1312.5"/>
<text text-anchor="start" x="53.5" y="-1323.9" font-family="Arial" font-size="14.00" fill="#000000">sales_adjusted_change_flag </text>
<text text-anchor="start" x="234.7958" y="-1323.9" font-family="Arial" font-size="14.00" fill="#666666">[nvarchar(1)]</text>
<polygon fill="none" stroke="#000000" points="46.5,-1282.5 46.5,-1312.5 429.5,-1312.5 429.5,-1282.5 46.5,-1282.5"/>
<text text-anchor="start" x="53.5" y="-1293.9" font-family="Arial" font-size="14.00" fill="#000000">sales_adjusted_value </text>
<text text-anchor="start" x="191.9922" y="-1293.9" font-family="Arial" font-size="14.00" fill="#666666">[int]</text>
<polygon fill="none" stroke="#000000" points="46.5,-1252.5 46.5,-1282.5 429.5,-1282.5 429.5,-1252.5 46.5,-1252.5"/>
<text text-anchor="start" x="53.5" y="-1263.9" font-family="Arial" font-size="14.00" fill="#000000">progress_sales_theory </text>
<text text-anchor="start" x="198.9782" y="-1263.9" font-family="Arial" font-size="14.00" fill="#666666">[int]</text>
<polygon fill="none" stroke="#000000" points="46.5,-1222.5 46.5,-1252.5 429.5,-1252.5 429.5,-1222.5 46.5,-1222.5"/>
<text text-anchor="start" x="53.5" y="-1233.9" font-family="Arial" font-size="14.00" fill="#000000">progress_sales_report </text>
<text text-anchor="start" x="196.6388" y="-1233.9" font-family="Arial" font-size="14.00" fill="#666666">[int]</text>
<polygon fill="none" stroke="#000000" points="46.5,-1192.5 46.5,-1222.5 429.5,-1222.5 429.5,-1192.5 46.5,-1192.5"/>
<text text-anchor="start" x="53.5" y="-1203.9" font-family="Arial" font-size="14.00" fill="#000000">sales_confirmed_amount </text>
<text text-anchor="start" x="213.758" y="-1203.9" font-family="Arial" font-size="14.00" fill="#666666">[int]</text>
<polygon fill="none" stroke="#000000" points="46.5,-1162.5 46.5,-1192.5 429.5,-1192.5 429.5,-1162.5 46.5,-1162.5"/>
<text text-anchor="start" x="53.5" y="-1173.9" font-family="Arial" font-size="14.00" fill="#000000">end_flag </text>
<text text-anchor="start" x="111.0834" y="-1173.9" font-family="Arial" font-size="14.00" fill="#666666">[nvarchar(1)]</text>
<polygon fill="none" stroke="#000000" points="46.5,-1132.5 46.5,-1162.5 429.5,-1162.5 429.5,-1132.5 46.5,-1132.5"/>
<text text-anchor="start" x="53.5" y="-1143.9" font-family="Arial" font-size="14.00" fill="#000000">comment </text>
<text text-anchor="start" x="114.9502" y="-1143.9" font-family="Arial" font-size="14.00" fill="#666666">[nvarchar(2000)]</text>
<polygon fill="none" stroke="#000000" points="46.5,-1102.5 46.5,-1132.5 429.5,-1132.5 429.5,-1102.5 46.5,-1102.5"/>
<text text-anchor="start" x="53.5" y="-1113.9" font-family="Arial" font-size="14.00" fill="#000000">order_status_cd </text>
<text text-anchor="start" x="157.7538" y="-1113.9" font-family="Arial" font-size="14.00" fill="#666666">[nvarchar(10)]</text>
<polygon fill="none" stroke="#000000" points="46.5,-1072.5 46.5,-1102.5 429.5,-1102.5 429.5,-1072.5 46.5,-1072.5"/>
<text text-anchor="start" x="53.5" y="-1083.9" font-family="Arial" font-size="14.00" fill="#000000">order_status_name </text>
<text text-anchor="start" x="177.9796" y="-1083.9" font-family="Arial" font-size="14.00" fill="#666666">[nvarchar(10)]</text>
<polygon fill="none" stroke="#000000" points="46.5,-1042.5 46.5,-1072.5 429.5,-1072.5 429.5,-1042.5 46.5,-1042.5"/>
<text text-anchor="start" x="53.5" y="-1053.9" font-family="Arial" font-size="14.00" fill="#000000">create_user_cd </text>
<text text-anchor="start" x="153.8632" y="-1053.9" font-family="Arial" font-size="14.00" fill="#666666">[nvarchar(10)]</text>
<polygon fill="none" stroke="#000000" points="46.5,-1012.5 46.5,-1042.5 429.5,-1042.5 429.5,-1012.5 46.5,-1012.5"/>
<text text-anchor="start" x="53.5" y="-1023.9" font-family="Arial" font-size="14.00" fill="#000000">create_date </text>
<text text-anchor="start" x="131.3106" y="-1023.9" font-family="Arial" font-size="14.00" fill="#666666">[datetime2]</text>
<polygon fill="none" stroke="#000000" points="46.5,-982.5 46.5,-1012.5 429.5,-1012.5 429.5,-982.5 46.5,-982.5"/>
<text text-anchor="start" x="53.5" y="-993.9" font-family="Arial" font-size="14.00" fill="#000000">record_user_cd </text>
<text text-anchor="start" x="154.6332" y="-993.9" font-family="Arial" font-size="14.00" fill="#666666">[nvarchar(10)]</text>
<polygon fill="none" stroke="#000000" points="46.5,-952.5 46.5,-982.5 429.5,-982.5 429.5,-952.5 46.5,-952.5"/>
<text text-anchor="start" x="53.5" y="-963.9" font-family="Arial" font-size="14.00" fill="#000000">record_date </text>
<text text-anchor="start" x="132.0806" y="-963.9" font-family="Arial" font-size="14.00" fill="#666666">[datetime2]</text>
<polygon fill="none" stroke="#000000" points="46.5,-922.5 46.5,-952.5 429.5,-952.5 429.5,-922.5 46.5,-922.5"/>
<text text-anchor="start" x="53.5" y="-933.9" font-family="Arial" font-size="14.00" fill="#000000">delete_flag </text>
<text text-anchor="start" x="125.8632" y="-933.9" font-family="Arial" font-size="14.00" fill="#666666">[nvarchar(1)]</text>
<polygon fill="none" stroke="#000000" stroke-width="3" points="44.5,-921.5 44.5,-1739.5 430.5,-1739.5 430.5,-921.5 44.5,-921.5"/>
</g>
<!-- sh_t_progress_sales_info -->
<g id="node2" class="node">
<title>sh_t_progress_sales_info</title>
<polygon fill="#efefef" stroke="transparent" points="78.5,-762.5 78.5,-797.5 398.5,-797.5 398.5,-762.5 78.5,-762.5"/>
<polygon fill="none" stroke="#000000" points="78.5,-762.5 78.5,-797.5 398.5,-797.5 398.5,-762.5 78.5,-762.5"/>
<text text-anchor="start" x="85.0139" y="-775.3" font-family="Arial Bold" font-size="18.00" fill="#000000">sh_t_progress_sales_info</text>
<text text-anchor="start" x="290.0717" y="-775.3" font-family="Arial" font-size="14.00" fill="#000000"> </text>
<text text-anchor="start" x="293.9623" y="-775.3" font-family="Arial" font-size="14.00" fill="#666666">[BASIC TABLE]</text>
<polygon fill="none" stroke="#000000" points="78.5,-732.5 78.5,-762.5 398.5,-762.5 398.5,-732.5 78.5,-732.5"/>
<text text-anchor="start" x="85.5" y="-743.9" font-family="Arial" font-size="14.00" fill="#000000">project_number </text>
<text text-anchor="start" x="186.6304" y="-743.9" font-family="Arial" font-size="14.00" fill="#666666">[nvarchar(255)]</text>
<polygon fill="none" stroke="#000000" points="78.5,-702.5 78.5,-732.5 398.5,-732.5 398.5,-702.5 78.5,-702.5"/>
<text text-anchor="start" x="85.5" y="-713.9" font-family="Arial" font-size="14.00" fill="#000000">order_number </text>
<text text-anchor="start" x="177.2938" y="-713.9" font-family="Arial" font-size="14.00" fill="#666666">[nvarchar(255)]</text>
<polygon fill="none" stroke="#000000" points="78.5,-672.5 78.5,-702.5 398.5,-702.5 398.5,-672.5 78.5,-672.5"/>
<text text-anchor="start" x="85.5" y="-683.9" font-family="Arial" font-size="14.00" fill="#000000">detail_number </text>
<text text-anchor="start" x="178.0764" y="-683.9" font-family="Arial" font-size="14.00" fill="#666666">[nvarchar(255)]</text>
<polygon fill="none" stroke="#000000" points="78.5,-642.5 78.5,-672.5 398.5,-672.5 398.5,-642.5 78.5,-642.5"/>
<text text-anchor="start" x="85.5" y="-653.9" font-family="Arial" font-size="14.00" fill="#000000">department_cd </text>
<text text-anchor="start" x="182.7538" y="-653.9" font-family="Arial" font-size="14.00" fill="#666666">[nvarchar(100)]</text>
<polygon fill="none" stroke="#000000" points="78.5,-612.5 78.5,-642.5 398.5,-642.5 398.5,-612.5 78.5,-612.5"/>
<text text-anchor="start" x="85.5" y="-623.9" font-family="Arial" font-size="14.00" fill="#000000">main_department_cd </text>
<text text-anchor="start" x="220.8688" y="-623.9" font-family="Arial" font-size="14.00" fill="#666666">[nvarchar(100)]</text>
<polygon fill="none" stroke="#000000" points="78.5,-582.5 78.5,-612.5 398.5,-612.5 398.5,-582.5 78.5,-582.5"/>
<text text-anchor="start" x="85.5" y="-593.9" font-family="Arial" font-size="14.00" fill="#000000">year </text>
<text text-anchor="start" x="116.6164" y="-593.9" font-family="Arial" font-size="14.00" fill="#666666">[int]</text>
<polygon fill="none" stroke="#000000" points="78.5,-552.5 78.5,-582.5 398.5,-582.5 398.5,-552.5 78.5,-552.5"/>
<text text-anchor="start" x="85.5" y="-563.9" font-family="Arial" font-size="14.00" fill="#000000">month </text>
<text text-anchor="start" x="128.2896" y="-563.9" font-family="Arial" font-size="14.00" fill="#666666">[int]</text>
<polygon fill="none" stroke="#000000" points="78.5,-522.5 78.5,-552.5 398.5,-552.5 398.5,-522.5 78.5,-522.5"/>
<text text-anchor="start" x="85.5" y="-533.9" font-family="Arial" font-size="14.00" fill="#000000">overall_progress </text>
<text text-anchor="start" x="192.8464" y="-533.9" font-family="Arial" font-size="14.00" fill="#666666">[decimal]</text>
<polygon fill="none" stroke="#000000" points="78.5,-492.5 78.5,-522.5 398.5,-522.5 398.5,-492.5 78.5,-492.5"/>
<text text-anchor="start" x="85.5" y="-503.9" font-family="Arial" font-size="14.00" fill="#000000">progress_manhour </text>
<text text-anchor="start" x="206.859" y="-503.9" font-family="Arial" font-size="14.00" fill="#666666">[decimal]</text>
<polygon fill="none" stroke="#000000" points="78.5,-462.5 78.5,-492.5 398.5,-492.5 398.5,-462.5 78.5,-462.5"/>
<text text-anchor="start" x="85.5" y="-473.9" font-family="Arial" font-size="14.00" fill="#000000">progress_cost_outsourcing </text>
<text text-anchor="start" x="257.434" y="-473.9" font-family="Arial" font-size="14.00" fill="#666666">[decimal]</text>
<polygon fill="none" stroke="#000000" points="78.5,-432.5 78.5,-462.5 398.5,-462.5 398.5,-432.5 78.5,-432.5"/>
<text text-anchor="start" x="85.5" y="-443.9" font-family="Arial" font-size="14.00" fill="#000000">sales_adjusted_change_flag </text>
<text text-anchor="start" x="266.7958" y="-443.9" font-family="Arial" font-size="14.00" fill="#666666">[nvarchar(1)]</text>
<polygon fill="none" stroke="#000000" points="78.5,-402.5 78.5,-432.5 398.5,-432.5 398.5,-402.5 78.5,-402.5"/>
<text text-anchor="start" x="85.5" y="-413.9" font-family="Arial" font-size="14.00" fill="#000000">sales_adjusted_value </text>
<text text-anchor="start" x="223.9922" y="-413.9" font-family="Arial" font-size="14.00" fill="#666666">[int]</text>
<polygon fill="none" stroke="#000000" points="78.5,-372.5 78.5,-402.5 398.5,-402.5 398.5,-372.5 78.5,-372.5"/>
<text text-anchor="start" x="85.5" y="-383.9" font-family="Arial" font-size="14.00" fill="#000000">progress_sales_theory </text>
<text text-anchor="start" x="230.9782" y="-383.9" font-family="Arial" font-size="14.00" fill="#666666">[int]</text>
<polygon fill="none" stroke="#000000" points="78.5,-342.5 78.5,-372.5 398.5,-372.5 398.5,-342.5 78.5,-342.5"/>
<text text-anchor="start" x="85.5" y="-353.9" font-family="Arial" font-size="14.00" fill="#000000">progress_sales_report </text>
<text text-anchor="start" x="228.6388" y="-353.9" font-family="Arial" font-size="14.00" fill="#666666">[int]</text>
<polygon fill="none" stroke="#000000" points="78.5,-312.5 78.5,-342.5 398.5,-342.5 398.5,-312.5 78.5,-312.5"/>
<text text-anchor="start" x="85.5" y="-323.9" font-family="Arial" font-size="14.00" fill="#000000">sales_confirmed_amount </text>
<text text-anchor="start" x="245.758" y="-323.9" font-family="Arial" font-size="14.00" fill="#666666">[int]</text>
<polygon fill="none" stroke="#000000" points="78.5,-282.5 78.5,-312.5 398.5,-312.5 398.5,-282.5 78.5,-282.5"/>
<text text-anchor="start" x="85.5" y="-293.9" font-family="Arial" font-size="14.00" fill="#000000">end_flag </text>
<text text-anchor="start" x="143.0834" y="-293.9" font-family="Arial" font-size="14.00" fill="#666666">[nvarchar(1)]</text>
<polygon fill="none" stroke="#000000" points="78.5,-252.5 78.5,-282.5 398.5,-282.5 398.5,-252.5 78.5,-252.5"/>
<text text-anchor="start" x="85.5" y="-263.9" font-family="Arial" font-size="14.00" fill="#000000">comment </text>
<text text-anchor="start" x="146.9502" y="-263.9" font-family="Arial" font-size="14.00" fill="#666666">[nvarchar(2000)]</text>
<polygon fill="none" stroke="#000000" points="78.5,-222.5 78.5,-252.5 398.5,-252.5 398.5,-222.5 78.5,-222.5"/>
<text text-anchor="start" x="85.5" y="-233.9" font-family="Arial" font-size="14.00" fill="#000000">order_status_cd </text>
<text text-anchor="start" x="189.7538" y="-233.9" font-family="Arial" font-size="14.00" fill="#666666">[nvarchar(10)]</text>
<polygon fill="none" stroke="#000000" points="78.5,-192.5 78.5,-222.5 398.5,-222.5 398.5,-192.5 78.5,-192.5"/>
<text text-anchor="start" x="85.5" y="-203.9" font-family="Arial" font-size="14.00" fill="#000000">order_status_name </text>
<text text-anchor="start" x="209.9796" y="-203.9" font-family="Arial" font-size="14.00" fill="#666666">[nvarchar(10)]</text>
<polygon fill="none" stroke="#000000" points="78.5,-162.5 78.5,-192.5 398.5,-192.5 398.5,-162.5 78.5,-162.5"/>
<text text-anchor="start" x="85.5" y="-173.9" font-family="Arial" font-size="14.00" fill="#000000">create_user_cd </text>
<text text-anchor="start" x="185.8632" y="-173.9" font-family="Arial" font-size="14.00" fill="#666666">[nvarchar(10)]</text>
<polygon fill="none" stroke="#000000" points="78.5,-132.5 78.5,-162.5 398.5,-162.5 398.5,-132.5 78.5,-132.5"/>
<text text-anchor="start" x="85.5" y="-143.9" font-family="Arial" font-size="14.00" fill="#000000">create_date </text>
<text text-anchor="start" x="163.3106" y="-143.9" font-family="Arial" font-size="14.00" fill="#666666">[datetime2]</text>
<polygon fill="none" stroke="#000000" points="78.5,-102.5 78.5,-132.5 398.5,-132.5 398.5,-102.5 78.5,-102.5"/>
<text text-anchor="start" x="85.5" y="-113.9" font-family="Arial" font-size="14.00" fill="#000000">record_user_cd </text>
<text text-anchor="start" x="186.6332" y="-113.9" font-family="Arial" font-size="14.00" fill="#666666">[nvarchar(10)]</text>
<polygon fill="none" stroke="#000000" points="78.5,-72.5 78.5,-102.5 398.5,-102.5 398.5,-72.5 78.5,-72.5"/>
<text text-anchor="start" x="85.5" y="-83.9" font-family="Arial" font-size="14.00" fill="#000000">record_date </text>
<text text-anchor="start" x="164.0806" y="-83.9" font-family="Arial" font-size="14.00" fill="#666666">[datetime2]</text>
<polygon fill="none" stroke="#000000" points="78.5,-42.5 78.5,-72.5 398.5,-72.5 398.5,-42.5 78.5,-42.5"/>
<text text-anchor="start" x="85.5" y="-53.9" font-family="Arial" font-size="14.00" fill="#000000">delete_flag </text>
<text text-anchor="start" x="157.8632" y="-53.9" font-family="Arial" font-size="14.00" fill="#666666">[nvarchar(1)]</text>
</g>
<!-- sh_t_progress_sales_info_history&#45;&gt;sh_t_progress_sales_info -->
<g id="edge1" class="edge">
<title>sh_t_progress_sales_info_history:project_number&#45;&gt;sh_t_progress_sales_info:project_number</title>
<path fill="none" stroke="#000000" d="M439.5104,-1684.1805C517.1875,-1630.4349 487.4858,-941.2373 429.5,-877 376.9608,-818.7966 131.0392,-899.2034 78.5,-841 50.6551,-810.1532 36.9444,-747.5 78.5,-747.5"/>
<polygon fill="#000000" stroke="#000000" points="438.9918,-1684.3524 428.0836,-1683.2287 434.2459,-1685.9262 429.5,-1687.5 429.5,-1687.5 429.5,-1687.5 434.2459,-1685.9262 430.9164,-1691.7713 438.9918,-1684.3524 438.9918,-1684.3524"/>
</g>
</g>
</svg>
