<?xml version="1.0" encoding="UTF-8" standalone="no"?>
<!DOCTYPE svg PUBLIC "-//W3C//DTD SVG 1.1//EN"
 "http://www.w3.org/Graphics/SVG/1.1/DTD/svg11.dtd">
<!-- Generated by graphviz version 2.40.1 (20161225.0304)
 -->
<!-- Title: sh_t_order_details Pages: 1 -->
<svg width="502pt" height="1619pt"
 viewBox="0.00 0.00 501.82 1619.00" xmlns="http://www.w3.org/2000/svg" xmlns:xlink="http://www.w3.org/1999/xlink">
<g id="graph0" class="graph" transform="scale(1 1) rotate(0) translate(4 1615)">
<title>sh_t_order_details</title>
<polygon fill="#ffffff" stroke="transparent" points="-4,4 -4,-1615 497.8198,-1615 497.8198,4 -4,4"/>
<!-- sh_t_order_details -->
<g id="node1" class="node">
<title>sh_t_order_details</title>
<polygon fill="#efefef" stroke="transparent" points="89,-892.5 89,-927.5 361,-927.5 361,-892.5 89,-892.5"/>
<polygon fill="none" stroke="#000000" points="89,-892.5 89,-927.5 361,-927.5 361,-892.5 89,-892.5"/>
<text text-anchor="start" x="100.0232" y="-905.3" font-family="Arial Bold" font-size="18.00" fill="#000000">sh_t_order_details</text>
<text text-anchor="start" x="248.0624" y="-905.3" font-family="Arial" font-size="14.00" fill="#000000"> </text>
<text text-anchor="start" x="251.953" y="-905.3" font-family="Arial" font-size="14.00" fill="#666666">[BASIC TABLE]</text>
<polygon fill="none" stroke="#000000" points="89,-862.5 89,-892.5 361,-892.5 361,-862.5 89,-862.5"/>
<text text-anchor="start" x="96" y="-873.9" font-family="Arial" font-size="14.00" fill="#000000">project_number </text>
<text text-anchor="start" x="197.1304" y="-873.9" font-family="Arial" font-size="14.00" fill="#666666">[nvarchar(255)]</text>
<polygon fill="none" stroke="#000000" points="89,-832.5 89,-862.5 361,-862.5 361,-832.5 89,-832.5"/>
<text text-anchor="start" x="96" y="-843.9" font-family="Arial" font-size="14.00" fill="#000000">order_number </text>
<text text-anchor="start" x="187.7938" y="-843.9" font-family="Arial" font-size="14.00" fill="#666666">[nvarchar(255)]</text>
<polygon fill="none" stroke="#000000" points="89,-802.5 89,-832.5 361,-832.5 361,-802.5 89,-802.5"/>
<text text-anchor="start" x="96" y="-813.9" font-family="Arial" font-size="14.00" fill="#000000">detail_number </text>
<text text-anchor="start" x="188.5764" y="-813.9" font-family="Arial" font-size="14.00" fill="#666666">[nvarchar(255)]</text>
<polygon fill="none" stroke="#000000" points="89,-772.5 89,-802.5 361,-802.5 361,-772.5 89,-772.5"/>
<text text-anchor="start" x="96" y="-783.9" font-family="Arial" font-size="14.00" fill="#000000">details </text>
<text text-anchor="start" x="140.3422" y="-783.9" font-family="Arial" font-size="14.00" fill="#666666">[nvarchar(1000)]</text>
<polygon fill="none" stroke="#000000" points="89,-742.5 89,-772.5 361,-772.5 361,-742.5 89,-742.5"/>
<text text-anchor="start" x="95.8493" y="-753.9" font-family="Arial" font-size="14.00" fill="#000000">order_amount_before_apportionment </text>
<text text-anchor="start" x="331.5897" y="-753.9" font-family="Arial" font-size="14.00" fill="#666666">[int]</text>
<polygon fill="none" stroke="#000000" points="89,-712.5 89,-742.5 361,-742.5 361,-712.5 89,-712.5"/>
<text text-anchor="start" x="96" y="-723.9" font-family="Arial" font-size="14.00" fill="#000000">create_user_cd </text>
<text text-anchor="start" x="196.3632" y="-723.9" font-family="Arial" font-size="14.00" fill="#666666">[nvarchar(10)]</text>
<polygon fill="none" stroke="#000000" points="89,-682.5 89,-712.5 361,-712.5 361,-682.5 89,-682.5"/>
<text text-anchor="start" x="96" y="-693.9" font-family="Arial" font-size="14.00" fill="#000000">create_date </text>
<text text-anchor="start" x="173.8106" y="-693.9" font-family="Arial" font-size="14.00" fill="#666666">[datetime2]</text>
<polygon fill="none" stroke="#000000" points="89,-652.5 89,-682.5 361,-682.5 361,-652.5 89,-652.5"/>
<text text-anchor="start" x="96" y="-663.9" font-family="Arial" font-size="14.00" fill="#000000">record_user_cd </text>
<text text-anchor="start" x="197.1332" y="-663.9" font-family="Arial" font-size="14.00" fill="#666666">[nvarchar(10)]</text>
<polygon fill="none" stroke="#000000" points="89,-622.5 89,-652.5 361,-652.5 361,-622.5 89,-622.5"/>
<text text-anchor="start" x="96" y="-633.9" font-family="Arial" font-size="14.00" fill="#000000">record_date </text>
<text text-anchor="start" x="174.5806" y="-633.9" font-family="Arial" font-size="14.00" fill="#666666">[datetime2]</text>
<polygon fill="none" stroke="#000000" points="89,-592.5 89,-622.5 361,-622.5 361,-592.5 89,-592.5"/>
<text text-anchor="start" x="96" y="-603.9" font-family="Arial" font-size="14.00" fill="#000000">delete_flag </text>
<text text-anchor="start" x="168.3632" y="-603.9" font-family="Arial" font-size="14.00" fill="#666666">[nvarchar(1)]</text>
<polygon fill="none" stroke="#000000" stroke-width="3" points="87.5,-591.5 87.5,-929.5 362.5,-929.5 362.5,-591.5 87.5,-591.5"/>
</g>
<!-- sh_t_order_list -->
<g id="node2" class="node">
<title>sh_t_order_list</title>
<polygon fill="#efefef" stroke="transparent" points="103,-432.5 103,-467.5 347,-467.5 347,-432.5 103,-432.5"/>
<polygon fill="none" stroke="#000000" points="103,-432.5 103,-467.5 347,-467.5 347,-432.5 103,-432.5"/>
<text text-anchor="start" x="115.0325" y="-445.3" font-family="Arial Bold" font-size="18.00" fill="#000000">sh_t_order_list</text>
<text text-anchor="start" x="233.0531" y="-445.3" font-family="Arial" font-size="14.00" fill="#000000"> </text>
<text text-anchor="start" x="236.9437" y="-445.3" font-family="Arial" font-size="14.00" fill="#666666">[BASIC TABLE]</text>
<polygon fill="none" stroke="#000000" points="103,-402.5 103,-432.5 347,-432.5 347,-402.5 103,-402.5"/>
<text text-anchor="start" x="110" y="-413.9" font-family="Arial" font-size="14.00" fill="#000000">project_number </text>
<text text-anchor="start" x="211.1304" y="-413.9" font-family="Arial" font-size="14.00" fill="#666666">[nvarchar(255)]</text>
<polygon fill="none" stroke="#000000" points="103,-372.5 103,-402.5 347,-402.5 347,-372.5 103,-372.5"/>
<text text-anchor="start" x="110" y="-383.9" font-family="Arial" font-size="14.00" fill="#000000">order_number </text>
<text text-anchor="start" x="201.7938" y="-383.9" font-family="Arial" font-size="14.00" fill="#666666">[nvarchar(255)]</text>
<polygon fill="none" stroke="#000000" points="103,-342.5 103,-372.5 347,-372.5 347,-342.5 103,-342.5"/>
<text text-anchor="start" x="109.8647" y="-353.9" font-family="Arial" font-size="14.00" fill="#000000">main_department_cd </text>
<text text-anchor="start" x="245.2335" y="-353.9" font-family="Arial" font-size="14.00" fill="#666666">[nvarchar(100)]</text>
<polygon fill="none" stroke="#000000" points="103,-312.5 103,-342.5 347,-342.5 347,-312.5 103,-312.5"/>
<text text-anchor="start" x="110" y="-323.9" font-family="Arial" font-size="14.00" fill="#000000">project_name </text>
<text text-anchor="start" x="198.6872" y="-323.9" font-family="Arial" font-size="14.00" fill="#666666">[nvarchar(1000)]</text>
<polygon fill="none" stroke="#000000" points="103,-282.5 103,-312.5 347,-312.5 347,-282.5 103,-282.5"/>
<text text-anchor="start" x="110" y="-293.9" font-family="Arial" font-size="14.00" fill="#000000">order_name </text>
<text text-anchor="start" x="189.3506" y="-293.9" font-family="Arial" font-size="14.00" fill="#666666">[nvarchar(1000)]</text>
<polygon fill="none" stroke="#000000" points="103,-252.5 103,-282.5 347,-282.5 347,-252.5 103,-252.5"/>
<text text-anchor="start" x="110" y="-263.9" font-family="Arial" font-size="14.00" fill="#000000">order_status_cd </text>
<text text-anchor="start" x="214.2538" y="-263.9" font-family="Arial" font-size="14.00" fill="#666666">[nvarchar(10)]</text>
<polygon fill="none" stroke="#000000" points="103,-222.5 103,-252.5 347,-252.5 347,-222.5 103,-222.5"/>
<text text-anchor="start" x="110" y="-233.9" font-family="Arial" font-size="14.00" fill="#000000">order_status_name </text>
<text text-anchor="start" x="234.4796" y="-233.9" font-family="Arial" font-size="14.00" fill="#666666">[nvarchar(10)]</text>
<polygon fill="none" stroke="#000000" points="103,-192.5 103,-222.5 347,-222.5 347,-192.5 103,-192.5"/>
<text text-anchor="start" x="110" y="-203.9" font-family="Arial" font-size="14.00" fill="#000000">contract_cd </text>
<text text-anchor="start" x="186.2454" y="-203.9" font-family="Arial" font-size="14.00" fill="#666666">[nvarchar(10)]</text>
<polygon fill="none" stroke="#000000" points="103,-162.5 103,-192.5 347,-192.5 347,-162.5 103,-162.5"/>
<text text-anchor="start" x="110" y="-173.9" font-family="Arial" font-size="14.00" fill="#000000">create_user_cd </text>
<text text-anchor="start" x="210.3632" y="-173.9" font-family="Arial" font-size="14.00" fill="#666666">[nvarchar(10)]</text>
<polygon fill="none" stroke="#000000" points="103,-132.5 103,-162.5 347,-162.5 347,-132.5 103,-132.5"/>
<text text-anchor="start" x="110" y="-143.9" font-family="Arial" font-size="14.00" fill="#000000">create_date </text>
<text text-anchor="start" x="187.8106" y="-143.9" font-family="Arial" font-size="14.00" fill="#666666">[datetime2]</text>
<polygon fill="none" stroke="#000000" points="103,-102.5 103,-132.5 347,-132.5 347,-102.5 103,-102.5"/>
<text text-anchor="start" x="110" y="-113.9" font-family="Arial" font-size="14.00" fill="#000000">record_user_cd </text>
<text text-anchor="start" x="211.1332" y="-113.9" font-family="Arial" font-size="14.00" fill="#666666">[nvarchar(10)]</text>
<polygon fill="none" stroke="#000000" points="103,-72.5 103,-102.5 347,-102.5 347,-72.5 103,-72.5"/>
<text text-anchor="start" x="110" y="-83.9" font-family="Arial" font-size="14.00" fill="#000000">record_date </text>
<text text-anchor="start" x="188.5806" y="-83.9" font-family="Arial" font-size="14.00" fill="#666666">[datetime2]</text>
<polygon fill="none" stroke="#000000" points="103,-42.5 103,-72.5 347,-72.5 347,-42.5 103,-42.5"/>
<text text-anchor="start" x="110" y="-53.9" font-family="Arial" font-size="14.00" fill="#000000">delete_flag </text>
<text text-anchor="start" x="182.3632" y="-53.9" font-family="Arial" font-size="14.00" fill="#666666">[nvarchar(1)]</text>
</g>
<!-- sh_t_order_details&#45;&gt;sh_t_order_list -->
<g id="edge1" class="edge">
<title>sh_t_order_details:project_number&#45;&gt;sh_t_order_list:project_number</title>
<path fill="none" stroke="#000000" d="M371.0802,-875.9245C462.2094,-846.5921 445.774,-417.5 347,-417.5"/>
<polygon fill="#000000" stroke="#000000" points="370.8801,-875.9558 360.3051,-873.054 365.94,-876.7279 361,-877.5 361,-877.5 361,-877.5 365.94,-876.7279 361.6949,-881.946 370.8801,-875.9558 370.8801,-875.9558"/>
</g>
<!-- sh_t_order_department_details -->
<g id="node3" class="node">
<title>sh_t_order_department_details</title>
<polygon fill="#efefef" stroke="transparent" points="43,-1532.5 43,-1567.5 407,-1567.5 407,-1532.5 43,-1532.5"/>
<polygon fill="none" stroke="#000000" points="43,-1532.5 43,-1567.5 407,-1567.5 407,-1532.5 43,-1532.5"/>
<text text-anchor="start" x="49.5071" y="-1545.3" font-family="Arial Bold" font-size="18.00" fill="#000000">sh_t_order_department_details</text>
<text text-anchor="start" x="298.5785" y="-1545.3" font-family="Arial" font-size="14.00" fill="#000000"> </text>
<text text-anchor="start" x="302.4691" y="-1545.3" font-family="Arial" font-size="14.00" fill="#666666">[BASIC TABLE]</text>
<polygon fill="none" stroke="#000000" points="43,-1502.5 43,-1532.5 407,-1532.5 407,-1502.5 43,-1502.5"/>
<text text-anchor="start" x="50" y="-1513.9" font-family="Arial" font-size="14.00" fill="#000000">project_number </text>
<text text-anchor="start" x="151.1304" y="-1513.9" font-family="Arial" font-size="14.00" fill="#666666">[nvarchar(255)]</text>
<polygon fill="none" stroke="#000000" points="43,-1472.5 43,-1502.5 407,-1502.5 407,-1472.5 43,-1472.5"/>
<text text-anchor="start" x="50" y="-1483.9" font-family="Arial" font-size="14.00" fill="#000000">order_number </text>
<text text-anchor="start" x="141.7938" y="-1483.9" font-family="Arial" font-size="14.00" fill="#666666">[nvarchar(255)]</text>
<polygon fill="none" stroke="#000000" points="43,-1442.5 43,-1472.5 407,-1472.5 407,-1442.5 43,-1442.5"/>
<text text-anchor="start" x="50" y="-1453.9" font-family="Arial" font-size="14.00" fill="#000000">detail_number </text>
<text text-anchor="start" x="142.5764" y="-1453.9" font-family="Arial" font-size="14.00" fill="#666666">[nvarchar(255)]</text>
<polygon fill="none" stroke="#000000" points="43,-1412.5 43,-1442.5 407,-1442.5 407,-1412.5 43,-1412.5"/>
<text text-anchor="start" x="50" y="-1423.9" font-family="Arial" font-size="14.00" fill="#000000">department_cd </text>
<text text-anchor="start" x="147.2538" y="-1423.9" font-family="Arial" font-size="14.00" fill="#666666">[nvarchar(100)]</text>
<polygon fill="none" stroke="#000000" points="43,-1382.5 43,-1412.5 407,-1412.5 407,-1382.5 43,-1382.5"/>
<text text-anchor="start" x="50" y="-1393.9" font-family="Arial" font-size="14.00" fill="#000000">main_department_cd </text>
<text text-anchor="start" x="185.3688" y="-1393.9" font-family="Arial" font-size="14.00" fill="#666666">[nvarchar(100)]</text>
<polygon fill="none" stroke="#000000" points="43,-1352.5 43,-1382.5 407,-1382.5 407,-1352.5 43,-1352.5"/>
<text text-anchor="start" x="50" y="-1363.9" font-family="Arial" font-size="14.00" fill="#000000">details </text>
<text text-anchor="start" x="94.3422" y="-1363.9" font-family="Arial" font-size="14.00" fill="#666666">[nvarchar(1000)]</text>
<polygon fill="none" stroke="#000000" points="43,-1322.5 43,-1352.5 407,-1352.5 407,-1322.5 43,-1322.5"/>
<text text-anchor="start" x="50" y="-1333.9" font-family="Arial" font-size="14.00" fill="#000000">order_amount </text>
<text text-anchor="start" x="141.0238" y="-1333.9" font-family="Arial" font-size="14.00" fill="#666666">[int]</text>
<polygon fill="none" stroke="#000000" points="43,-1292.5 43,-1322.5 407,-1322.5 407,-1292.5 43,-1292.5"/>
<text text-anchor="start" x="50" y="-1303.9" font-family="Arial" font-size="14.00" fill="#000000">sales_confirmed_amount </text>
<text text-anchor="start" x="210.258" y="-1303.9" font-family="Arial" font-size="14.00" fill="#666666">[int]</text>
<polygon fill="none" stroke="#000000" points="43,-1262.5 43,-1292.5 407,-1292.5 407,-1262.5 43,-1262.5"/>
<text text-anchor="start" x="50" y="-1273.9" font-family="Arial" font-size="14.00" fill="#000000">progress_sales_status_cd </text>
<text text-anchor="start" x="216.4908" y="-1273.9" font-family="Arial" font-size="14.00" fill="#666666">[nvarchar(2)]</text>
<polygon fill="none" stroke="#000000" points="43,-1232.5 43,-1262.5 407,-1262.5 407,-1232.5 43,-1232.5"/>
<text text-anchor="start" x="50" y="-1243.9" font-family="Arial" font-size="14.00" fill="#000000">progress_plans_status_cd </text>
<text text-anchor="start" x="217.2734" y="-1243.9" font-family="Arial" font-size="14.00" fill="#666666">[nvarchar(2)]</text>
<polygon fill="none" stroke="#000000" points="43,-1202.5 43,-1232.5 407,-1232.5 407,-1202.5 43,-1202.5"/>
<text text-anchor="start" x="50" y="-1213.9" font-family="Arial" font-size="14.00" fill="#000000">charge_division_cd </text>
<text text-anchor="start" x="173.697" y="-1213.9" font-family="Arial" font-size="14.00" fill="#666666">[nvarchar(2)]</text>
<polygon fill="none" stroke="#000000" points="43,-1172.5 43,-1202.5 407,-1202.5 407,-1172.5 43,-1172.5"/>
<text text-anchor="start" x="50" y="-1183.9" font-family="Arial" font-size="14.00" fill="#000000">create_user_cd </text>
<text text-anchor="start" x="150.3632" y="-1183.9" font-family="Arial" font-size="14.00" fill="#666666">[nvarchar(10)]</text>
<polygon fill="none" stroke="#000000" points="43,-1142.5 43,-1172.5 407,-1172.5 407,-1142.5 43,-1142.5"/>
<text text-anchor="start" x="50" y="-1153.9" font-family="Arial" font-size="14.00" fill="#000000">create_date </text>
<text text-anchor="start" x="127.8106" y="-1153.9" font-family="Arial" font-size="14.00" fill="#666666">[datetime2]</text>
<polygon fill="none" stroke="#000000" points="43,-1112.5 43,-1142.5 407,-1142.5 407,-1112.5 43,-1112.5"/>
<text text-anchor="start" x="50" y="-1123.9" font-family="Arial" font-size="14.00" fill="#000000">record_user_cd </text>
<text text-anchor="start" x="151.1332" y="-1123.9" font-family="Arial" font-size="14.00" fill="#666666">[nvarchar(10)]</text>
<polygon fill="none" stroke="#000000" points="43,-1082.5 43,-1112.5 407,-1112.5 407,-1082.5 43,-1082.5"/>
<text text-anchor="start" x="50" y="-1093.9" font-family="Arial" font-size="14.00" fill="#000000">record_date </text>
<text text-anchor="start" x="128.5806" y="-1093.9" font-family="Arial" font-size="14.00" fill="#666666">[datetime2]</text>
<polygon fill="none" stroke="#000000" points="43,-1052.5 43,-1082.5 407,-1082.5 407,-1052.5 43,-1052.5"/>
<text text-anchor="start" x="50" y="-1063.9" font-family="Arial" font-size="14.00" fill="#000000">delete_flag </text>
<text text-anchor="start" x="122.3632" y="-1063.9" font-family="Arial" font-size="14.00" fill="#666666">[nvarchar(1)]</text>
</g>
<!-- sh_t_order_department_details&#45;&gt;sh_t_order_details -->
<g id="edge2" class="edge">
<title>sh_t_order_department_details:project_number&#45;&gt;sh_t_order_details:project_number</title>
<path fill="none" stroke="#000000" d="M417.1077,-1516.3742C547.2854,-1486.6315 500.1079,-877.5 361,-877.5"/>
<polygon fill="#000000" stroke="#000000" points="416.9385,-1516.393 406.5018,-1513.0277 411.9693,-1516.9465 407,-1517.5 407,-1517.5 407,-1517.5 411.9693,-1516.9465 407.4982,-1521.9723 416.9385,-1516.393 416.9385,-1516.393"/>
</g>
</g>
</svg>
