<?xml version="1.0" encoding="UTF-8" standalone="no"?>
<!DOCTYPE svg PUBLIC "-//W3C//DTD SVG 1.1//EN"
 "http://www.w3.org/Graphics/SVG/1.1/DTD/svg11.dtd">
<!-- Generated by graphviz version 2.40.1 (20161225.0304)
 -->
<!-- Title: sh_t_outsourcing_cost_info Pages: 1 -->
<svg width="443pt" height="1132pt"
 viewBox="0.00 0.00 443.03 1132.00" xmlns="http://www.w3.org/2000/svg" xmlns:xlink="http://www.w3.org/1999/xlink">
<g id="graph0" class="graph" transform="scale(1 1) rotate(0) translate(4 1128)">
<title>sh_t_outsourcing_cost_info</title>
<polygon fill="#ffffff" stroke="transparent" points="-4,4 -4,-1128 439.0291,-1128 439.0291,4 -4,4"/>
<!-- sh_t_outsourcing_cost_info -->
<g id="node1" class="node">
<title>sh_t_outsourcing_cost_info</title>
<polygon fill="#efefef" stroke="transparent" points="55.0291,-1042.5 55.0291,-1077.5 389.0291,-1077.5 389.0291,-1042.5 55.0291,-1042.5"/>
<polygon fill="none" stroke="#000000" points="55.0291,-1042.5 55.0291,-1077.5 389.0291,-1077.5 389.0291,-1042.5 55.0291,-1042.5"/>
<text text-anchor="start" x="61.5338" y="-1055.3" font-family="Arial Bold" font-size="18.00" fill="#000000">sh_t_outsourcing_cost_info</text>
<text text-anchor="start" x="280.61" y="-1055.3" font-family="Arial" font-size="14.00" fill="#000000"> </text>
<text text-anchor="start" x="284.5006" y="-1055.3" font-family="Arial" font-size="14.00" fill="#666666">[BASIC TABLE]</text>
<polygon fill="none" stroke="#000000" points="55.0291,-1012.5 55.0291,-1042.5 389.0291,-1042.5 389.0291,-1012.5 55.0291,-1012.5"/>
<text text-anchor="start" x="62.0291" y="-1023.9" font-family="Arial" font-size="14.00" fill="#000000">project_number </text>
<text text-anchor="start" x="163.1595" y="-1023.9" font-family="Arial" font-size="14.00" fill="#666666">[nvarchar(255)]</text>
<polygon fill="none" stroke="#000000" points="55.0291,-982.5 55.0291,-1012.5 389.0291,-1012.5 389.0291,-982.5 55.0291,-982.5"/>
<text text-anchor="start" x="62.0291" y="-993.9" font-family="Arial" font-size="14.00" fill="#000000">order_number </text>
<text text-anchor="start" x="153.8229" y="-993.9" font-family="Arial" font-size="14.00" fill="#666666">[nvarchar(255)]</text>
<polygon fill="none" stroke="#000000" points="55.0291,-952.5 55.0291,-982.5 389.0291,-982.5 389.0291,-952.5 55.0291,-952.5"/>
<text text-anchor="start" x="62.0291" y="-963.9" font-family="Arial" font-size="14.00" fill="#000000">detail_number </text>
<text text-anchor="start" x="154.6055" y="-963.9" font-family="Arial" font-size="14.00" fill="#666666">[nvarchar(255)]</text>
<polygon fill="none" stroke="#000000" points="55.0291,-922.5 55.0291,-952.5 389.0291,-952.5 389.0291,-922.5 55.0291,-922.5"/>
<text text-anchor="start" x="62.0291" y="-933.9" font-family="Arial" font-size="14.00" fill="#000000">department_cd </text>
<text text-anchor="start" x="159.2829" y="-933.9" font-family="Arial" font-size="14.00" fill="#666666">[nvarchar(255)]</text>
<polygon fill="none" stroke="#000000" points="55.0291,-892.5 55.0291,-922.5 389.0291,-922.5 389.0291,-892.5 55.0291,-892.5"/>
<text text-anchor="start" x="62.0291" y="-903.9" font-family="Arial" font-size="14.00" fill="#000000">year </text>
<text text-anchor="start" x="93.1455" y="-903.9" font-family="Arial" font-size="14.00" fill="#666666">[int]</text>
<polygon fill="none" stroke="#000000" points="55.0291,-862.5 55.0291,-892.5 389.0291,-892.5 389.0291,-862.5 55.0291,-862.5"/>
<text text-anchor="start" x="62.0291" y="-873.9" font-family="Arial" font-size="14.00" fill="#000000">month </text>
<text text-anchor="start" x="104.8187" y="-873.9" font-family="Arial" font-size="14.00" fill="#666666">[int]</text>
<polygon fill="none" stroke="#000000" points="55.0291,-832.5 55.0291,-862.5 389.0291,-862.5 389.0291,-832.5 55.0291,-832.5"/>
<text text-anchor="start" x="62.0291" y="-843.9" font-family="Arial" font-size="14.00" fill="#000000">outsourcing_cost </text>
<text text-anchor="start" x="171.7289" y="-843.9" font-family="Arial" font-size="14.00" fill="#666666">[int]</text>
<polygon fill="none" stroke="#000000" points="55.0291,-802.5 55.0291,-832.5 389.0291,-832.5 389.0291,-802.5 55.0291,-802.5"/>
<text text-anchor="start" x="62.0291" y="-813.9" font-family="Arial" font-size="14.00" fill="#000000">create_user_cd </text>
<text text-anchor="start" x="162.3923" y="-813.9" font-family="Arial" font-size="14.00" fill="#666666">[nvarchar(10)]</text>
<polygon fill="none" stroke="#000000" points="55.0291,-772.5 55.0291,-802.5 389.0291,-802.5 389.0291,-772.5 55.0291,-772.5"/>
<text text-anchor="start" x="62.0291" y="-783.9" font-family="Arial" font-size="14.00" fill="#000000">create_date </text>
<text text-anchor="start" x="139.8397" y="-783.9" font-family="Arial" font-size="14.00" fill="#666666">[datetime2]</text>
<polygon fill="none" stroke="#000000" points="55.0291,-742.5 55.0291,-772.5 389.0291,-772.5 389.0291,-742.5 55.0291,-742.5"/>
<text text-anchor="start" x="62.0291" y="-753.9" font-family="Arial" font-size="14.00" fill="#000000">record_user_cd </text>
<text text-anchor="start" x="163.1623" y="-753.9" font-family="Arial" font-size="14.00" fill="#666666">[nvarchar(10)]</text>
<polygon fill="none" stroke="#000000" points="55.0291,-712.5 55.0291,-742.5 389.0291,-742.5 389.0291,-712.5 55.0291,-712.5"/>
<text text-anchor="start" x="62.0291" y="-723.9" font-family="Arial" font-size="14.00" fill="#000000">record_date </text>
<text text-anchor="start" x="140.6097" y="-723.9" font-family="Arial" font-size="14.00" fill="#666666">[datetime2]</text>
<polygon fill="none" stroke="#000000" points="55.0291,-682.5 55.0291,-712.5 389.0291,-712.5 389.0291,-682.5 55.0291,-682.5"/>
<text text-anchor="start" x="62.0291" y="-693.9" font-family="Arial" font-size="14.00" fill="#000000">delete_flag </text>
<text text-anchor="start" x="134.3923" y="-693.9" font-family="Arial" font-size="14.00" fill="#666666">[nvarchar(1)]</text>
<polygon fill="none" stroke="#000000" stroke-width="3" points="53.5291,-681.5 53.5291,-1079.5 390.5291,-1079.5 390.5291,-681.5 53.5291,-681.5"/>
</g>
<!-- sh_t_order_details -->
<g id="node2" class="node">
<title>sh_t_order_details</title>
<polygon fill="#efefef" stroke="transparent" points="90.0291,-522.5 90.0291,-557.5 353.0291,-557.5 353.0291,-522.5 90.0291,-522.5"/>
<polygon fill="none" stroke="#000000" points="90.0291,-522.5 90.0291,-557.5 353.0291,-557.5 353.0291,-522.5 90.0291,-522.5"/>
<text text-anchor="start" x="96.5523" y="-535.3" font-family="Arial Bold" font-size="18.00" fill="#000000">sh_t_order_details</text>
<text text-anchor="start" x="244.5915" y="-535.3" font-family="Arial" font-size="14.00" fill="#000000"> </text>
<text text-anchor="start" x="248.4821" y="-535.3" font-family="Arial" font-size="14.00" fill="#666666">[BASIC TABLE]</text>
<polygon fill="none" stroke="#000000" points="90.0291,-492.5 90.0291,-522.5 353.0291,-522.5 353.0291,-492.5 90.0291,-492.5"/>
<text text-anchor="start" x="97.0291" y="-503.9" font-family="Arial" font-size="14.00" fill="#000000">project_number </text>
<text text-anchor="start" x="198.1595" y="-503.9" font-family="Arial" font-size="14.00" fill="#666666">[nvarchar(255)]</text>
<polygon fill="none" stroke="#000000" points="90.0291,-462.5 90.0291,-492.5 353.0291,-492.5 353.0291,-462.5 90.0291,-462.5"/>
<text text-anchor="start" x="97.0291" y="-473.9" font-family="Arial" font-size="14.00" fill="#000000">order_number </text>
<text text-anchor="start" x="188.8229" y="-473.9" font-family="Arial" font-size="14.00" fill="#666666">[nvarchar(255)]</text>
<polygon fill="none" stroke="#000000" points="90.0291,-432.5 90.0291,-462.5 353.0291,-462.5 353.0291,-432.5 90.0291,-432.5"/>
<text text-anchor="start" x="97.0291" y="-443.9" font-family="Arial" font-size="14.00" fill="#000000">detail_number </text>
<text text-anchor="start" x="189.6055" y="-443.9" font-family="Arial" font-size="14.00" fill="#666666">[nvarchar(255)]</text>
<polygon fill="none" stroke="#000000" points="90.0291,-402.5 90.0291,-432.5 353.0291,-432.5 353.0291,-402.5 90.0291,-402.5"/>
<text text-anchor="start" x="97.0291" y="-413.9" font-family="Arial" font-size="14.00" fill="#000000">department_cd </text>
<text text-anchor="start" x="194.2829" y="-413.9" font-family="Arial" font-size="14.00" fill="#666666">[nvarchar(255)]</text>
<polygon fill="none" stroke="#000000" points="90.0291,-372.5 90.0291,-402.5 353.0291,-402.5 353.0291,-372.5 90.0291,-372.5"/>
<text text-anchor="start" x="97.0291" y="-383.9" font-family="Arial" font-size="14.00" fill="#000000">main_department_cd </text>
<text text-anchor="start" x="232.3979" y="-383.9" font-family="Arial" font-size="14.00" fill="#666666">[nvarchar(100)]</text>
<polygon fill="none" stroke="#000000" points="90.0291,-342.5 90.0291,-372.5 353.0291,-372.5 353.0291,-342.5 90.0291,-342.5"/>
<text text-anchor="start" x="97.0291" y="-353.9" font-family="Arial" font-size="14.00" fill="#000000">details </text>
<text text-anchor="start" x="141.3713" y="-353.9" font-family="Arial" font-size="14.00" fill="#666666">[nvarchar(1000)]</text>
<polygon fill="none" stroke="#000000" points="90.0291,-312.5 90.0291,-342.5 353.0291,-342.5 353.0291,-312.5 90.0291,-312.5"/>
<text text-anchor="start" x="97.0291" y="-323.9" font-family="Arial" font-size="14.00" fill="#000000">order_amount </text>
<text text-anchor="start" x="188.0529" y="-323.9" font-family="Arial" font-size="14.00" fill="#666666">[decimal]</text>
<polygon fill="none" stroke="#000000" points="90.0291,-282.5 90.0291,-312.5 353.0291,-312.5 353.0291,-282.5 90.0291,-282.5"/>
<text text-anchor="start" x="97.0291" y="-293.9" font-family="Arial" font-size="14.00" fill="#000000">sales_confirmed_amount </text>
<text text-anchor="start" x="257.2871" y="-293.9" font-family="Arial" font-size="14.00" fill="#666666">[numeric]</text>
<polygon fill="none" stroke="#000000" points="90.0291,-252.5 90.0291,-282.5 353.0291,-282.5 353.0291,-252.5 90.0291,-252.5"/>
<text text-anchor="start" x="97.0291" y="-263.9" font-family="Arial" font-size="14.00" fill="#000000">progress_cost_flag </text>
<text text-anchor="start" x="219.1721" y="-263.9" font-family="Arial" font-size="14.00" fill="#666666">[nvarchar(1)]</text>
<polygon fill="none" stroke="#000000" points="90.0291,-222.5 90.0291,-252.5 353.0291,-252.5 353.0291,-222.5 90.0291,-222.5"/>
<text text-anchor="start" x="97.0291" y="-233.9" font-family="Arial" font-size="14.00" fill="#000000">progress_sales_status_cd </text>
<text text-anchor="start" x="263.5199" y="-233.9" font-family="Arial" font-size="14.00" fill="#666666">[nvarchar(2)]</text>
<polygon fill="none" stroke="#000000" points="90.0291,-192.5 90.0291,-222.5 353.0291,-222.5 353.0291,-192.5 90.0291,-192.5"/>
<text text-anchor="start" x="97.0291" y="-203.9" font-family="Arial" font-size="14.00" fill="#000000">progress_plans_status_cd </text>
<text text-anchor="start" x="264.3025" y="-203.9" font-family="Arial" font-size="14.00" fill="#666666">[nvarchar(2)]</text>
<polygon fill="none" stroke="#000000" points="90.0291,-162.5 90.0291,-192.5 353.0291,-192.5 353.0291,-162.5 90.0291,-162.5"/>
<text text-anchor="start" x="97.0291" y="-173.9" font-family="Arial" font-size="14.00" fill="#000000">create_user_cd </text>
<text text-anchor="start" x="197.3923" y="-173.9" font-family="Arial" font-size="14.00" fill="#666666">[nvarchar(10)]</text>
<polygon fill="none" stroke="#000000" points="90.0291,-132.5 90.0291,-162.5 353.0291,-162.5 353.0291,-132.5 90.0291,-132.5"/>
<text text-anchor="start" x="97.0291" y="-143.9" font-family="Arial" font-size="14.00" fill="#000000">create_date </text>
<text text-anchor="start" x="174.8397" y="-143.9" font-family="Arial" font-size="14.00" fill="#666666">[datetime2]</text>
<polygon fill="none" stroke="#000000" points="90.0291,-102.5 90.0291,-132.5 353.0291,-132.5 353.0291,-102.5 90.0291,-102.5"/>
<text text-anchor="start" x="97.0291" y="-113.9" font-family="Arial" font-size="14.00" fill="#000000">record_user_cd </text>
<text text-anchor="start" x="198.1623" y="-113.9" font-family="Arial" font-size="14.00" fill="#666666">[nvarchar(10)]</text>
<polygon fill="none" stroke="#000000" points="90.0291,-72.5 90.0291,-102.5 353.0291,-102.5 353.0291,-72.5 90.0291,-72.5"/>
<text text-anchor="start" x="97.0291" y="-83.9" font-family="Arial" font-size="14.00" fill="#000000">record_date </text>
<text text-anchor="start" x="175.6097" y="-83.9" font-family="Arial" font-size="14.00" fill="#666666">[datetime2]</text>
<polygon fill="none" stroke="#000000" points="90.0291,-42.5 90.0291,-72.5 353.0291,-72.5 353.0291,-42.5 90.0291,-42.5"/>
<text text-anchor="start" x="97.0291" y="-53.9" font-family="Arial" font-size="14.00" fill="#000000">delete_flag </text>
<text text-anchor="start" x="169.3923" y="-53.9" font-family="Arial" font-size="14.00" fill="#666666">[nvarchar(1)]</text>
</g>
<!-- sh_t_outsourcing_cost_info&#45;&gt;sh_t_order_details -->
<g id="edge1" class="edge">
<title>sh_t_outsourcing_cost_info:project_number&#45;&gt;sh_t_order_details:project_number</title>
<path fill="none" stroke="#000000" d="M44.9307,-1025.8974C-29.3045,-1001.2321 -.1739,-699.2732 55.0291,-637 143.5249,-537.17 264.5333,-700.83 353.0291,-601 380.595,-569.9036 394.5847,-507.5 353.0291,-507.5"/>
<polygon fill="#000000" stroke="#000000" points="45.1527,-1025.9325 54.3238,-1031.9444 50.0909,-1026.7163 55.0291,-1027.5 55.0291,-1027.5 55.0291,-1027.5 50.0909,-1026.7163 55.7345,-1023.0556 45.1527,-1025.9325 45.1527,-1025.9325"/>
</g>
</g>
</svg>
