<?xml version="1.0" encoding="UTF-8" standalone="no"?>
<!DOCTYPE svg PUBLIC "-//W3C//DTD SVG 1.1//EN"
 "http://www.w3.org/Graphics/SVG/1.1/DTD/svg11.dtd">
<!-- Generated by graphviz version 2.40.1 (20161225.0304)
 -->
<!-- Title: sh_t_order_list Pages: 1 -->
<svg width="386pt" height="1282pt"
 viewBox="0.00 0.00 385.70 1282.00" xmlns="http://www.w3.org/2000/svg" xmlns:xlink="http://www.w3.org/1999/xlink">
<g id="graph0" class="graph" transform="scale(1 1) rotate(0) translate(4 1278)">
<title>sh_t_order_list</title>
<polygon fill="#ffffff" stroke="transparent" points="-4,4 -4,-1278 381.6972,-1278 381.6972,4 -4,4"/>
<!-- sh_t_order_list -->
<g id="node1" class="node">
<title>sh_t_order_list</title>
<polygon fill="#efefef" stroke="transparent" points="53.5,-555.5 53.5,-590.5 297.5,-590.5 297.5,-555.5 53.5,-555.5"/>
<polygon fill="none" stroke="#000000" points="53.5,-555.5 53.5,-590.5 297.5,-590.5 297.5,-555.5 53.5,-555.5"/>
<text text-anchor="start" x="65.5325" y="-568.3" font-family="Arial Bold" font-size="18.00" fill="#000000">sh_t_order_list</text>
<text text-anchor="start" x="183.5531" y="-568.3" font-family="Arial" font-size="14.00" fill="#000000"> </text>
<text text-anchor="start" x="187.4437" y="-568.3" font-family="Arial" font-size="14.00" fill="#666666">[BASIC TABLE]</text>
<polygon fill="none" stroke="#000000" points="53.5,-525.5 53.5,-555.5 297.5,-555.5 297.5,-525.5 53.5,-525.5"/>
<text text-anchor="start" x="60.5" y="-536.9" font-family="Arial" font-size="14.00" fill="#000000">project_number </text>
<text text-anchor="start" x="161.6304" y="-536.9" font-family="Arial" font-size="14.00" fill="#666666">[nvarchar(255)]</text>
<polygon fill="none" stroke="#000000" points="53.5,-495.5 53.5,-525.5 297.5,-525.5 297.5,-495.5 53.5,-495.5"/>
<text text-anchor="start" x="60.5" y="-506.9" font-family="Arial" font-size="14.00" fill="#000000">order_number </text>
<text text-anchor="start" x="152.2938" y="-506.9" font-family="Arial" font-size="14.00" fill="#666666">[nvarchar(255)]</text>
<polygon fill="none" stroke="#000000" points="53.5,-465.5 53.5,-495.5 297.5,-495.5 297.5,-465.5 53.5,-465.5"/>
<text text-anchor="start" x="60.3647" y="-476.9" font-family="Arial" font-size="14.00" fill="#000000">main_department_cd </text>
<text text-anchor="start" x="195.7335" y="-476.9" font-family="Arial" font-size="14.00" fill="#666666">[nvarchar(100)]</text>
<polygon fill="none" stroke="#000000" points="53.5,-435.5 53.5,-465.5 297.5,-465.5 297.5,-435.5 53.5,-435.5"/>
<text text-anchor="start" x="60.5" y="-446.9" font-family="Arial" font-size="14.00" fill="#000000">project_name </text>
<text text-anchor="start" x="149.1872" y="-446.9" font-family="Arial" font-size="14.00" fill="#666666">[nvarchar(1000)]</text>
<polygon fill="none" stroke="#000000" points="53.5,-405.5 53.5,-435.5 297.5,-435.5 297.5,-405.5 53.5,-405.5"/>
<text text-anchor="start" x="60.5" y="-416.9" font-family="Arial" font-size="14.00" fill="#000000">order_name </text>
<text text-anchor="start" x="139.8506" y="-416.9" font-family="Arial" font-size="14.00" fill="#666666">[nvarchar(1000)]</text>
<polygon fill="none" stroke="#000000" points="53.5,-375.5 53.5,-405.5 297.5,-405.5 297.5,-375.5 53.5,-375.5"/>
<text text-anchor="start" x="60.5" y="-386.9" font-family="Arial" font-size="14.00" fill="#000000">order_status </text>
<text text-anchor="start" x="142.1886" y="-386.9" font-family="Arial" font-size="14.00" fill="#666666">[nvarchar(10)]</text>
<polygon fill="none" stroke="#000000" points="53.5,-345.5 53.5,-375.5 297.5,-375.5 297.5,-345.5 53.5,-345.5"/>
<text text-anchor="start" x="60.5" y="-356.9" font-family="Arial" font-size="14.00" fill="#000000">charge_division_cd </text>
<text text-anchor="start" x="184.197" y="-356.9" font-family="Arial" font-size="14.00" fill="#666666">[nvarchar(2)]</text>
<polygon fill="none" stroke="#000000" points="53.5,-315.5 53.5,-345.5 297.5,-345.5 297.5,-315.5 53.5,-315.5"/>
<text text-anchor="start" x="60.5" y="-326.9" font-family="Arial" font-size="14.00" fill="#000000">department_cd </text>
<text text-anchor="start" x="157.7538" y="-326.9" font-family="Arial" font-size="14.00" fill="#666666">[nvarchar(100)]</text>
<polygon fill="none" stroke="#000000" points="53.5,-285.5 53.5,-315.5 297.5,-315.5 297.5,-285.5 53.5,-285.5"/>
<text text-anchor="start" x="60.5" y="-296.9" font-family="Arial" font-size="14.00" fill="#000000">start_year </text>
<text text-anchor="start" x="126.6234" y="-296.9" font-family="Arial" font-size="14.00" fill="#666666">[int]</text>
<polygon fill="none" stroke="#000000" points="53.5,-255.5 53.5,-285.5 297.5,-285.5 297.5,-255.5 53.5,-255.5"/>
<text text-anchor="start" x="60.5" y="-266.9" font-family="Arial" font-size="14.00" fill="#000000">start_month </text>
<text text-anchor="start" x="138.2966" y="-266.9" font-family="Arial" font-size="14.00" fill="#666666">[int]</text>
<polygon fill="none" stroke="#000000" points="53.5,-225.5 53.5,-255.5 297.5,-255.5 297.5,-225.5 53.5,-225.5"/>
<text text-anchor="start" x="60.5" y="-236.9" font-family="Arial" font-size="14.00" fill="#000000">end_year </text>
<text text-anchor="start" x="122.7468" y="-236.9" font-family="Arial" font-size="14.00" fill="#666666">[int]</text>
<polygon fill="none" stroke="#000000" points="53.5,-195.5 53.5,-225.5 297.5,-225.5 297.5,-195.5 53.5,-195.5"/>
<text text-anchor="start" x="60.5" y="-206.9" font-family="Arial" font-size="14.00" fill="#000000">end_month </text>
<text text-anchor="start" x="134.42" y="-206.9" font-family="Arial" font-size="14.00" fill="#666666">[int]</text>
<polygon fill="none" stroke="#000000" points="53.5,-165.5 53.5,-195.5 297.5,-195.5 297.5,-165.5 53.5,-165.5"/>
<text text-anchor="start" x="60.5" y="-176.9" font-family="Arial" font-size="14.00" fill="#000000">create_user_cd </text>
<text text-anchor="start" x="160.8632" y="-176.9" font-family="Arial" font-size="14.00" fill="#666666">[nvarchar(10)]</text>
<polygon fill="none" stroke="#000000" points="53.5,-135.5 53.5,-165.5 297.5,-165.5 297.5,-135.5 53.5,-135.5"/>
<text text-anchor="start" x="60.5" y="-146.9" font-family="Arial" font-size="14.00" fill="#000000">create_date </text>
<text text-anchor="start" x="138.3106" y="-146.9" font-family="Arial" font-size="14.00" fill="#666666">[datetime2]</text>
<polygon fill="none" stroke="#000000" points="53.5,-105.5 53.5,-135.5 297.5,-135.5 297.5,-105.5 53.5,-105.5"/>
<text text-anchor="start" x="60.5" y="-116.9" font-family="Arial" font-size="14.00" fill="#000000">record_user_cd </text>
<text text-anchor="start" x="161.6332" y="-116.9" font-family="Arial" font-size="14.00" fill="#666666">[nvarchar(10)]</text>
<polygon fill="none" stroke="#000000" points="53.5,-75.5 53.5,-105.5 297.5,-105.5 297.5,-75.5 53.5,-75.5"/>
<text text-anchor="start" x="60.5" y="-86.9" font-family="Arial" font-size="14.00" fill="#000000">record_date </text>
<text text-anchor="start" x="139.0806" y="-86.9" font-family="Arial" font-size="14.00" fill="#666666">[datetime2]</text>
<polygon fill="none" stroke="#000000" points="53.5,-45.5 53.5,-75.5 297.5,-75.5 297.5,-45.5 53.5,-45.5"/>
<text text-anchor="start" x="60.5" y="-56.9" font-family="Arial" font-size="14.00" fill="#000000">delete_flag </text>
<text text-anchor="start" x="132.8632" y="-56.9" font-family="Arial" font-size="14.00" fill="#666666">[nvarchar(1)]</text>
<polygon fill="none" stroke="#000000" stroke-width="3" points="52,-44.5 52,-592.5 299,-592.5 299,-44.5 52,-44.5"/>
</g>
<!-- sh_t_order_details -->
<g id="node2" class="node">
<title>sh_t_order_details</title>
<polygon fill="#efefef" stroke="transparent" points="43.5,-1195.5 43.5,-1230.5 306.5,-1230.5 306.5,-1195.5 43.5,-1195.5"/>
<polygon fill="none" stroke="#000000" points="43.5,-1195.5 43.5,-1230.5 306.5,-1230.5 306.5,-1195.5 43.5,-1195.5"/>
<text text-anchor="start" x="50.0232" y="-1208.3" font-family="Arial Bold" font-size="18.00" fill="#000000">sh_t_order_details</text>
<text text-anchor="start" x="198.0624" y="-1208.3" font-family="Arial" font-size="14.00" fill="#000000"> </text>
<text text-anchor="start" x="201.953" y="-1208.3" font-family="Arial" font-size="14.00" fill="#666666">[BASIC TABLE]</text>
<polygon fill="none" stroke="#000000" points="43.5,-1165.5 43.5,-1195.5 306.5,-1195.5 306.5,-1165.5 43.5,-1165.5"/>
<text text-anchor="start" x="50.5" y="-1176.9" font-family="Arial" font-size="14.00" fill="#000000">project_number </text>
<text text-anchor="start" x="151.6304" y="-1176.9" font-family="Arial" font-size="14.00" fill="#666666">[nvarchar(255)]</text>
<polygon fill="none" stroke="#000000" points="43.5,-1135.5 43.5,-1165.5 306.5,-1165.5 306.5,-1135.5 43.5,-1135.5"/>
<text text-anchor="start" x="50.5" y="-1146.9" font-family="Arial" font-size="14.00" fill="#000000">order_number </text>
<text text-anchor="start" x="142.2938" y="-1146.9" font-family="Arial" font-size="14.00" fill="#666666">[nvarchar(255)]</text>
<polygon fill="none" stroke="#000000" points="43.5,-1105.5 43.5,-1135.5 306.5,-1135.5 306.5,-1105.5 43.5,-1105.5"/>
<text text-anchor="start" x="50.5" y="-1116.9" font-family="Arial" font-size="14.00" fill="#000000">detail_number </text>
<text text-anchor="start" x="143.0764" y="-1116.9" font-family="Arial" font-size="14.00" fill="#666666">[nvarchar(255)]</text>
<polygon fill="none" stroke="#000000" points="43.5,-1075.5 43.5,-1105.5 306.5,-1105.5 306.5,-1075.5 43.5,-1075.5"/>
<text text-anchor="start" x="50.5" y="-1086.9" font-family="Arial" font-size="14.00" fill="#000000">department_cd </text>
<text text-anchor="start" x="147.7538" y="-1086.9" font-family="Arial" font-size="14.00" fill="#666666">[nvarchar(255)]</text>
<polygon fill="none" stroke="#000000" points="43.5,-1045.5 43.5,-1075.5 306.5,-1075.5 306.5,-1045.5 43.5,-1045.5"/>
<text text-anchor="start" x="50.5" y="-1056.9" font-family="Arial" font-size="14.00" fill="#000000">main_department_cd </text>
<text text-anchor="start" x="185.8688" y="-1056.9" font-family="Arial" font-size="14.00" fill="#666666">[nvarchar(100)]</text>
<polygon fill="none" stroke="#000000" points="43.5,-1015.5 43.5,-1045.5 306.5,-1045.5 306.5,-1015.5 43.5,-1015.5"/>
<text text-anchor="start" x="50.5" y="-1026.9" font-family="Arial" font-size="14.00" fill="#000000">details </text>
<text text-anchor="start" x="94.8422" y="-1026.9" font-family="Arial" font-size="14.00" fill="#666666">[nvarchar(1000)]</text>
<polygon fill="none" stroke="#000000" points="43.5,-985.5 43.5,-1015.5 306.5,-1015.5 306.5,-985.5 43.5,-985.5"/>
<text text-anchor="start" x="50.5" y="-996.9" font-family="Arial" font-size="14.00" fill="#000000">order_amount </text>
<text text-anchor="start" x="141.5238" y="-996.9" font-family="Arial" font-size="14.00" fill="#666666">[decimal]</text>
<polygon fill="none" stroke="#000000" points="43.5,-955.5 43.5,-985.5 306.5,-985.5 306.5,-955.5 43.5,-955.5"/>
<text text-anchor="start" x="50.5" y="-966.9" font-family="Arial" font-size="14.00" fill="#000000">sales_confirmed_amount </text>
<text text-anchor="start" x="210.758" y="-966.9" font-family="Arial" font-size="14.00" fill="#666666">[numeric]</text>
<polygon fill="none" stroke="#000000" points="43.5,-925.5 43.5,-955.5 306.5,-955.5 306.5,-925.5 43.5,-925.5"/>
<text text-anchor="start" x="50.5" y="-936.9" font-family="Arial" font-size="14.00" fill="#000000">progress_cost_flag </text>
<text text-anchor="start" x="172.643" y="-936.9" font-family="Arial" font-size="14.00" fill="#666666">[nvarchar(1)]</text>
<polygon fill="none" stroke="#000000" points="43.5,-895.5 43.5,-925.5 306.5,-925.5 306.5,-895.5 43.5,-895.5"/>
<text text-anchor="start" x="50.5" y="-906.9" font-family="Arial" font-size="14.00" fill="#000000">progress_sales_status_cd </text>
<text text-anchor="start" x="216.9908" y="-906.9" font-family="Arial" font-size="14.00" fill="#666666">[nvarchar(2)]</text>
<polygon fill="none" stroke="#000000" points="43.5,-865.5 43.5,-895.5 306.5,-895.5 306.5,-865.5 43.5,-865.5"/>
<text text-anchor="start" x="50.5" y="-876.9" font-family="Arial" font-size="14.00" fill="#000000">progress_plans_status_cd </text>
<text text-anchor="start" x="217.7734" y="-876.9" font-family="Arial" font-size="14.00" fill="#666666">[nvarchar(2)]</text>
<polygon fill="none" stroke="#000000" points="43.5,-835.5 43.5,-865.5 306.5,-865.5 306.5,-835.5 43.5,-835.5"/>
<text text-anchor="start" x="50.5" y="-846.9" font-family="Arial" font-size="14.00" fill="#000000">create_user_cd </text>
<text text-anchor="start" x="150.8632" y="-846.9" font-family="Arial" font-size="14.00" fill="#666666">[nvarchar(10)]</text>
<polygon fill="none" stroke="#000000" points="43.5,-805.5 43.5,-835.5 306.5,-835.5 306.5,-805.5 43.5,-805.5"/>
<text text-anchor="start" x="50.5" y="-816.9" font-family="Arial" font-size="14.00" fill="#000000">create_date </text>
<text text-anchor="start" x="128.3106" y="-816.9" font-family="Arial" font-size="14.00" fill="#666666">[datetime2]</text>
<polygon fill="none" stroke="#000000" points="43.5,-775.5 43.5,-805.5 306.5,-805.5 306.5,-775.5 43.5,-775.5"/>
<text text-anchor="start" x="50.5" y="-786.9" font-family="Arial" font-size="14.00" fill="#000000">record_user_cd </text>
<text text-anchor="start" x="151.6332" y="-786.9" font-family="Arial" font-size="14.00" fill="#666666">[nvarchar(10)]</text>
<polygon fill="none" stroke="#000000" points="43.5,-745.5 43.5,-775.5 306.5,-775.5 306.5,-745.5 43.5,-745.5"/>
<text text-anchor="start" x="50.5" y="-756.9" font-family="Arial" font-size="14.00" fill="#000000">record_date </text>
<text text-anchor="start" x="129.0806" y="-756.9" font-family="Arial" font-size="14.00" fill="#666666">[datetime2]</text>
<polygon fill="none" stroke="#000000" points="43.5,-715.5 43.5,-745.5 306.5,-745.5 306.5,-715.5 43.5,-715.5"/>
<text text-anchor="start" x="50.5" y="-726.9" font-family="Arial" font-size="14.00" fill="#000000">delete_flag </text>
<text text-anchor="start" x="122.8632" y="-726.9" font-family="Arial" font-size="14.00" fill="#666666">[nvarchar(1)]</text>
</g>
<!-- sh_t_order_details&#45;&gt;sh_t_order_list -->
<g id="edge1" class="edge">
<title>sh_t_order_details:project_number&#45;&gt;sh_t_order_list:project_number</title>
<path fill="none" stroke="#000000" d="M316.6322,-1179.2859C416.8147,-1154.4341 378.1059,-755.5162 306.5,-673 232.0604,-587.2183 127.9396,-722.7817 53.5,-637 25.3902,-604.6072 10.6111,-540.5 53.5,-540.5"/>
<polygon fill="#000000" stroke="#000000" points="316.429,-1179.3102 305.9646,-1176.032 311.4645,-1179.9051 306.5,-1180.5 306.5,-1180.5 306.5,-1180.5 311.4645,-1179.9051 307.0354,-1184.968 316.429,-1179.3102 316.429,-1179.3102"/>
</g>
</g>
</svg>
