<?xml version="1.0" encoding="UTF-8" standalone="no"?>
<!DOCTYPE svg PUBLIC "-//W3C//DTD SVG 1.1//EN"
 "http://www.w3.org/Graphics/SVG/1.1/DTD/svg11.dtd">
<!-- Generated by graphviz version 2.40.1 (20161225.0304)
 -->
<!-- Title: sh_t_progress_sales_info Pages: 1 -->
<svg width="506pt" height="2279pt"
 viewBox="0.00 0.00 506.36 2279.00" xmlns="http://www.w3.org/2000/svg" xmlns:xlink="http://www.w3.org/1999/xlink">
<g id="graph0" class="graph" transform="scale(1 1) rotate(0) translate(4 2275)">
<title>sh_t_progress_sales_info</title>
<polygon fill="#ffffff" stroke="transparent" points="-4,4 -4,-2275 502.3601,-2275 502.3601,4 -4,4"/>
<!-- sh_t_progress_sales_info -->
<g id="node1" class="node">
<title>sh_t_progress_sales_info</title>
<polygon fill="#efefef" stroke="transparent" points="96.6269,-1342.5 96.6269,-1377.5 416.6269,-1377.5 416.6269,-1342.5 96.6269,-1342.5"/>
<polygon fill="none" stroke="#000000" points="96.6269,-1342.5 96.6269,-1377.5 416.6269,-1377.5 416.6269,-1342.5 96.6269,-1342.5"/>
<text text-anchor="start" x="103.1408" y="-1355.3" font-family="Arial Bold" font-size="18.00" fill="#000000">sh_t_progress_sales_info</text>
<text text-anchor="start" x="308.1986" y="-1355.3" font-family="Arial" font-size="14.00" fill="#000000"> </text>
<text text-anchor="start" x="312.0892" y="-1355.3" font-family="Arial" font-size="14.00" fill="#666666">[BASIC TABLE]</text>
<polygon fill="none" stroke="#000000" points="96.6269,-1312.5 96.6269,-1342.5 416.6269,-1342.5 416.6269,-1312.5 96.6269,-1312.5"/>
<text text-anchor="start" x="103.6269" y="-1323.9" font-family="Arial" font-size="14.00" fill="#000000">project_number </text>
<text text-anchor="start" x="204.7573" y="-1323.9" font-family="Arial" font-size="14.00" fill="#666666">[nvarchar(255)]</text>
<polygon fill="none" stroke="#000000" points="96.6269,-1282.5 96.6269,-1312.5 416.6269,-1312.5 416.6269,-1282.5 96.6269,-1282.5"/>
<text text-anchor="start" x="103.6269" y="-1293.9" font-family="Arial" font-size="14.00" fill="#000000">order_number </text>
<text text-anchor="start" x="195.4207" y="-1293.9" font-family="Arial" font-size="14.00" fill="#666666">[nvarchar(255)]</text>
<polygon fill="none" stroke="#000000" points="96.6269,-1252.5 96.6269,-1282.5 416.6269,-1282.5 416.6269,-1252.5 96.6269,-1252.5"/>
<text text-anchor="start" x="103.6269" y="-1263.9" font-family="Arial" font-size="14.00" fill="#000000">detail_number </text>
<text text-anchor="start" x="196.2033" y="-1263.9" font-family="Arial" font-size="14.00" fill="#666666">[nvarchar(255)]</text>
<polygon fill="none" stroke="#000000" points="96.6269,-1222.5 96.6269,-1252.5 416.6269,-1252.5 416.6269,-1222.5 96.6269,-1222.5"/>
<text text-anchor="start" x="103.6269" y="-1233.9" font-family="Arial" font-size="14.00" fill="#000000">department_cd </text>
<text text-anchor="start" x="200.8807" y="-1233.9" font-family="Arial" font-size="14.00" fill="#666666">[nvarchar(255)]</text>
<polygon fill="none" stroke="#000000" points="96.6269,-1192.5 96.6269,-1222.5 416.6269,-1222.5 416.6269,-1192.5 96.6269,-1192.5"/>
<text text-anchor="start" x="103.6269" y="-1203.9" font-family="Arial" font-size="14.00" fill="#000000">main_department_cd </text>
<text text-anchor="start" x="238.9957" y="-1203.9" font-family="Arial" font-size="14.00" fill="#666666">[nvarchar(100)]</text>
<polygon fill="none" stroke="#000000" points="96.6269,-1162.5 96.6269,-1192.5 416.6269,-1192.5 416.6269,-1162.5 96.6269,-1162.5"/>
<text text-anchor="start" x="103.6269" y="-1173.9" font-family="Arial" font-size="14.00" fill="#000000">year </text>
<text text-anchor="start" x="134.7433" y="-1173.9" font-family="Arial" font-size="14.00" fill="#666666">[int]</text>
<polygon fill="none" stroke="#000000" points="96.6269,-1132.5 96.6269,-1162.5 416.6269,-1162.5 416.6269,-1132.5 96.6269,-1132.5"/>
<text text-anchor="start" x="103.6269" y="-1143.9" font-family="Arial" font-size="14.00" fill="#000000">month </text>
<text text-anchor="start" x="146.4165" y="-1143.9" font-family="Arial" font-size="14.00" fill="#666666">[int]</text>
<polygon fill="none" stroke="#000000" points="96.6269,-1102.5 96.6269,-1132.5 416.6269,-1132.5 416.6269,-1102.5 96.6269,-1102.5"/>
<text text-anchor="start" x="103.6269" y="-1113.9" font-family="Arial" font-size="14.00" fill="#000000">overall_progress </text>
<text text-anchor="start" x="210.9733" y="-1113.9" font-family="Arial" font-size="14.00" fill="#666666">[nvarchar(3)]</text>
<polygon fill="none" stroke="#000000" points="96.6269,-1072.5 96.6269,-1102.5 416.6269,-1102.5 416.6269,-1072.5 96.6269,-1072.5"/>
<text text-anchor="start" x="103.6269" y="-1083.9" font-family="Arial" font-size="14.00" fill="#000000">progress_manhour </text>
<text text-anchor="start" x="224.9859" y="-1083.9" font-family="Arial" font-size="14.00" fill="#666666">[nvarchar(3)]</text>
<polygon fill="none" stroke="#000000" points="96.6269,-1042.5 96.6269,-1072.5 416.6269,-1072.5 416.6269,-1042.5 96.6269,-1042.5"/>
<text text-anchor="start" x="103.6269" y="-1053.9" font-family="Arial" font-size="14.00" fill="#000000">progress_cost_outsourcing </text>
<text text-anchor="start" x="275.5609" y="-1053.9" font-family="Arial" font-size="14.00" fill="#666666">[nvarchar(3)]</text>
<polygon fill="none" stroke="#000000" points="96.6269,-1012.5 96.6269,-1042.5 416.6269,-1042.5 416.6269,-1012.5 96.6269,-1012.5"/>
<text text-anchor="start" x="103.6269" y="-1023.9" font-family="Arial" font-size="14.00" fill="#000000">sales_adjusted_change_flag </text>
<text text-anchor="start" x="284.9227" y="-1023.9" font-family="Arial" font-size="14.00" fill="#666666">[nvarchar(1)]</text>
<polygon fill="none" stroke="#000000" points="96.6269,-982.5 96.6269,-1012.5 416.6269,-1012.5 416.6269,-982.5 96.6269,-982.5"/>
<text text-anchor="start" x="103.6269" y="-993.9" font-family="Arial" font-size="14.00" fill="#000000">sales_adjusted_value </text>
<text text-anchor="start" x="242.1191" y="-993.9" font-family="Arial" font-size="14.00" fill="#666666">[numeric]</text>
<polygon fill="none" stroke="#000000" points="96.6269,-952.5 96.6269,-982.5 416.6269,-982.5 416.6269,-952.5 96.6269,-952.5"/>
<text text-anchor="start" x="103.6269" y="-963.9" font-family="Arial" font-size="14.00" fill="#000000">progress_sales_theory </text>
<text text-anchor="start" x="249.1051" y="-963.9" font-family="Arial" font-size="14.00" fill="#666666">[nvarchar(3)]</text>
<polygon fill="none" stroke="#000000" points="96.6269,-922.5 96.6269,-952.5 416.6269,-952.5 416.6269,-922.5 96.6269,-922.5"/>
<text text-anchor="start" x="103.6269" y="-933.9" font-family="Arial" font-size="14.00" fill="#000000">progress_sales_report </text>
<text text-anchor="start" x="246.7657" y="-933.9" font-family="Arial" font-size="14.00" fill="#666666">[nvarchar(3)]</text>
<polygon fill="none" stroke="#000000" points="96.6269,-892.5 96.6269,-922.5 416.6269,-922.5 416.6269,-892.5 96.6269,-892.5"/>
<text text-anchor="start" x="103.6269" y="-903.9" font-family="Arial" font-size="14.00" fill="#000000">sales_amount </text>
<text text-anchor="start" x="194.6535" y="-903.9" font-family="Arial" font-size="14.00" fill="#666666">[numeric]</text>
<polygon fill="none" stroke="#000000" points="96.6269,-862.5 96.6269,-892.5 416.6269,-892.5 416.6269,-862.5 96.6269,-862.5"/>
<text text-anchor="start" x="103.6269" y="-873.9" font-family="Arial" font-size="14.00" fill="#000000">end_flag </text>
<text text-anchor="start" x="161.2103" y="-873.9" font-family="Arial" font-size="14.00" fill="#666666">[nvarchar(1)]</text>
<polygon fill="none" stroke="#000000" points="96.6269,-832.5 96.6269,-862.5 416.6269,-862.5 416.6269,-832.5 96.6269,-832.5"/>
<text text-anchor="start" x="103.6269" y="-843.9" font-family="Arial" font-size="14.00" fill="#000000">comment </text>
<text text-anchor="start" x="165.0771" y="-843.9" font-family="Arial" font-size="14.00" fill="#666666">[nvarchar(1000)]</text>
<polygon fill="none" stroke="#000000" points="96.6269,-802.5 96.6269,-832.5 416.6269,-832.5 416.6269,-802.5 96.6269,-802.5"/>
<text text-anchor="start" x="103.6269" y="-813.9" font-family="Arial" font-size="14.00" fill="#000000">create_user_cd </text>
<text text-anchor="start" x="203.9901" y="-813.9" font-family="Arial" font-size="14.00" fill="#666666">[nvarchar(10)]</text>
<polygon fill="none" stroke="#000000" points="96.6269,-772.5 96.6269,-802.5 416.6269,-802.5 416.6269,-772.5 96.6269,-772.5"/>
<text text-anchor="start" x="103.6269" y="-783.9" font-family="Arial" font-size="14.00" fill="#000000">create_date </text>
<text text-anchor="start" x="181.4375" y="-783.9" font-family="Arial" font-size="14.00" fill="#666666">[datetime2]</text>
<polygon fill="none" stroke="#000000" points="96.6269,-742.5 96.6269,-772.5 416.6269,-772.5 416.6269,-742.5 96.6269,-742.5"/>
<text text-anchor="start" x="103.6269" y="-753.9" font-family="Arial" font-size="14.00" fill="#000000">record_user_cd </text>
<text text-anchor="start" x="204.7601" y="-753.9" font-family="Arial" font-size="14.00" fill="#666666">[nvarchar(10)]</text>
<polygon fill="none" stroke="#000000" points="96.6269,-712.5 96.6269,-742.5 416.6269,-742.5 416.6269,-712.5 96.6269,-712.5"/>
<text text-anchor="start" x="103.6269" y="-723.9" font-family="Arial" font-size="14.00" fill="#000000">record_date </text>
<text text-anchor="start" x="182.2075" y="-723.9" font-family="Arial" font-size="14.00" fill="#666666">[datetime2]</text>
<polygon fill="none" stroke="#000000" points="96.6269,-682.5 96.6269,-712.5 416.6269,-712.5 416.6269,-682.5 96.6269,-682.5"/>
<text text-anchor="start" x="103.6269" y="-693.9" font-family="Arial" font-size="14.00" fill="#000000">delete_flag </text>
<text text-anchor="start" x="175.9901" y="-693.9" font-family="Arial" font-size="14.00" fill="#666666">[nvarchar(1)]</text>
<polygon fill="none" stroke="#000000" stroke-width="3" points="95.1269,-681.5 95.1269,-1379.5 418.1269,-1379.5 418.1269,-681.5 95.1269,-681.5"/>
</g>
<!-- sh_t_order_details -->
<g id="node2" class="node">
<title>sh_t_order_details</title>
<polygon fill="#efefef" stroke="transparent" points="124.6269,-522.5 124.6269,-557.5 387.6269,-557.5 387.6269,-522.5 124.6269,-522.5"/>
<polygon fill="none" stroke="#000000" points="124.6269,-522.5 124.6269,-557.5 387.6269,-557.5 387.6269,-522.5 124.6269,-522.5"/>
<text text-anchor="start" x="131.1501" y="-535.3" font-family="Arial Bold" font-size="18.00" fill="#000000">sh_t_order_details</text>
<text text-anchor="start" x="279.1893" y="-535.3" font-family="Arial" font-size="14.00" fill="#000000"> </text>
<text text-anchor="start" x="283.0799" y="-535.3" font-family="Arial" font-size="14.00" fill="#666666">[BASIC TABLE]</text>
<polygon fill="none" stroke="#000000" points="124.6269,-492.5 124.6269,-522.5 387.6269,-522.5 387.6269,-492.5 124.6269,-492.5"/>
<text text-anchor="start" x="131.6269" y="-503.9" font-family="Arial" font-size="14.00" fill="#000000">project_number </text>
<text text-anchor="start" x="232.7573" y="-503.9" font-family="Arial" font-size="14.00" fill="#666666">[nvarchar(255)]</text>
<polygon fill="none" stroke="#000000" points="124.6269,-462.5 124.6269,-492.5 387.6269,-492.5 387.6269,-462.5 124.6269,-462.5"/>
<text text-anchor="start" x="131.6269" y="-473.9" font-family="Arial" font-size="14.00" fill="#000000">order_number </text>
<text text-anchor="start" x="223.4207" y="-473.9" font-family="Arial" font-size="14.00" fill="#666666">[nvarchar(255)]</text>
<polygon fill="none" stroke="#000000" points="124.6269,-432.5 124.6269,-462.5 387.6269,-462.5 387.6269,-432.5 124.6269,-432.5"/>
<text text-anchor="start" x="131.6269" y="-443.9" font-family="Arial" font-size="14.00" fill="#000000">detail_number </text>
<text text-anchor="start" x="224.2033" y="-443.9" font-family="Arial" font-size="14.00" fill="#666666">[nvarchar(255)]</text>
<polygon fill="none" stroke="#000000" points="124.6269,-402.5 124.6269,-432.5 387.6269,-432.5 387.6269,-402.5 124.6269,-402.5"/>
<text text-anchor="start" x="131.6269" y="-413.9" font-family="Arial" font-size="14.00" fill="#000000">department_cd </text>
<text text-anchor="start" x="228.8807" y="-413.9" font-family="Arial" font-size="14.00" fill="#666666">[nvarchar(255)]</text>
<polygon fill="none" stroke="#000000" points="124.6269,-372.5 124.6269,-402.5 387.6269,-402.5 387.6269,-372.5 124.6269,-372.5"/>
<text text-anchor="start" x="131.6269" y="-383.9" font-family="Arial" font-size="14.00" fill="#000000">main_department_cd </text>
<text text-anchor="start" x="266.9957" y="-383.9" font-family="Arial" font-size="14.00" fill="#666666">[nvarchar(100)]</text>
<polygon fill="none" stroke="#000000" points="124.6269,-342.5 124.6269,-372.5 387.6269,-372.5 387.6269,-342.5 124.6269,-342.5"/>
<text text-anchor="start" x="131.6269" y="-353.9" font-family="Arial" font-size="14.00" fill="#000000">details </text>
<text text-anchor="start" x="175.9691" y="-353.9" font-family="Arial" font-size="14.00" fill="#666666">[nvarchar(1000)]</text>
<polygon fill="none" stroke="#000000" points="124.6269,-312.5 124.6269,-342.5 387.6269,-342.5 387.6269,-312.5 124.6269,-312.5"/>
<text text-anchor="start" x="131.6269" y="-323.9" font-family="Arial" font-size="14.00" fill="#000000">order_amount </text>
<text text-anchor="start" x="222.6507" y="-323.9" font-family="Arial" font-size="14.00" fill="#666666">[decimal]</text>
<polygon fill="none" stroke="#000000" points="124.6269,-282.5 124.6269,-312.5 387.6269,-312.5 387.6269,-282.5 124.6269,-282.5"/>
<text text-anchor="start" x="131.6269" y="-293.9" font-family="Arial" font-size="14.00" fill="#000000">sales_confirmed_amount </text>
<text text-anchor="start" x="291.8849" y="-293.9" font-family="Arial" font-size="14.00" fill="#666666">[numeric]</text>
<polygon fill="none" stroke="#000000" points="124.6269,-252.5 124.6269,-282.5 387.6269,-282.5 387.6269,-252.5 124.6269,-252.5"/>
<text text-anchor="start" x="131.6269" y="-263.9" font-family="Arial" font-size="14.00" fill="#000000">progress_cost_flag </text>
<text text-anchor="start" x="253.7699" y="-263.9" font-family="Arial" font-size="14.00" fill="#666666">[nvarchar(1)]</text>
<polygon fill="none" stroke="#000000" points="124.6269,-222.5 124.6269,-252.5 387.6269,-252.5 387.6269,-222.5 124.6269,-222.5"/>
<text text-anchor="start" x="131.6269" y="-233.9" font-family="Arial" font-size="14.00" fill="#000000">progress_sales_status_cd </text>
<text text-anchor="start" x="298.1177" y="-233.9" font-family="Arial" font-size="14.00" fill="#666666">[nvarchar(2)]</text>
<polygon fill="none" stroke="#000000" points="124.6269,-192.5 124.6269,-222.5 387.6269,-222.5 387.6269,-192.5 124.6269,-192.5"/>
<text text-anchor="start" x="131.6269" y="-203.9" font-family="Arial" font-size="14.00" fill="#000000">progress_plans_status_cd </text>
<text text-anchor="start" x="298.9003" y="-203.9" font-family="Arial" font-size="14.00" fill="#666666">[nvarchar(2)]</text>
<polygon fill="none" stroke="#000000" points="124.6269,-162.5 124.6269,-192.5 387.6269,-192.5 387.6269,-162.5 124.6269,-162.5"/>
<text text-anchor="start" x="131.6269" y="-173.9" font-family="Arial" font-size="14.00" fill="#000000">create_user_cd </text>
<text text-anchor="start" x="231.9901" y="-173.9" font-family="Arial" font-size="14.00" fill="#666666">[nvarchar(10)]</text>
<polygon fill="none" stroke="#000000" points="124.6269,-132.5 124.6269,-162.5 387.6269,-162.5 387.6269,-132.5 124.6269,-132.5"/>
<text text-anchor="start" x="131.6269" y="-143.9" font-family="Arial" font-size="14.00" fill="#000000">create_date </text>
<text text-anchor="start" x="209.4375" y="-143.9" font-family="Arial" font-size="14.00" fill="#666666">[datetime2]</text>
<polygon fill="none" stroke="#000000" points="124.6269,-102.5 124.6269,-132.5 387.6269,-132.5 387.6269,-102.5 124.6269,-102.5"/>
<text text-anchor="start" x="131.6269" y="-113.9" font-family="Arial" font-size="14.00" fill="#000000">record_user_cd </text>
<text text-anchor="start" x="232.7601" y="-113.9" font-family="Arial" font-size="14.00" fill="#666666">[nvarchar(10)]</text>
<polygon fill="none" stroke="#000000" points="124.6269,-72.5 124.6269,-102.5 387.6269,-102.5 387.6269,-72.5 124.6269,-72.5"/>
<text text-anchor="start" x="131.6269" y="-83.9" font-family="Arial" font-size="14.00" fill="#000000">record_date </text>
<text text-anchor="start" x="210.2075" y="-83.9" font-family="Arial" font-size="14.00" fill="#666666">[datetime2]</text>
<polygon fill="none" stroke="#000000" points="124.6269,-42.5 124.6269,-72.5 387.6269,-72.5 387.6269,-42.5 124.6269,-42.5"/>
<text text-anchor="start" x="131.6269" y="-53.9" font-family="Arial" font-size="14.00" fill="#000000">delete_flag </text>
<text text-anchor="start" x="203.9901" y="-53.9" font-family="Arial" font-size="14.00" fill="#666666">[nvarchar(1)]</text>
</g>
<!-- sh_t_progress_sales_info&#45;&gt;sh_t_order_details -->
<g id="edge1" class="edge">
<title>sh_t_progress_sales_info:project_number&#45;&gt;sh_t_order_details:project_number</title>
<path fill="none" stroke="#000000" d="M86.5963,-1326.6407C-54.4645,-1301.8784 -2.7135,-749.3872 96.6269,-637 182.9345,-539.3572 301.3193,-698.6428 387.6269,-601 415.1482,-569.8642 429.1824,-507.5 387.6269,-507.5"/>
<polygon fill="#000000" stroke="#000000" points="86.6634,-1326.6463 96.2427,-1331.9836 91.6451,-1327.0732 96.6269,-1327.5 96.6269,-1327.5 96.6269,-1327.5 91.6451,-1327.0732 97.011,-1323.0164 86.6634,-1326.6463 86.6634,-1326.6463"/>
</g>
<!-- sh_t_progress_sales_info_history -->
<g id="node3" class="node">
<title>sh_t_progress_sales_info_history</title>
<polygon fill="#efefef" stroke="transparent" points="64.6269,-2192.5 64.6269,-2227.5 447.6269,-2227.5 447.6269,-2192.5 64.6269,-2192.5"/>
<polygon fill="none" stroke="#000000" points="64.6269,-2192.5 64.6269,-2227.5 447.6269,-2227.5 447.6269,-2192.5 64.6269,-2192.5"/>
<text text-anchor="start" x="71.1372" y="-2205.3" font-family="Arial Bold" font-size="18.00" fill="#000000">sh_t_progress_sales_info_history</text>
<text text-anchor="start" x="339.2022" y="-2205.3" font-family="Arial" font-size="14.00" fill="#000000"> </text>
<text text-anchor="start" x="343.0928" y="-2205.3" font-family="Arial" font-size="14.00" fill="#666666">[BASIC TABLE]</text>
<polygon fill="none" stroke="#000000" points="64.6269,-2162.5 64.6269,-2192.5 447.6269,-2192.5 447.6269,-2162.5 64.6269,-2162.5"/>
<text text-anchor="start" x="71.6269" y="-2173.9" font-family="Arial" font-size="14.00" fill="#000000">project_number </text>
<text text-anchor="start" x="172.7573" y="-2173.9" font-family="Arial" font-size="14.00" fill="#666666">[nvarchar(255)]</text>
<polygon fill="none" stroke="#000000" points="64.6269,-2132.5 64.6269,-2162.5 447.6269,-2162.5 447.6269,-2132.5 64.6269,-2132.5"/>
<text text-anchor="start" x="71.6269" y="-2143.9" font-family="Arial" font-size="14.00" fill="#000000">order_number </text>
<text text-anchor="start" x="163.4207" y="-2143.9" font-family="Arial" font-size="14.00" fill="#666666">[nvarchar(255)]</text>
<polygon fill="none" stroke="#000000" points="64.6269,-2102.5 64.6269,-2132.5 447.6269,-2132.5 447.6269,-2102.5 64.6269,-2102.5"/>
<text text-anchor="start" x="71.6269" y="-2113.9" font-family="Arial" font-size="14.00" fill="#000000">detail_number </text>
<text text-anchor="start" x="164.2033" y="-2113.9" font-family="Arial" font-size="14.00" fill="#666666">[nvarchar(255)]</text>
<polygon fill="none" stroke="#000000" points="64.6269,-2072.5 64.6269,-2102.5 447.6269,-2102.5 447.6269,-2072.5 64.6269,-2072.5"/>
<text text-anchor="start" x="71.6269" y="-2083.9" font-family="Arial" font-size="14.00" fill="#000000">department_cd </text>
<text text-anchor="start" x="168.8807" y="-2083.9" font-family="Arial" font-size="14.00" fill="#666666">[nvarchar(255)]</text>
<polygon fill="none" stroke="#000000" points="64.6269,-2042.5 64.6269,-2072.5 447.6269,-2072.5 447.6269,-2042.5 64.6269,-2042.5"/>
<text text-anchor="start" x="71.6269" y="-2053.9" font-family="Arial" font-size="14.00" fill="#000000">history_number </text>
<text text-anchor="start" x="171.9747" y="-2053.9" font-family="Arial" font-size="14.00" fill="#666666">[int]</text>
<polygon fill="none" stroke="#000000" points="64.6269,-2012.5 64.6269,-2042.5 447.6269,-2042.5 447.6269,-2012.5 64.6269,-2012.5"/>
<text text-anchor="start" x="71.6269" y="-2023.9" font-family="Arial" font-size="14.00" fill="#000000">main_department_cd </text>
<text text-anchor="start" x="206.9957" y="-2023.9" font-family="Arial" font-size="14.00" fill="#666666">[nvarchar(100)]</text>
<polygon fill="none" stroke="#000000" points="64.6269,-1982.5 64.6269,-2012.5 447.6269,-2012.5 447.6269,-1982.5 64.6269,-1982.5"/>
<text text-anchor="start" x="71.6269" y="-1993.9" font-family="Arial" font-size="14.00" fill="#000000">year </text>
<text text-anchor="start" x="102.7433" y="-1993.9" font-family="Arial" font-size="14.00" fill="#666666">[int]</text>
<polygon fill="none" stroke="#000000" points="64.6269,-1952.5 64.6269,-1982.5 447.6269,-1982.5 447.6269,-1952.5 64.6269,-1952.5"/>
<text text-anchor="start" x="71.6269" y="-1963.9" font-family="Arial" font-size="14.00" fill="#000000">month </text>
<text text-anchor="start" x="114.4165" y="-1963.9" font-family="Arial" font-size="14.00" fill="#666666">[int]</text>
<polygon fill="none" stroke="#000000" points="64.6269,-1922.5 64.6269,-1952.5 447.6269,-1952.5 447.6269,-1922.5 64.6269,-1922.5"/>
<text text-anchor="start" x="71.6269" y="-1933.9" font-family="Arial" font-size="14.00" fill="#000000">overall_progress </text>
<text text-anchor="start" x="178.9733" y="-1933.9" font-family="Arial" font-size="14.00" fill="#666666">[nvarchar(3)]</text>
<polygon fill="none" stroke="#000000" points="64.6269,-1892.5 64.6269,-1922.5 447.6269,-1922.5 447.6269,-1892.5 64.6269,-1892.5"/>
<text text-anchor="start" x="71.6269" y="-1903.9" font-family="Arial" font-size="14.00" fill="#000000">progress_manhour </text>
<text text-anchor="start" x="192.9859" y="-1903.9" font-family="Arial" font-size="14.00" fill="#666666">[nvarchar(3)]</text>
<polygon fill="none" stroke="#000000" points="64.6269,-1862.5 64.6269,-1892.5 447.6269,-1892.5 447.6269,-1862.5 64.6269,-1862.5"/>
<text text-anchor="start" x="71.6269" y="-1873.9" font-family="Arial" font-size="14.00" fill="#000000">progress_cost_outsourcing </text>
<text text-anchor="start" x="243.5609" y="-1873.9" font-family="Arial" font-size="14.00" fill="#666666">[nvarchar(3)]</text>
<polygon fill="none" stroke="#000000" points="64.6269,-1832.5 64.6269,-1862.5 447.6269,-1862.5 447.6269,-1832.5 64.6269,-1832.5"/>
<text text-anchor="start" x="71.6269" y="-1843.9" font-family="Arial" font-size="14.00" fill="#000000">sales_adjusted_change_flag </text>
<text text-anchor="start" x="252.9227" y="-1843.9" font-family="Arial" font-size="14.00" fill="#666666">[nvarchar(1)]</text>
<polygon fill="none" stroke="#000000" points="64.6269,-1802.5 64.6269,-1832.5 447.6269,-1832.5 447.6269,-1802.5 64.6269,-1802.5"/>
<text text-anchor="start" x="71.6269" y="-1813.9" font-family="Arial" font-size="14.00" fill="#000000">sales_adjusted_value </text>
<text text-anchor="start" x="210.1191" y="-1813.9" font-family="Arial" font-size="14.00" fill="#666666">[numeric]</text>
<polygon fill="none" stroke="#000000" points="64.6269,-1772.5 64.6269,-1802.5 447.6269,-1802.5 447.6269,-1772.5 64.6269,-1772.5"/>
<text text-anchor="start" x="71.6269" y="-1783.9" font-family="Arial" font-size="14.00" fill="#000000">progress_sales_theory </text>
<text text-anchor="start" x="217.1051" y="-1783.9" font-family="Arial" font-size="14.00" fill="#666666">[nvarchar(3)]</text>
<polygon fill="none" stroke="#000000" points="64.6269,-1742.5 64.6269,-1772.5 447.6269,-1772.5 447.6269,-1742.5 64.6269,-1742.5"/>
<text text-anchor="start" x="71.6269" y="-1753.9" font-family="Arial" font-size="14.00" fill="#000000">progress_sales_report </text>
<text text-anchor="start" x="214.7657" y="-1753.9" font-family="Arial" font-size="14.00" fill="#666666">[nvarchar(3)]</text>
<polygon fill="none" stroke="#000000" points="64.6269,-1712.5 64.6269,-1742.5 447.6269,-1742.5 447.6269,-1712.5 64.6269,-1712.5"/>
<text text-anchor="start" x="71.6269" y="-1723.9" font-family="Arial" font-size="14.00" fill="#000000">sales_amount </text>
<text text-anchor="start" x="162.6535" y="-1723.9" font-family="Arial" font-size="14.00" fill="#666666">[numeric]</text>
<polygon fill="none" stroke="#000000" points="64.6269,-1682.5 64.6269,-1712.5 447.6269,-1712.5 447.6269,-1682.5 64.6269,-1682.5"/>
<text text-anchor="start" x="71.6269" y="-1693.9" font-family="Arial" font-size="14.00" fill="#000000">end_flag </text>
<text text-anchor="start" x="129.2103" y="-1693.9" font-family="Arial" font-size="14.00" fill="#666666">[nvarchar(1)]</text>
<polygon fill="none" stroke="#000000" points="64.6269,-1652.5 64.6269,-1682.5 447.6269,-1682.5 447.6269,-1652.5 64.6269,-1652.5"/>
<text text-anchor="start" x="71.6269" y="-1663.9" font-family="Arial" font-size="14.00" fill="#000000">comment </text>
<text text-anchor="start" x="133.0771" y="-1663.9" font-family="Arial" font-size="14.00" fill="#666666">[nvarchar(1000)]</text>
<polygon fill="none" stroke="#000000" points="64.6269,-1622.5 64.6269,-1652.5 447.6269,-1652.5 447.6269,-1622.5 64.6269,-1622.5"/>
<text text-anchor="start" x="71.6269" y="-1633.9" font-family="Arial" font-size="14.00" fill="#000000">create_user_cd </text>
<text text-anchor="start" x="171.9901" y="-1633.9" font-family="Arial" font-size="14.00" fill="#666666">[nvarchar(10)]</text>
<polygon fill="none" stroke="#000000" points="64.6269,-1592.5 64.6269,-1622.5 447.6269,-1622.5 447.6269,-1592.5 64.6269,-1592.5"/>
<text text-anchor="start" x="71.6269" y="-1603.9" font-family="Arial" font-size="14.00" fill="#000000">create_date </text>
<text text-anchor="start" x="149.4375" y="-1603.9" font-family="Arial" font-size="14.00" fill="#666666">[datetime2]</text>
<polygon fill="none" stroke="#000000" points="64.6269,-1562.5 64.6269,-1592.5 447.6269,-1592.5 447.6269,-1562.5 64.6269,-1562.5"/>
<text text-anchor="start" x="71.6269" y="-1573.9" font-family="Arial" font-size="14.00" fill="#000000">record_user_cd </text>
<text text-anchor="start" x="172.7601" y="-1573.9" font-family="Arial" font-size="14.00" fill="#666666">[nvarchar(10)]</text>
<polygon fill="none" stroke="#000000" points="64.6269,-1532.5 64.6269,-1562.5 447.6269,-1562.5 447.6269,-1532.5 64.6269,-1532.5"/>
<text text-anchor="start" x="71.6269" y="-1543.9" font-family="Arial" font-size="14.00" fill="#000000">record_date </text>
<text text-anchor="start" x="150.2075" y="-1543.9" font-family="Arial" font-size="14.00" fill="#666666">[datetime2]</text>
<polygon fill="none" stroke="#000000" points="64.6269,-1502.5 64.6269,-1532.5 447.6269,-1532.5 447.6269,-1502.5 64.6269,-1502.5"/>
<text text-anchor="start" x="71.6269" y="-1513.9" font-family="Arial" font-size="14.00" fill="#000000">delete_flag </text>
<text text-anchor="start" x="143.9901" y="-1513.9" font-family="Arial" font-size="14.00" fill="#666666">[nvarchar(1)]</text>
</g>
<!-- sh_t_progress_sales_info_history&#45;&gt;sh_t_progress_sales_info -->
<g id="edge2" class="edge">
<title>sh_t_progress_sales_info_history:project_number&#45;&gt;sh_t_progress_sales_info:project_number</title>
<path fill="none" stroke="#000000" d="M457.3226,-2173.9534C525.0386,-2122.0317 498.7505,-1516.6353 447.6269,-1460 395.0877,-1401.7966 149.166,-1482.2034 96.6269,-1424 67.8886,-1392.1634 53.738,-1327.5 96.6269,-1327.5"/>
<polygon fill="#000000" stroke="#000000" points="457.0183,-2174.0646 446.0809,-2173.2739 452.3226,-2175.7823 447.6269,-2177.5 447.6269,-2177.5 447.6269,-2177.5 452.3226,-2175.7823 449.1728,-2181.7261 457.0183,-2174.0646 457.0183,-2174.0646"/>
</g>
</g>
</svg>
