<?xml version="1.0" encoding="UTF-8" standalone="no"?>
<!DOCTYPE svg PUBLIC "-//W3C//DTD SVG 1.1//EN"
 "http://www.w3.org/Graphics/SVG/1.1/DTD/svg11.dtd">
<!-- Generated by graphviz version 2.40.1 (20161225.0304)
 -->
<!-- Title: sh_t_plans_production_costs_saved Pages: 1 -->
<svg width="529pt" height="1192pt"
 viewBox="0.00 0.00 529.23 1192.00" xmlns="http://www.w3.org/2000/svg" xmlns:xlink="http://www.w3.org/1999/xlink">
<g id="graph0" class="graph" transform="scale(1 1) rotate(0) translate(4 1188)">
<title>sh_t_plans_production_costs_saved</title>
<polygon fill="#ffffff" stroke="transparent" points="-4,4 -4,-1188 525.2274,-1188 525.2274,4 -4,4"/>
<!-- sh_t_plans_production_costs_saved -->
<g id="node1" class="node">
<title>sh_t_plans_production_costs_saved</title>
<polygon fill="#efefef" stroke="transparent" points="68.7274,-1102.5 68.7274,-1137.5 475.7274,-1137.5 475.7274,-1102.5 68.7274,-1102.5"/>
<polygon fill="none" stroke="#000000" points="68.7274,-1102.5 68.7274,-1137.5 475.7274,-1137.5 475.7274,-1102.5 68.7274,-1102.5"/>
<text text-anchor="start" x="75.7177" y="-1115.3" font-family="Arial Bold" font-size="18.00" fill="#000000">sh_t_plans_production_costs_saved</text>
<text text-anchor="start" x="366.8227" y="-1115.3" font-family="Arial" font-size="14.00" fill="#000000"> </text>
<text text-anchor="start" x="370.7133" y="-1115.3" font-family="Arial" font-size="14.00" fill="#666666">[BASIC TABLE]</text>
<polygon fill="none" stroke="#000000" points="68.7274,-1072.5 68.7274,-1102.5 475.7274,-1102.5 475.7274,-1072.5 68.7274,-1072.5"/>
<text text-anchor="start" x="75.7274" y="-1083.9" font-family="Arial" font-size="14.00" fill="#000000">project_number </text>
<text text-anchor="start" x="176.8578" y="-1083.9" font-family="Arial" font-size="14.00" fill="#666666">[nvarchar(255)]</text>
<polygon fill="none" stroke="#000000" points="68.7274,-1042.5 68.7274,-1072.5 475.7274,-1072.5 475.7274,-1042.5 68.7274,-1042.5"/>
<text text-anchor="start" x="75.7274" y="-1053.9" font-family="Arial" font-size="14.00" fill="#000000">order_number </text>
<text text-anchor="start" x="167.5212" y="-1053.9" font-family="Arial" font-size="14.00" fill="#666666">[nvarchar(255)]</text>
<polygon fill="none" stroke="#000000" points="68.7274,-1012.5 68.7274,-1042.5 475.7274,-1042.5 475.7274,-1012.5 68.7274,-1012.5"/>
<text text-anchor="start" x="75.7274" y="-1023.9" font-family="Arial" font-size="14.00" fill="#000000">detail_number </text>
<text text-anchor="start" x="168.3038" y="-1023.9" font-family="Arial" font-size="14.00" fill="#666666">[nvarchar(255)]</text>
<polygon fill="none" stroke="#000000" points="68.7274,-982.5 68.7274,-1012.5 475.7274,-1012.5 475.7274,-982.5 68.7274,-982.5"/>
<text text-anchor="start" x="75.7274" y="-993.9" font-family="Arial" font-size="14.00" fill="#000000">department_cd </text>
<text text-anchor="start" x="172.9812" y="-993.9" font-family="Arial" font-size="14.00" fill="#666666">[nvarchar(255)]</text>
<polygon fill="none" stroke="#000000" points="68.7274,-952.5 68.7274,-982.5 475.7274,-982.5 475.7274,-952.5 68.7274,-952.5"/>
<text text-anchor="start" x="75.7274" y="-963.9" font-family="Arial" font-size="14.00" fill="#000000">plans_produnction_costs </text>
<text text-anchor="start" x="234.4468" y="-963.9" font-family="Arial" font-size="14.00" fill="#666666">[decimal]</text>
<polygon fill="none" stroke="#000000" points="68.7274,-922.5 68.7274,-952.5 475.7274,-952.5 475.7274,-922.5 68.7274,-922.5"/>
<text text-anchor="start" x="75.7274" y="-933.9" font-family="Arial" font-size="14.00" fill="#000000">progress_cost_flag </text>
<text text-anchor="start" x="197.8704" y="-933.9" font-family="Arial" font-size="14.00" fill="#666666">[nvarchar(1)]</text>
<polygon fill="none" stroke="#000000" points="68.7274,-892.5 68.7274,-922.5 475.7274,-922.5 475.7274,-892.5 68.7274,-892.5"/>
<text text-anchor="start" x="75.7274" y="-903.9" font-family="Arial" font-size="14.00" fill="#000000">plans_outsourcing_cost </text>
<text text-anchor="start" x="226.6642" y="-903.9" font-family="Arial" font-size="14.00" fill="#666666">[int]</text>
<polygon fill="none" stroke="#000000" points="68.7274,-862.5 68.7274,-892.5 475.7274,-892.5 475.7274,-862.5 68.7274,-862.5"/>
<text text-anchor="start" x="75.7274" y="-873.9" font-family="Arial" font-size="14.00" fill="#000000">plans_outsourcing_cost_sales </text>
<text text-anchor="start" x="267.1186" y="-873.9" font-family="Arial" font-size="14.00" fill="#666666">[int]</text>
<polygon fill="none" stroke="#000000" points="68.7274,-832.5 68.7274,-862.5 475.7274,-862.5 475.7274,-832.5 68.7274,-832.5"/>
<text text-anchor="start" x="75.7274" y="-843.9" font-family="Arial" font-size="14.00" fill="#000000">comment </text>
<text text-anchor="start" x="137.1776" y="-843.9" font-family="Arial" font-size="14.00" fill="#666666">[nvarchar(1000)]</text>
<polygon fill="none" stroke="#000000" points="68.7274,-802.5 68.7274,-832.5 475.7274,-832.5 475.7274,-802.5 68.7274,-802.5"/>
<text text-anchor="start" x="75.7274" y="-813.9" font-family="Arial" font-size="14.00" fill="#000000">create_user_cd </text>
<text text-anchor="start" x="176.0906" y="-813.9" font-family="Arial" font-size="14.00" fill="#666666">[nvarchar(10)]</text>
<polygon fill="none" stroke="#000000" points="68.7274,-772.5 68.7274,-802.5 475.7274,-802.5 475.7274,-772.5 68.7274,-772.5"/>
<text text-anchor="start" x="75.7274" y="-783.9" font-family="Arial" font-size="14.00" fill="#000000">create_date </text>
<text text-anchor="start" x="153.538" y="-783.9" font-family="Arial" font-size="14.00" fill="#666666">[datetime2]</text>
<polygon fill="none" stroke="#000000" points="68.7274,-742.5 68.7274,-772.5 475.7274,-772.5 475.7274,-742.5 68.7274,-742.5"/>
<text text-anchor="start" x="75.7274" y="-753.9" font-family="Arial" font-size="14.00" fill="#000000">record_user_cd </text>
<text text-anchor="start" x="176.8606" y="-753.9" font-family="Arial" font-size="14.00" fill="#666666">[nvarchar(10)]</text>
<polygon fill="none" stroke="#000000" points="68.7274,-712.5 68.7274,-742.5 475.7274,-742.5 475.7274,-712.5 68.7274,-712.5"/>
<text text-anchor="start" x="75.7274" y="-723.9" font-family="Arial" font-size="14.00" fill="#000000">record_date </text>
<text text-anchor="start" x="154.308" y="-723.9" font-family="Arial" font-size="14.00" fill="#666666">[datetime2]</text>
<polygon fill="none" stroke="#000000" points="68.7274,-682.5 68.7274,-712.5 475.7274,-712.5 475.7274,-682.5 68.7274,-682.5"/>
<text text-anchor="start" x="75.7274" y="-693.9" font-family="Arial" font-size="14.00" fill="#000000">delete_flag </text>
<text text-anchor="start" x="148.0906" y="-693.9" font-family="Arial" font-size="14.00" fill="#666666">[nvarchar(1)]</text>
<polygon fill="none" stroke="#000000" stroke-width="3" points="66.7274,-681.5 66.7274,-1139.5 476.7274,-1139.5 476.7274,-681.5 66.7274,-681.5"/>
</g>
<!-- sh_t_order_details -->
<g id="node2" class="node">
<title>sh_t_order_details</title>
<polygon fill="#efefef" stroke="transparent" points="140.7274,-522.5 140.7274,-557.5 403.7274,-557.5 403.7274,-522.5 140.7274,-522.5"/>
<polygon fill="none" stroke="#000000" points="140.7274,-522.5 140.7274,-557.5 403.7274,-557.5 403.7274,-522.5 140.7274,-522.5"/>
<text text-anchor="start" x="147.2506" y="-535.3" font-family="Arial Bold" font-size="18.00" fill="#000000">sh_t_order_details</text>
<text text-anchor="start" x="295.2898" y="-535.3" font-family="Arial" font-size="14.00" fill="#000000"> </text>
<text text-anchor="start" x="299.1804" y="-535.3" font-family="Arial" font-size="14.00" fill="#666666">[BASIC TABLE]</text>
<polygon fill="none" stroke="#000000" points="140.7274,-492.5 140.7274,-522.5 403.7274,-522.5 403.7274,-492.5 140.7274,-492.5"/>
<text text-anchor="start" x="147.7274" y="-503.9" font-family="Arial" font-size="14.00" fill="#000000">project_number </text>
<text text-anchor="start" x="248.8578" y="-503.9" font-family="Arial" font-size="14.00" fill="#666666">[nvarchar(255)]</text>
<polygon fill="none" stroke="#000000" points="140.7274,-462.5 140.7274,-492.5 403.7274,-492.5 403.7274,-462.5 140.7274,-462.5"/>
<text text-anchor="start" x="147.7274" y="-473.9" font-family="Arial" font-size="14.00" fill="#000000">order_number </text>
<text text-anchor="start" x="239.5212" y="-473.9" font-family="Arial" font-size="14.00" fill="#666666">[nvarchar(255)]</text>
<polygon fill="none" stroke="#000000" points="140.7274,-432.5 140.7274,-462.5 403.7274,-462.5 403.7274,-432.5 140.7274,-432.5"/>
<text text-anchor="start" x="147.7274" y="-443.9" font-family="Arial" font-size="14.00" fill="#000000">detail_number </text>
<text text-anchor="start" x="240.3038" y="-443.9" font-family="Arial" font-size="14.00" fill="#666666">[nvarchar(255)]</text>
<polygon fill="none" stroke="#000000" points="140.7274,-402.5 140.7274,-432.5 403.7274,-432.5 403.7274,-402.5 140.7274,-402.5"/>
<text text-anchor="start" x="147.7274" y="-413.9" font-family="Arial" font-size="14.00" fill="#000000">department_cd </text>
<text text-anchor="start" x="244.9812" y="-413.9" font-family="Arial" font-size="14.00" fill="#666666">[nvarchar(255)]</text>
<polygon fill="none" stroke="#000000" points="140.7274,-372.5 140.7274,-402.5 403.7274,-402.5 403.7274,-372.5 140.7274,-372.5"/>
<text text-anchor="start" x="147.7274" y="-383.9" font-family="Arial" font-size="14.00" fill="#000000">main_department_cd </text>
<text text-anchor="start" x="283.0962" y="-383.9" font-family="Arial" font-size="14.00" fill="#666666">[nvarchar(100)]</text>
<polygon fill="none" stroke="#000000" points="140.7274,-342.5 140.7274,-372.5 403.7274,-372.5 403.7274,-342.5 140.7274,-342.5"/>
<text text-anchor="start" x="147.7274" y="-353.9" font-family="Arial" font-size="14.00" fill="#000000">details </text>
<text text-anchor="start" x="192.0696" y="-353.9" font-family="Arial" font-size="14.00" fill="#666666">[nvarchar(1000)]</text>
<polygon fill="none" stroke="#000000" points="140.7274,-312.5 140.7274,-342.5 403.7274,-342.5 403.7274,-312.5 140.7274,-312.5"/>
<text text-anchor="start" x="147.7274" y="-323.9" font-family="Arial" font-size="14.00" fill="#000000">order_amount </text>
<text text-anchor="start" x="238.7512" y="-323.9" font-family="Arial" font-size="14.00" fill="#666666">[decimal]</text>
<polygon fill="none" stroke="#000000" points="140.7274,-282.5 140.7274,-312.5 403.7274,-312.5 403.7274,-282.5 140.7274,-282.5"/>
<text text-anchor="start" x="147.7274" y="-293.9" font-family="Arial" font-size="14.00" fill="#000000">sales_confirmed_amount </text>
<text text-anchor="start" x="307.9854" y="-293.9" font-family="Arial" font-size="14.00" fill="#666666">[numeric]</text>
<polygon fill="none" stroke="#000000" points="140.7274,-252.5 140.7274,-282.5 403.7274,-282.5 403.7274,-252.5 140.7274,-252.5"/>
<text text-anchor="start" x="147.7274" y="-263.9" font-family="Arial" font-size="14.00" fill="#000000">progress_cost_flag </text>
<text text-anchor="start" x="269.8704" y="-263.9" font-family="Arial" font-size="14.00" fill="#666666">[nvarchar(1)]</text>
<polygon fill="none" stroke="#000000" points="140.7274,-222.5 140.7274,-252.5 403.7274,-252.5 403.7274,-222.5 140.7274,-222.5"/>
<text text-anchor="start" x="147.7274" y="-233.9" font-family="Arial" font-size="14.00" fill="#000000">progress_sales_status_cd </text>
<text text-anchor="start" x="314.2182" y="-233.9" font-family="Arial" font-size="14.00" fill="#666666">[nvarchar(2)]</text>
<polygon fill="none" stroke="#000000" points="140.7274,-192.5 140.7274,-222.5 403.7274,-222.5 403.7274,-192.5 140.7274,-192.5"/>
<text text-anchor="start" x="147.7274" y="-203.9" font-family="Arial" font-size="14.00" fill="#000000">progress_plans_status_cd </text>
<text text-anchor="start" x="315.0008" y="-203.9" font-family="Arial" font-size="14.00" fill="#666666">[nvarchar(2)]</text>
<polygon fill="none" stroke="#000000" points="140.7274,-162.5 140.7274,-192.5 403.7274,-192.5 403.7274,-162.5 140.7274,-162.5"/>
<text text-anchor="start" x="147.7274" y="-173.9" font-family="Arial" font-size="14.00" fill="#000000">create_user_cd </text>
<text text-anchor="start" x="248.0906" y="-173.9" font-family="Arial" font-size="14.00" fill="#666666">[nvarchar(10)]</text>
<polygon fill="none" stroke="#000000" points="140.7274,-132.5 140.7274,-162.5 403.7274,-162.5 403.7274,-132.5 140.7274,-132.5"/>
<text text-anchor="start" x="147.7274" y="-143.9" font-family="Arial" font-size="14.00" fill="#000000">create_date </text>
<text text-anchor="start" x="225.538" y="-143.9" font-family="Arial" font-size="14.00" fill="#666666">[datetime2]</text>
<polygon fill="none" stroke="#000000" points="140.7274,-102.5 140.7274,-132.5 403.7274,-132.5 403.7274,-102.5 140.7274,-102.5"/>
<text text-anchor="start" x="147.7274" y="-113.9" font-family="Arial" font-size="14.00" fill="#000000">record_user_cd </text>
<text text-anchor="start" x="248.8606" y="-113.9" font-family="Arial" font-size="14.00" fill="#666666">[nvarchar(10)]</text>
<polygon fill="none" stroke="#000000" points="140.7274,-72.5 140.7274,-102.5 403.7274,-102.5 403.7274,-72.5 140.7274,-72.5"/>
<text text-anchor="start" x="147.7274" y="-83.9" font-family="Arial" font-size="14.00" fill="#000000">record_date </text>
<text text-anchor="start" x="226.308" y="-83.9" font-family="Arial" font-size="14.00" fill="#666666">[datetime2]</text>
<polygon fill="none" stroke="#000000" points="140.7274,-42.5 140.7274,-72.5 403.7274,-72.5 403.7274,-42.5 140.7274,-42.5"/>
<text text-anchor="start" x="147.7274" y="-53.9" font-family="Arial" font-size="14.00" fill="#000000">delete_flag </text>
<text text-anchor="start" x="220.0906" y="-53.9" font-family="Arial" font-size="14.00" fill="#666666">[nvarchar(1)]</text>
</g>
<!-- sh_t_plans_production_costs_saved&#45;&gt;sh_t_order_details -->
<g id="edge1" class="edge">
<title>sh_t_plans_production_costs_saved:project_number&#45;&gt;sh_t_order_details:project_number</title>
<path fill="none" stroke="#000000" d="M58.5232,-1086.2228C-57.17,-1056.2149 14.4006,-507.5 140.7274,-507.5"/>
<polygon fill="#000000" stroke="#000000" points="58.8048,-1086.2579 68.1685,-1091.9652 63.7661,-1086.879 68.7274,-1087.5 68.7274,-1087.5 68.7274,-1087.5 63.7661,-1086.879 69.2863,-1083.0348 58.8048,-1086.2579 58.8048,-1086.2579"/>
</g>
</g>
</svg>
