<?xml version="1.0" encoding="UTF-8" standalone="no"?>
<!DOCTYPE svg PUBLIC "-//W3C//DTD SVG 1.1//EN"
 "http://www.w3.org/Graphics/SVG/1.1/DTD/svg11.dtd">
<!-- Generated by graphviz version 2.40.1 (20161225.0304)
 -->
<!-- Title: sh_t_general_purpose Pages: 1 -->
<svg width="394pt" height="435pt"
 viewBox="0.00 0.00 394.00 435.00" xmlns="http://www.w3.org/2000/svg" xmlns:xlink="http://www.w3.org/1999/xlink">
<g id="graph0" class="graph" transform="scale(1 1) rotate(0) translate(4 431)">
<title>sh_t_general_purpose</title>
<polygon fill="#ffffff" stroke="transparent" points="-4,4 -4,-431 390,-431 390,4 -4,4"/>
<!-- sh_t_general_purpose -->
<g id="node1" class="node">
<title>sh_t_general_purpose</title>
<polygon fill="#efefef" stroke="transparent" points="46,-345.5 46,-380.5 340,-380.5 340,-345.5 46,-345.5"/>
<polygon fill="none" stroke="#000000" points="46,-345.5 46,-380.5 340,-380.5 340,-345.5 46,-345.5"/>
<text text-anchor="start" x="52.509" y="-358.3" font-family="Arial Bold" font-size="18.00" fill="#000000">sh_t_general_purpose</text>
<text text-anchor="start" x="231.5766" y="-358.3" font-family="Arial" font-size="14.00" fill="#000000"> </text>
<text text-anchor="start" x="235.4672" y="-358.3" font-family="Arial" font-size="14.00" fill="#666666">[BASIC TABLE]</text>
<polygon fill="none" stroke="#000000" points="46,-315.5 46,-345.5 340,-345.5 340,-315.5 46,-315.5"/>
<text text-anchor="start" x="53" y="-326.9" font-family="Arial" font-size="14.00" fill="#000000">page_number </text>
<text text-anchor="start" x="143.2552" y="-326.9" font-family="Arial" font-size="14.00" fill="#666666">[nvarchar(255)]</text>
<polygon fill="none" stroke="#000000" points="46,-285.5 46,-315.5 340,-315.5 340,-285.5 46,-285.5"/>
<text text-anchor="start" x="53" y="-296.9" font-family="Arial" font-size="14.00" fill="#000000">purpose_cd </text>
<text text-anchor="start" x="130.0294" y="-296.9" font-family="Arial" font-size="14.00" fill="#666666">[nvarchar(4)]</text>
<polygon fill="none" stroke="#000000" points="46,-255.5 46,-285.5 340,-285.5 340,-255.5 46,-255.5"/>
<text text-anchor="start" x="53" y="-266.9" font-family="Arial" font-size="14.00" fill="#000000">item_number </text>
<text text-anchor="start" x="138.5652" y="-266.9" font-family="Arial" font-size="14.00" fill="#666666">[nvarchar(4)]</text>
<polygon fill="none" stroke="#000000" points="46,-225.5 46,-255.5 340,-255.5 340,-225.5 46,-225.5"/>
<text text-anchor="start" x="53" y="-236.9" font-family="Arial" font-size="14.00" fill="#000000">item_name </text>
<text text-anchor="start" x="126.122" y="-236.9" font-family="Arial" font-size="14.00" fill="#666666">[nvarchar(1000)]</text>
<polygon fill="none" stroke="#000000" points="46,-195.5 46,-225.5 340,-225.5 340,-195.5 46,-195.5"/>
<text text-anchor="start" x="53" y="-206.9" font-family="Arial" font-size="14.00" fill="#000000">item_description </text>
<text text-anchor="start" x="158.791" y="-206.9" font-family="Arial" font-size="14.00" fill="#666666">[nvarchar(1000)]</text>
<polygon fill="none" stroke="#000000" points="46,-165.5 46,-195.5 340,-195.5 340,-165.5 46,-165.5"/>
<text text-anchor="start" x="53" y="-176.9" font-family="Arial" font-size="14.00" fill="#000000">create_user_cd </text>
<text text-anchor="start" x="153.3632" y="-176.9" font-family="Arial" font-size="14.00" fill="#666666">[nvarchar(10)]</text>
<polygon fill="none" stroke="#000000" points="46,-135.5 46,-165.5 340,-165.5 340,-135.5 46,-135.5"/>
<text text-anchor="start" x="53" y="-146.9" font-family="Arial" font-size="14.00" fill="#000000">create_date </text>
<text text-anchor="start" x="130.8106" y="-146.9" font-family="Arial" font-size="14.00" fill="#666666">[datetime2]</text>
<polygon fill="none" stroke="#000000" points="46,-105.5 46,-135.5 340,-135.5 340,-105.5 46,-105.5"/>
<text text-anchor="start" x="53" y="-116.9" font-family="Arial" font-size="14.00" fill="#000000">record_user_cd </text>
<text text-anchor="start" x="154.1332" y="-116.9" font-family="Arial" font-size="14.00" fill="#666666">[nvarchar(10)]</text>
<polygon fill="none" stroke="#000000" points="46,-75.5 46,-105.5 340,-105.5 340,-75.5 46,-75.5"/>
<text text-anchor="start" x="53" y="-86.9" font-family="Arial" font-size="14.00" fill="#000000">record_date </text>
<text text-anchor="start" x="131.5806" y="-86.9" font-family="Arial" font-size="14.00" fill="#666666">[datetime2]</text>
<polygon fill="none" stroke="#000000" points="46,-45.5 46,-75.5 340,-75.5 340,-45.5 46,-45.5"/>
<text text-anchor="start" x="53" y="-56.9" font-family="Arial" font-size="14.00" fill="#000000">delete_flag </text>
<text text-anchor="start" x="125.3632" y="-56.9" font-family="Arial" font-size="14.00" fill="#666666">[nvarchar(1)]</text>
<polygon fill="none" stroke="#000000" stroke-width="3" points="44.5,-44.5 44.5,-382.5 341.5,-382.5 341.5,-44.5 44.5,-44.5"/>
</g>
</g>
</svg>
