<?xml version="1.0" encoding="UTF-8" standalone="no"?>
<!DOCTYPE svg PUBLIC "-//W3C//DTD SVG 1.1//EN"
 "http://www.w3.org/Graphics/SVG/1.1/DTD/svg11.dtd">
<!-- Generated by graphviz version 2.40.1 (20161225.0304)
 -->
<!-- Title: sh_t_order_list Pages: 1 -->
<svg width="394pt" height="982pt"
 viewBox="0.00 0.00 393.52 982.00" xmlns="http://www.w3.org/2000/svg" xmlns:xlink="http://www.w3.org/1999/xlink">
<g id="graph0" class="graph" transform="scale(1 1) rotate(0) translate(4 978)">
<title>sh_t_order_list</title>
<polygon fill="#ffffff" stroke="transparent" points="-4,4 -4,-978 389.5199,-978 389.5199,4 -4,4"/>
<!-- sh_t_order_list -->
<g id="node1" class="node">
<title>sh_t_order_list</title>
<polygon fill="#efefef" stroke="transparent" points="57,-435.5 57,-470.5 301,-470.5 301,-435.5 57,-435.5"/>
<polygon fill="none" stroke="#000000" points="57,-435.5 57,-470.5 301,-470.5 301,-435.5 57,-435.5"/>
<text text-anchor="start" x="69.0325" y="-448.3" font-family="Arial Bold" font-size="18.00" fill="#000000">sh_t_order_list</text>
<text text-anchor="start" x="187.0531" y="-448.3" font-family="Arial" font-size="14.00" fill="#000000"> </text>
<text text-anchor="start" x="190.9437" y="-448.3" font-family="Arial" font-size="14.00" fill="#666666">[BASIC TABLE]</text>
<polygon fill="none" stroke="#000000" points="57,-405.5 57,-435.5 301,-435.5 301,-405.5 57,-405.5"/>
<text text-anchor="start" x="64" y="-416.9" font-family="Arial" font-size="14.00" fill="#000000">project_number </text>
<text text-anchor="start" x="165.1304" y="-416.9" font-family="Arial" font-size="14.00" fill="#666666">[nvarchar(255)]</text>
<polygon fill="none" stroke="#000000" points="57,-375.5 57,-405.5 301,-405.5 301,-375.5 57,-375.5"/>
<text text-anchor="start" x="64" y="-386.9" font-family="Arial" font-size="14.00" fill="#000000">order_number </text>
<text text-anchor="start" x="155.7938" y="-386.9" font-family="Arial" font-size="14.00" fill="#666666">[nvarchar(255)]</text>
<polygon fill="none" stroke="#000000" points="57,-345.5 57,-375.5 301,-375.5 301,-345.5 57,-345.5"/>
<text text-anchor="start" x="63.8647" y="-356.9" font-family="Arial" font-size="14.00" fill="#000000">main_department_cd </text>
<text text-anchor="start" x="199.2335" y="-356.9" font-family="Arial" font-size="14.00" fill="#666666">[nvarchar(100)]</text>
<polygon fill="none" stroke="#000000" points="57,-315.5 57,-345.5 301,-345.5 301,-315.5 57,-315.5"/>
<text text-anchor="start" x="64" y="-326.9" font-family="Arial" font-size="14.00" fill="#000000">project_name </text>
<text text-anchor="start" x="152.6872" y="-326.9" font-family="Arial" font-size="14.00" fill="#666666">[nvarchar(1000)]</text>
<polygon fill="none" stroke="#000000" points="57,-285.5 57,-315.5 301,-315.5 301,-285.5 57,-285.5"/>
<text text-anchor="start" x="64" y="-296.9" font-family="Arial" font-size="14.00" fill="#000000">order_name </text>
<text text-anchor="start" x="143.3506" y="-296.9" font-family="Arial" font-size="14.00" fill="#666666">[nvarchar(1000)]</text>
<polygon fill="none" stroke="#000000" points="57,-255.5 57,-285.5 301,-285.5 301,-255.5 57,-255.5"/>
<text text-anchor="start" x="64" y="-266.9" font-family="Arial" font-size="14.00" fill="#000000">order_status_cd </text>
<text text-anchor="start" x="168.2538" y="-266.9" font-family="Arial" font-size="14.00" fill="#666666">[nvarchar(10)]</text>
<polygon fill="none" stroke="#000000" points="57,-225.5 57,-255.5 301,-255.5 301,-225.5 57,-225.5"/>
<text text-anchor="start" x="64" y="-236.9" font-family="Arial" font-size="14.00" fill="#000000">order_status_name </text>
<text text-anchor="start" x="188.4796" y="-236.9" font-family="Arial" font-size="14.00" fill="#666666">[nvarchar(10)]</text>
<polygon fill="none" stroke="#000000" points="57,-195.5 57,-225.5 301,-225.5 301,-195.5 57,-195.5"/>
<text text-anchor="start" x="64" y="-206.9" font-family="Arial" font-size="14.00" fill="#000000">contract_cd </text>
<text text-anchor="start" x="140.2454" y="-206.9" font-family="Arial" font-size="14.00" fill="#666666">[nvarchar(10)]</text>
<polygon fill="none" stroke="#000000" points="57,-165.5 57,-195.5 301,-195.5 301,-165.5 57,-165.5"/>
<text text-anchor="start" x="64" y="-176.9" font-family="Arial" font-size="14.00" fill="#000000">create_user_cd </text>
<text text-anchor="start" x="164.3632" y="-176.9" font-family="Arial" font-size="14.00" fill="#666666">[nvarchar(10)]</text>
<polygon fill="none" stroke="#000000" points="57,-135.5 57,-165.5 301,-165.5 301,-135.5 57,-135.5"/>
<text text-anchor="start" x="64" y="-146.9" font-family="Arial" font-size="14.00" fill="#000000">create_date </text>
<text text-anchor="start" x="141.8106" y="-146.9" font-family="Arial" font-size="14.00" fill="#666666">[datetime2]</text>
<polygon fill="none" stroke="#000000" points="57,-105.5 57,-135.5 301,-135.5 301,-105.5 57,-105.5"/>
<text text-anchor="start" x="64" y="-116.9" font-family="Arial" font-size="14.00" fill="#000000">record_user_cd </text>
<text text-anchor="start" x="165.1332" y="-116.9" font-family="Arial" font-size="14.00" fill="#666666">[nvarchar(10)]</text>
<polygon fill="none" stroke="#000000" points="57,-75.5 57,-105.5 301,-105.5 301,-75.5 57,-75.5"/>
<text text-anchor="start" x="64" y="-86.9" font-family="Arial" font-size="14.00" fill="#000000">record_date </text>
<text text-anchor="start" x="142.5806" y="-86.9" font-family="Arial" font-size="14.00" fill="#666666">[datetime2]</text>
<polygon fill="none" stroke="#000000" points="57,-45.5 57,-75.5 301,-75.5 301,-45.5 57,-45.5"/>
<text text-anchor="start" x="64" y="-56.9" font-family="Arial" font-size="14.00" fill="#000000">delete_flag </text>
<text text-anchor="start" x="136.3632" y="-56.9" font-family="Arial" font-size="14.00" fill="#666666">[nvarchar(1)]</text>
<polygon fill="none" stroke="#000000" stroke-width="3" points="55.5,-44.5 55.5,-472.5 302.5,-472.5 302.5,-44.5 55.5,-44.5"/>
</g>
<!-- sh_t_order_details -->
<g id="node2" class="node">
<title>sh_t_order_details</title>
<polygon fill="#efefef" stroke="transparent" points="43,-895.5 43,-930.5 315,-930.5 315,-895.5 43,-895.5"/>
<polygon fill="none" stroke="#000000" points="43,-895.5 43,-930.5 315,-930.5 315,-895.5 43,-895.5"/>
<text text-anchor="start" x="54.0232" y="-908.3" font-family="Arial Bold" font-size="18.00" fill="#000000">sh_t_order_details</text>
<text text-anchor="start" x="202.0624" y="-908.3" font-family="Arial" font-size="14.00" fill="#000000"> </text>
<text text-anchor="start" x="205.953" y="-908.3" font-family="Arial" font-size="14.00" fill="#666666">[BASIC TABLE]</text>
<polygon fill="none" stroke="#000000" points="43,-865.5 43,-895.5 315,-895.5 315,-865.5 43,-865.5"/>
<text text-anchor="start" x="50" y="-876.9" font-family="Arial" font-size="14.00" fill="#000000">project_number </text>
<text text-anchor="start" x="151.1304" y="-876.9" font-family="Arial" font-size="14.00" fill="#666666">[nvarchar(255)]</text>
<polygon fill="none" stroke="#000000" points="43,-835.5 43,-865.5 315,-865.5 315,-835.5 43,-835.5"/>
<text text-anchor="start" x="50" y="-846.9" font-family="Arial" font-size="14.00" fill="#000000">order_number </text>
<text text-anchor="start" x="141.7938" y="-846.9" font-family="Arial" font-size="14.00" fill="#666666">[nvarchar(255)]</text>
<polygon fill="none" stroke="#000000" points="43,-805.5 43,-835.5 315,-835.5 315,-805.5 43,-805.5"/>
<text text-anchor="start" x="50" y="-816.9" font-family="Arial" font-size="14.00" fill="#000000">detail_number </text>
<text text-anchor="start" x="142.5764" y="-816.9" font-family="Arial" font-size="14.00" fill="#666666">[nvarchar(255)]</text>
<polygon fill="none" stroke="#000000" points="43,-775.5 43,-805.5 315,-805.5 315,-775.5 43,-775.5"/>
<text text-anchor="start" x="50" y="-786.9" font-family="Arial" font-size="14.00" fill="#000000">details </text>
<text text-anchor="start" x="94.3422" y="-786.9" font-family="Arial" font-size="14.00" fill="#666666">[nvarchar(1000)]</text>
<polygon fill="none" stroke="#000000" points="43,-745.5 43,-775.5 315,-775.5 315,-745.5 43,-745.5"/>
<text text-anchor="start" x="49.8493" y="-756.9" font-family="Arial" font-size="14.00" fill="#000000">order_amount_before_apportionment </text>
<text text-anchor="start" x="285.5897" y="-756.9" font-family="Arial" font-size="14.00" fill="#666666">[int]</text>
<polygon fill="none" stroke="#000000" points="43,-715.5 43,-745.5 315,-745.5 315,-715.5 43,-715.5"/>
<text text-anchor="start" x="50" y="-726.9" font-family="Arial" font-size="14.00" fill="#000000">create_user_cd </text>
<text text-anchor="start" x="150.3632" y="-726.9" font-family="Arial" font-size="14.00" fill="#666666">[nvarchar(10)]</text>
<polygon fill="none" stroke="#000000" points="43,-685.5 43,-715.5 315,-715.5 315,-685.5 43,-685.5"/>
<text text-anchor="start" x="50" y="-696.9" font-family="Arial" font-size="14.00" fill="#000000">create_date </text>
<text text-anchor="start" x="127.8106" y="-696.9" font-family="Arial" font-size="14.00" fill="#666666">[datetime2]</text>
<polygon fill="none" stroke="#000000" points="43,-655.5 43,-685.5 315,-685.5 315,-655.5 43,-655.5"/>
<text text-anchor="start" x="50" y="-666.9" font-family="Arial" font-size="14.00" fill="#000000">record_user_cd </text>
<text text-anchor="start" x="151.1332" y="-666.9" font-family="Arial" font-size="14.00" fill="#666666">[nvarchar(10)]</text>
<polygon fill="none" stroke="#000000" points="43,-625.5 43,-655.5 315,-655.5 315,-625.5 43,-625.5"/>
<text text-anchor="start" x="50" y="-636.9" font-family="Arial" font-size="14.00" fill="#000000">record_date </text>
<text text-anchor="start" x="128.5806" y="-636.9" font-family="Arial" font-size="14.00" fill="#666666">[datetime2]</text>
<polygon fill="none" stroke="#000000" points="43,-595.5 43,-625.5 315,-625.5 315,-595.5 43,-595.5"/>
<text text-anchor="start" x="50" y="-606.9" font-family="Arial" font-size="14.00" fill="#000000">delete_flag </text>
<text text-anchor="start" x="122.3632" y="-606.9" font-family="Arial" font-size="14.00" fill="#666666">[nvarchar(1)]</text>
</g>
<!-- sh_t_order_details&#45;&gt;sh_t_order_list -->
<g id="edge1" class="edge">
<title>sh_t_order_details:project_number&#45;&gt;sh_t_order_list:project_number</title>
<path fill="none" stroke="#000000" d="M325.0802,-878.9245C416.2094,-849.5921 399.774,-420.5 301,-420.5"/>
<polygon fill="#000000" stroke="#000000" points="324.8801,-878.9558 314.3051,-876.054 319.94,-879.7279 315,-880.5 315,-880.5 315,-880.5 319.94,-879.7279 315.6949,-884.946 324.8801,-878.9558 324.8801,-878.9558"/>
</g>
</g>
</svg>
