<?xml version="1.0" encoding="UTF-8" standalone="no"?>
<!DOCTYPE svg PUBLIC "-//W3C//DTD SVG 1.1//EN"
 "http://www.w3.org/Graphics/SVG/1.1/DTD/svg11.dtd">
<!-- Generated by graphviz version 2.40.1 (20161225.0304)
 -->
<!-- Title: sh_t_salses_saved Pages: 1 -->
<svg width="458pt" height="1132pt"
 viewBox="0.00 0.00 458.00 1132.00" xmlns="http://www.w3.org/2000/svg" xmlns:xlink="http://www.w3.org/1999/xlink">
<g id="graph0" class="graph" transform="scale(1 1) rotate(0) translate(4 1128)">
<title>sh_t_salses_saved</title>
<polygon fill="#ffffff" stroke="transparent" points="-4,4 -4,-1128 454,-1128 454,4 -4,4"/>
<!-- sh_t_salses_saved -->
<g id="node1" class="node">
<title>sh_t_salses_saved</title>
<polygon fill="#efefef" stroke="transparent" points="88,-1042.5 88,-1077.5 362,-1077.5 362,-1042.5 88,-1042.5"/>
<polygon fill="none" stroke="#000000" points="88,-1042.5 88,-1077.5 362,-1077.5 362,-1042.5 88,-1042.5"/>
<text text-anchor="start" x="97.5167" y="-1055.3" font-family="Arial Bold" font-size="18.00" fill="#000000">sh_t_salses_saved</text>
<text text-anchor="start" x="250.5689" y="-1055.3" font-family="Arial" font-size="14.00" fill="#000000"> </text>
<text text-anchor="start" x="254.4595" y="-1055.3" font-family="Arial" font-size="14.00" fill="#666666">[BASIC TABLE]</text>
<polygon fill="none" stroke="#000000" points="88,-1012.5 88,-1042.5 362,-1042.5 362,-1012.5 88,-1012.5"/>
<text text-anchor="start" x="95" y="-1023.9" font-family="Arial" font-size="14.00" fill="#000000">project_number </text>
<text text-anchor="start" x="196.1304" y="-1023.9" font-family="Arial" font-size="14.00" fill="#666666">[nvarchar(255)]</text>
<polygon fill="none" stroke="#000000" points="88,-982.5 88,-1012.5 362,-1012.5 362,-982.5 88,-982.5"/>
<text text-anchor="start" x="95" y="-993.9" font-family="Arial" font-size="14.00" fill="#000000">order_number </text>
<text text-anchor="start" x="186.7938" y="-993.9" font-family="Arial" font-size="14.00" fill="#666666">[nvarchar(255)]</text>
<polygon fill="none" stroke="#000000" points="88,-952.5 88,-982.5 362,-982.5 362,-952.5 88,-952.5"/>
<text text-anchor="start" x="95" y="-963.9" font-family="Arial" font-size="14.00" fill="#000000">detail_number </text>
<text text-anchor="start" x="187.5764" y="-963.9" font-family="Arial" font-size="14.00" fill="#666666">[nvarchar(255)]</text>
<polygon fill="none" stroke="#000000" points="88,-922.5 88,-952.5 362,-952.5 362,-922.5 88,-922.5"/>
<text text-anchor="start" x="95" y="-933.9" font-family="Arial" font-size="14.00" fill="#000000">department_cd </text>
<text text-anchor="start" x="192.2538" y="-933.9" font-family="Arial" font-size="14.00" fill="#666666">[nvarchar(100)]</text>
<polygon fill="none" stroke="#000000" points="88,-892.5 88,-922.5 362,-922.5 362,-892.5 88,-892.5"/>
<text text-anchor="start" x="94.6838" y="-903.9" font-family="Arial" font-size="14.00" fill="#000000">sales_adjusted_change_flag </text>
<text text-anchor="start" x="275.9796" y="-903.9" font-family="Arial" font-size="14.00" fill="#666666">[nvarchar(1)]</text>
<polygon fill="none" stroke="#000000" points="88,-862.5 88,-892.5 362,-892.5 362,-862.5 88,-862.5"/>
<text text-anchor="start" x="95" y="-873.9" font-family="Arial" font-size="14.00" fill="#000000">sales_adjusted_value </text>
<text text-anchor="start" x="233.4922" y="-873.9" font-family="Arial" font-size="14.00" fill="#666666">[int]</text>
<polygon fill="none" stroke="#000000" points="88,-832.5 88,-862.5 362,-862.5 362,-832.5 88,-832.5"/>
<text text-anchor="start" x="95" y="-843.9" font-family="Arial" font-size="14.00" fill="#000000">end_flag </text>
<text text-anchor="start" x="152.5834" y="-843.9" font-family="Arial" font-size="14.00" fill="#666666">[nvarchar(1)]</text>
<polygon fill="none" stroke="#000000" points="88,-802.5 88,-832.5 362,-832.5 362,-802.5 88,-802.5"/>
<text text-anchor="start" x="95" y="-813.9" font-family="Arial" font-size="14.00" fill="#000000">comment </text>
<text text-anchor="start" x="156.4502" y="-813.9" font-family="Arial" font-size="14.00" fill="#666666">[nvarchar(2000)]</text>
<polygon fill="none" stroke="#000000" points="88,-772.5 88,-802.5 362,-802.5 362,-772.5 88,-772.5"/>
<text text-anchor="start" x="95" y="-783.9" font-family="Arial" font-size="14.00" fill="#000000">create_user_cd </text>
<text text-anchor="start" x="195.3632" y="-783.9" font-family="Arial" font-size="14.00" fill="#666666">[nvarchar(10)]</text>
<polygon fill="none" stroke="#000000" points="88,-742.5 88,-772.5 362,-772.5 362,-742.5 88,-742.5"/>
<text text-anchor="start" x="95" y="-753.9" font-family="Arial" font-size="14.00" fill="#000000">create_date </text>
<text text-anchor="start" x="172.8106" y="-753.9" font-family="Arial" font-size="14.00" fill="#666666">[datetime2]</text>
<polygon fill="none" stroke="#000000" points="88,-712.5 88,-742.5 362,-742.5 362,-712.5 88,-712.5"/>
<text text-anchor="start" x="95" y="-723.9" font-family="Arial" font-size="14.00" fill="#000000">record_user_cd </text>
<text text-anchor="start" x="196.1332" y="-723.9" font-family="Arial" font-size="14.00" fill="#666666">[nvarchar(10)]</text>
<polygon fill="none" stroke="#000000" points="88,-682.5 88,-712.5 362,-712.5 362,-682.5 88,-682.5"/>
<text text-anchor="start" x="95" y="-693.9" font-family="Arial" font-size="14.00" fill="#000000">record_date </text>
<text text-anchor="start" x="173.5806" y="-693.9" font-family="Arial" font-size="14.00" fill="#666666">[datetime2]</text>
<polygon fill="none" stroke="#000000" points="88,-652.5 88,-682.5 362,-682.5 362,-652.5 88,-652.5"/>
<text text-anchor="start" x="95" y="-663.9" font-family="Arial" font-size="14.00" fill="#000000">delete_flag </text>
<text text-anchor="start" x="167.3632" y="-663.9" font-family="Arial" font-size="14.00" fill="#666666">[nvarchar(1)]</text>
<polygon fill="none" stroke="#000000" stroke-width="3" points="86.5,-651.5 86.5,-1079.5 363.5,-1079.5 363.5,-651.5 86.5,-651.5"/>
</g>
<!-- sh_t_order_department_details -->
<g id="node2" class="node">
<title>sh_t_order_department_details</title>
<polygon fill="#efefef" stroke="transparent" points="43,-492.5 43,-527.5 407,-527.5 407,-492.5 43,-492.5"/>
<polygon fill="none" stroke="#000000" points="43,-492.5 43,-527.5 407,-527.5 407,-492.5 43,-492.5"/>
<text text-anchor="start" x="49.5071" y="-505.3" font-family="Arial Bold" font-size="18.00" fill="#000000">sh_t_order_department_details</text>
<text text-anchor="start" x="298.5785" y="-505.3" font-family="Arial" font-size="14.00" fill="#000000"> </text>
<text text-anchor="start" x="302.4691" y="-505.3" font-family="Arial" font-size="14.00" fill="#666666">[BASIC TABLE]</text>
<polygon fill="none" stroke="#000000" points="43,-462.5 43,-492.5 407,-492.5 407,-462.5 43,-462.5"/>
<text text-anchor="start" x="50" y="-473.9" font-family="Arial" font-size="14.00" fill="#000000">project_number </text>
<text text-anchor="start" x="151.1304" y="-473.9" font-family="Arial" font-size="14.00" fill="#666666">[nvarchar(255)]</text>
<polygon fill="none" stroke="#000000" points="43,-432.5 43,-462.5 407,-462.5 407,-432.5 43,-432.5"/>
<text text-anchor="start" x="50" y="-443.9" font-family="Arial" font-size="14.00" fill="#000000">order_number </text>
<text text-anchor="start" x="141.7938" y="-443.9" font-family="Arial" font-size="14.00" fill="#666666">[nvarchar(255)]</text>
<polygon fill="none" stroke="#000000" points="43,-402.5 43,-432.5 407,-432.5 407,-402.5 43,-402.5"/>
<text text-anchor="start" x="50" y="-413.9" font-family="Arial" font-size="14.00" fill="#000000">detail_number </text>
<text text-anchor="start" x="142.5764" y="-413.9" font-family="Arial" font-size="14.00" fill="#666666">[nvarchar(255)]</text>
<polygon fill="none" stroke="#000000" points="43,-372.5 43,-402.5 407,-402.5 407,-372.5 43,-372.5"/>
<text text-anchor="start" x="50" y="-383.9" font-family="Arial" font-size="14.00" fill="#000000">department_cd </text>
<text text-anchor="start" x="147.2538" y="-383.9" font-family="Arial" font-size="14.00" fill="#666666">[nvarchar(100)]</text>
<polygon fill="none" stroke="#000000" points="43,-342.5 43,-372.5 407,-372.5 407,-342.5 43,-342.5"/>
<text text-anchor="start" x="50" y="-353.9" font-family="Arial" font-size="14.00" fill="#000000">main_department_cd </text>
<text text-anchor="start" x="185.3688" y="-353.9" font-family="Arial" font-size="14.00" fill="#666666">[nvarchar(100)]</text>
<polygon fill="none" stroke="#000000" points="43,-312.5 43,-342.5 407,-342.5 407,-312.5 43,-312.5"/>
<text text-anchor="start" x="50" y="-323.9" font-family="Arial" font-size="14.00" fill="#000000">order_amount </text>
<text text-anchor="start" x="141.0238" y="-323.9" font-family="Arial" font-size="14.00" fill="#666666">[int]</text>
<polygon fill="none" stroke="#000000" points="43,-282.5 43,-312.5 407,-312.5 407,-282.5 43,-282.5"/>
<text text-anchor="start" x="50" y="-293.9" font-family="Arial" font-size="14.00" fill="#000000">sales_confirmed_amount </text>
<text text-anchor="start" x="210.258" y="-293.9" font-family="Arial" font-size="14.00" fill="#666666">[int]</text>
<polygon fill="none" stroke="#000000" points="43,-252.5 43,-282.5 407,-282.5 407,-252.5 43,-252.5"/>
<text text-anchor="start" x="50" y="-263.9" font-family="Arial" font-size="14.00" fill="#000000">progress_sales_status_cd </text>
<text text-anchor="start" x="216.4908" y="-263.9" font-family="Arial" font-size="14.00" fill="#666666">[nvarchar(2)]</text>
<polygon fill="none" stroke="#000000" points="43,-222.5 43,-252.5 407,-252.5 407,-222.5 43,-222.5"/>
<text text-anchor="start" x="50" y="-233.9" font-family="Arial" font-size="14.00" fill="#000000">progress_plans_status_cd </text>
<text text-anchor="start" x="217.2734" y="-233.9" font-family="Arial" font-size="14.00" fill="#666666">[nvarchar(2)]</text>
<polygon fill="none" stroke="#000000" points="43,-192.5 43,-222.5 407,-222.5 407,-192.5 43,-192.5"/>
<text text-anchor="start" x="50" y="-203.9" font-family="Arial" font-size="14.00" fill="#000000">charge_division_cd </text>
<text text-anchor="start" x="173.697" y="-203.9" font-family="Arial" font-size="14.00" fill="#666666">[nvarchar(2)]</text>
<polygon fill="none" stroke="#000000" points="43,-162.5 43,-192.5 407,-192.5 407,-162.5 43,-162.5"/>
<text text-anchor="start" x="50" y="-173.9" font-family="Arial" font-size="14.00" fill="#000000">create_user_cd </text>
<text text-anchor="start" x="150.3632" y="-173.9" font-family="Arial" font-size="14.00" fill="#666666">[nvarchar(10)]</text>
<polygon fill="none" stroke="#000000" points="43,-132.5 43,-162.5 407,-162.5 407,-132.5 43,-132.5"/>
<text text-anchor="start" x="50" y="-143.9" font-family="Arial" font-size="14.00" fill="#000000">create_date </text>
<text text-anchor="start" x="127.8106" y="-143.9" font-family="Arial" font-size="14.00" fill="#666666">[datetime2]</text>
<polygon fill="none" stroke="#000000" points="43,-102.5 43,-132.5 407,-132.5 407,-102.5 43,-102.5"/>
<text text-anchor="start" x="50" y="-113.9" font-family="Arial" font-size="14.00" fill="#000000">record_user_cd </text>
<text text-anchor="start" x="151.1332" y="-113.9" font-family="Arial" font-size="14.00" fill="#666666">[nvarchar(10)]</text>
<polygon fill="none" stroke="#000000" points="43,-72.5 43,-102.5 407,-102.5 407,-72.5 43,-72.5"/>
<text text-anchor="start" x="50" y="-83.9" font-family="Arial" font-size="14.00" fill="#000000">record_date </text>
<text text-anchor="start" x="128.5806" y="-83.9" font-family="Arial" font-size="14.00" fill="#666666">[datetime2]</text>
<polygon fill="none" stroke="#000000" points="43,-42.5 43,-72.5 407,-72.5 407,-42.5 43,-42.5"/>
<text text-anchor="start" x="50" y="-53.9" font-family="Arial" font-size="14.00" fill="#000000">delete_flag </text>
<text text-anchor="start" x="122.3632" y="-53.9" font-family="Arial" font-size="14.00" fill="#666666">[nvarchar(1)]</text>
</g>
<!-- sh_t_salses_saved&#45;&gt;sh_t_order_department_details -->
<g id="edge1" class="edge">
<title>sh_t_salses_saved:project_number&#45;&gt;sh_t_order_department_details:project_number</title>
<path fill="none" stroke="#000000" d="M371.203,-1023.3891C427.6115,-973.0589 465.2016,-477.5 407,-477.5"/>
<polygon fill="#000000" stroke="#000000" points="371.1305,-1023.4215 360.1647,-1023.3913 366.5653,-1025.4607 362,-1027.5 362,-1027.5 362,-1027.5 366.5653,-1025.4607 363.8353,-1031.6087 371.1305,-1023.4215 371.1305,-1023.4215"/>
</g>
</g>
</svg>
