<?xml version="1.0" encoding="UTF-8" standalone="no"?>
<!DOCTYPE svg PUBLIC "-//W3C//DTD SVG 1.1//EN"
 "http://www.w3.org/Graphics/SVG/1.1/DTD/svg11.dtd">
<!-- Generated by graphviz version 2.40.1 (20161225.0304)
 -->
<!-- Title: sh_t_salses_saved Pages: 1 -->
<svg width="387pt" height="1192pt"
 viewBox="0.00 0.00 387.10 1192.00" xmlns="http://www.w3.org/2000/svg" xmlns:xlink="http://www.w3.org/1999/xlink">
<g id="graph0" class="graph" transform="scale(1 1) rotate(0) translate(4 1188)">
<title>sh_t_salses_saved</title>
<polygon fill="#ffffff" stroke="transparent" points="-4,4 -4,-1188 383.1007,-1188 383.1007,4 -4,4"/>
<!-- sh_t_salses_saved -->
<g id="node1" class="node">
<title>sh_t_salses_saved</title>
<polygon fill="#efefef" stroke="transparent" points="59.1007,-1102.5 59.1007,-1137.5 333.1007,-1137.5 333.1007,-1102.5 59.1007,-1102.5"/>
<polygon fill="none" stroke="#000000" points="59.1007,-1102.5 59.1007,-1137.5 333.1007,-1137.5 333.1007,-1102.5 59.1007,-1102.5"/>
<text text-anchor="start" x="68.6174" y="-1115.3" font-family="Arial Bold" font-size="18.00" fill="#000000">sh_t_salses_saved</text>
<text text-anchor="start" x="221.6696" y="-1115.3" font-family="Arial" font-size="14.00" fill="#000000"> </text>
<text text-anchor="start" x="225.5602" y="-1115.3" font-family="Arial" font-size="14.00" fill="#666666">[BASIC TABLE]</text>
<polygon fill="none" stroke="#000000" points="59.1007,-1072.5 59.1007,-1102.5 333.1007,-1102.5 333.1007,-1072.5 59.1007,-1072.5"/>
<text text-anchor="start" x="66.1007" y="-1083.9" font-family="Arial" font-size="14.00" fill="#000000">project_number </text>
<text text-anchor="start" x="167.2311" y="-1083.9" font-family="Arial" font-size="14.00" fill="#666666">[nvarchar(255)]</text>
<polygon fill="none" stroke="#000000" points="59.1007,-1042.5 59.1007,-1072.5 333.1007,-1072.5 333.1007,-1042.5 59.1007,-1042.5"/>
<text text-anchor="start" x="66.1007" y="-1053.9" font-family="Arial" font-size="14.00" fill="#000000">order_number </text>
<text text-anchor="start" x="157.8945" y="-1053.9" font-family="Arial" font-size="14.00" fill="#666666">[nvarchar(255)]</text>
<polygon fill="none" stroke="#000000" points="59.1007,-1012.5 59.1007,-1042.5 333.1007,-1042.5 333.1007,-1012.5 59.1007,-1012.5"/>
<text text-anchor="start" x="66.1007" y="-1023.9" font-family="Arial" font-size="14.00" fill="#000000">detail_number </text>
<text text-anchor="start" x="158.6771" y="-1023.9" font-family="Arial" font-size="14.00" fill="#666666">[nvarchar(255)]</text>
<polygon fill="none" stroke="#000000" points="59.1007,-982.5 59.1007,-1012.5 333.1007,-1012.5 333.1007,-982.5 59.1007,-982.5"/>
<text text-anchor="start" x="66.1007" y="-993.9" font-family="Arial" font-size="14.00" fill="#000000">department_cd </text>
<text text-anchor="start" x="163.3545" y="-993.9" font-family="Arial" font-size="14.00" fill="#666666">[nvarchar(255)]</text>
<polygon fill="none" stroke="#000000" points="59.1007,-952.5 59.1007,-982.5 333.1007,-982.5 333.1007,-952.5 59.1007,-952.5"/>
<text text-anchor="start" x="65.7845" y="-963.9" font-family="Arial" font-size="14.00" fill="#000000">sales_adjusted_change_flag </text>
<text text-anchor="start" x="247.0803" y="-963.9" font-family="Arial" font-size="14.00" fill="#666666">[nvarchar(1)]</text>
<polygon fill="none" stroke="#000000" points="59.1007,-922.5 59.1007,-952.5 333.1007,-952.5 333.1007,-922.5 59.1007,-922.5"/>
<text text-anchor="start" x="66.1007" y="-933.9" font-family="Arial" font-size="14.00" fill="#000000">sales_adjusted_value </text>
<text text-anchor="start" x="204.5929" y="-933.9" font-family="Arial" font-size="14.00" fill="#666666">[numeric]</text>
<polygon fill="none" stroke="#000000" points="59.1007,-892.5 59.1007,-922.5 333.1007,-922.5 333.1007,-892.5 59.1007,-892.5"/>
<text text-anchor="start" x="66.1007" y="-903.9" font-family="Arial" font-size="14.00" fill="#000000">end_flag </text>
<text text-anchor="start" x="123.6841" y="-903.9" font-family="Arial" font-size="14.00" fill="#666666">[nvarchar(1)]</text>
<polygon fill="none" stroke="#000000" points="59.1007,-862.5 59.1007,-892.5 333.1007,-892.5 333.1007,-862.5 59.1007,-862.5"/>
<text text-anchor="start" x="66.1007" y="-873.9" font-family="Arial" font-size="14.00" fill="#000000">comment </text>
<text text-anchor="start" x="127.5509" y="-873.9" font-family="Arial" font-size="14.00" fill="#666666">[nvarchar(1000)]</text>
<polygon fill="none" stroke="#000000" points="59.1007,-832.5 59.1007,-862.5 333.1007,-862.5 333.1007,-832.5 59.1007,-832.5"/>
<text text-anchor="start" x="66.1007" y="-843.9" font-family="Arial" font-size="14.00" fill="#000000">create_user_cd </text>
<text text-anchor="start" x="166.4639" y="-843.9" font-family="Arial" font-size="14.00" fill="#666666">[nvarchar(10)]</text>
<polygon fill="none" stroke="#000000" points="59.1007,-802.5 59.1007,-832.5 333.1007,-832.5 333.1007,-802.5 59.1007,-802.5"/>
<text text-anchor="start" x="66.1007" y="-813.9" font-family="Arial" font-size="14.00" fill="#000000">create_date </text>
<text text-anchor="start" x="143.9113" y="-813.9" font-family="Arial" font-size="14.00" fill="#666666">[datetime2]</text>
<polygon fill="none" stroke="#000000" points="59.1007,-772.5 59.1007,-802.5 333.1007,-802.5 333.1007,-772.5 59.1007,-772.5"/>
<text text-anchor="start" x="66.1007" y="-783.9" font-family="Arial" font-size="14.00" fill="#000000">record_user_cd </text>
<text text-anchor="start" x="167.2339" y="-783.9" font-family="Arial" font-size="14.00" fill="#666666">[nvarchar(10)]</text>
<polygon fill="none" stroke="#000000" points="59.1007,-742.5 59.1007,-772.5 333.1007,-772.5 333.1007,-742.5 59.1007,-742.5"/>
<text text-anchor="start" x="66.1007" y="-753.9" font-family="Arial" font-size="14.00" fill="#000000">record_date </text>
<text text-anchor="start" x="144.6813" y="-753.9" font-family="Arial" font-size="14.00" fill="#666666">[datetime2]</text>
<polygon fill="none" stroke="#000000" points="59.1007,-712.5 59.1007,-742.5 333.1007,-742.5 333.1007,-712.5 59.1007,-712.5"/>
<text text-anchor="start" x="66.1007" y="-723.9" font-family="Arial" font-size="14.00" fill="#000000">delete_flag </text>
<text text-anchor="start" x="138.4639" y="-723.9" font-family="Arial" font-size="14.00" fill="#666666">[nvarchar(1)]</text>
<polygon fill="none" stroke="#000000" stroke-width="3" points="57.6007,-711.5 57.6007,-1139.5 334.6007,-1139.5 334.6007,-711.5 57.6007,-711.5"/>
</g>
<!-- sh_t_order_details -->
<g id="node2" class="node">
<title>sh_t_order_details</title>
<polygon fill="#efefef" stroke="transparent" points="64.1007,-552.5 64.1007,-587.5 327.1007,-587.5 327.1007,-552.5 64.1007,-552.5"/>
<polygon fill="none" stroke="#000000" points="64.1007,-552.5 64.1007,-587.5 327.1007,-587.5 327.1007,-552.5 64.1007,-552.5"/>
<text text-anchor="start" x="70.6239" y="-565.3" font-family="Arial Bold" font-size="18.00" fill="#000000">sh_t_order_details</text>
<text text-anchor="start" x="218.6631" y="-565.3" font-family="Arial" font-size="14.00" fill="#000000"> </text>
<text text-anchor="start" x="222.5537" y="-565.3" font-family="Arial" font-size="14.00" fill="#666666">[BASIC TABLE]</text>
<polygon fill="none" stroke="#000000" points="64.1007,-522.5 64.1007,-552.5 327.1007,-552.5 327.1007,-522.5 64.1007,-522.5"/>
<text text-anchor="start" x="71.1007" y="-533.9" font-family="Arial" font-size="14.00" fill="#000000">project_number </text>
<text text-anchor="start" x="172.2311" y="-533.9" font-family="Arial" font-size="14.00" fill="#666666">[nvarchar(255)]</text>
<polygon fill="none" stroke="#000000" points="64.1007,-492.5 64.1007,-522.5 327.1007,-522.5 327.1007,-492.5 64.1007,-492.5"/>
<text text-anchor="start" x="71.1007" y="-503.9" font-family="Arial" font-size="14.00" fill="#000000">order_number </text>
<text text-anchor="start" x="162.8945" y="-503.9" font-family="Arial" font-size="14.00" fill="#666666">[nvarchar(255)]</text>
<polygon fill="none" stroke="#000000" points="64.1007,-462.5 64.1007,-492.5 327.1007,-492.5 327.1007,-462.5 64.1007,-462.5"/>
<text text-anchor="start" x="71.1007" y="-473.9" font-family="Arial" font-size="14.00" fill="#000000">detail_number </text>
<text text-anchor="start" x="163.6771" y="-473.9" font-family="Arial" font-size="14.00" fill="#666666">[nvarchar(255)]</text>
<polygon fill="none" stroke="#000000" points="64.1007,-432.5 64.1007,-462.5 327.1007,-462.5 327.1007,-432.5 64.1007,-432.5"/>
<text text-anchor="start" x="71.1007" y="-443.9" font-family="Arial" font-size="14.00" fill="#000000">department_cd </text>
<text text-anchor="start" x="168.3545" y="-443.9" font-family="Arial" font-size="14.00" fill="#666666">[nvarchar(255)]</text>
<polygon fill="none" stroke="#000000" points="64.1007,-402.5 64.1007,-432.5 327.1007,-432.5 327.1007,-402.5 64.1007,-402.5"/>
<text text-anchor="start" x="71.1007" y="-413.9" font-family="Arial" font-size="14.00" fill="#000000">main_department_cd </text>
<text text-anchor="start" x="206.4695" y="-413.9" font-family="Arial" font-size="14.00" fill="#666666">[nvarchar(100)]</text>
<polygon fill="none" stroke="#000000" points="64.1007,-372.5 64.1007,-402.5 327.1007,-402.5 327.1007,-372.5 64.1007,-372.5"/>
<text text-anchor="start" x="71.1007" y="-383.9" font-family="Arial" font-size="14.00" fill="#000000">details </text>
<text text-anchor="start" x="115.4429" y="-383.9" font-family="Arial" font-size="14.00" fill="#666666">[nvarchar(1000)]</text>
<polygon fill="none" stroke="#000000" points="64.1007,-342.5 64.1007,-372.5 327.1007,-372.5 327.1007,-342.5 64.1007,-342.5"/>
<text text-anchor="start" x="71.1007" y="-353.9" font-family="Arial" font-size="14.00" fill="#000000">order_amount </text>
<text text-anchor="start" x="162.1245" y="-353.9" font-family="Arial" font-size="14.00" fill="#666666">[decimal]</text>
<polygon fill="none" stroke="#000000" points="64.1007,-312.5 64.1007,-342.5 327.1007,-342.5 327.1007,-312.5 64.1007,-312.5"/>
<text text-anchor="start" x="71.1007" y="-323.9" font-family="Arial" font-size="14.00" fill="#000000">sales_confirmed_amount </text>
<text text-anchor="start" x="231.3587" y="-323.9" font-family="Arial" font-size="14.00" fill="#666666">[numeric]</text>
<polygon fill="none" stroke="#000000" points="64.1007,-282.5 64.1007,-312.5 327.1007,-312.5 327.1007,-282.5 64.1007,-282.5"/>
<text text-anchor="start" x="71.1007" y="-293.9" font-family="Arial" font-size="14.00" fill="#000000">progress_cost_flag </text>
<text text-anchor="start" x="193.2437" y="-293.9" font-family="Arial" font-size="14.00" fill="#666666">[nvarchar(1)]</text>
<polygon fill="none" stroke="#000000" points="64.1007,-252.5 64.1007,-282.5 327.1007,-282.5 327.1007,-252.5 64.1007,-252.5"/>
<text text-anchor="start" x="71.1007" y="-263.9" font-family="Arial" font-size="14.00" fill="#000000">progress_sales_status_cd </text>
<text text-anchor="start" x="237.5915" y="-263.9" font-family="Arial" font-size="14.00" fill="#666666">[nvarchar(2)]</text>
<polygon fill="none" stroke="#000000" points="64.1007,-222.5 64.1007,-252.5 327.1007,-252.5 327.1007,-222.5 64.1007,-222.5"/>
<text text-anchor="start" x="71.1007" y="-233.9" font-family="Arial" font-size="14.00" fill="#000000">progress_plans_status_cd </text>
<text text-anchor="start" x="238.3741" y="-233.9" font-family="Arial" font-size="14.00" fill="#666666">[nvarchar(2)]</text>
<polygon fill="none" stroke="#000000" points="64.1007,-192.5 64.1007,-222.5 327.1007,-222.5 327.1007,-192.5 64.1007,-192.5"/>
<text text-anchor="start" x="71.1007" y="-203.9" font-family="Arial" font-size="14.00" fill="#000000">charge_division_cd </text>
<text text-anchor="start" x="194.7977" y="-203.9" font-family="Arial" font-size="14.00" fill="#666666">[nvarchar(2)]</text>
<polygon fill="none" stroke="#000000" points="64.1007,-162.5 64.1007,-192.5 327.1007,-192.5 327.1007,-162.5 64.1007,-162.5"/>
<text text-anchor="start" x="71.1007" y="-173.9" font-family="Arial" font-size="14.00" fill="#000000">create_user_cd </text>
<text text-anchor="start" x="171.4639" y="-173.9" font-family="Arial" font-size="14.00" fill="#666666">[nvarchar(10)]</text>
<polygon fill="none" stroke="#000000" points="64.1007,-132.5 64.1007,-162.5 327.1007,-162.5 327.1007,-132.5 64.1007,-132.5"/>
<text text-anchor="start" x="71.1007" y="-143.9" font-family="Arial" font-size="14.00" fill="#000000">create_date </text>
<text text-anchor="start" x="148.9113" y="-143.9" font-family="Arial" font-size="14.00" fill="#666666">[datetime2]</text>
<polygon fill="none" stroke="#000000" points="64.1007,-102.5 64.1007,-132.5 327.1007,-132.5 327.1007,-102.5 64.1007,-102.5"/>
<text text-anchor="start" x="71.1007" y="-113.9" font-family="Arial" font-size="14.00" fill="#000000">record_user_cd </text>
<text text-anchor="start" x="172.2339" y="-113.9" font-family="Arial" font-size="14.00" fill="#666666">[nvarchar(10)]</text>
<polygon fill="none" stroke="#000000" points="64.1007,-72.5 64.1007,-102.5 327.1007,-102.5 327.1007,-72.5 64.1007,-72.5"/>
<text text-anchor="start" x="71.1007" y="-83.9" font-family="Arial" font-size="14.00" fill="#000000">record_date </text>
<text text-anchor="start" x="149.6813" y="-83.9" font-family="Arial" font-size="14.00" fill="#666666">[datetime2]</text>
<polygon fill="none" stroke="#000000" points="64.1007,-42.5 64.1007,-72.5 327.1007,-72.5 327.1007,-42.5 64.1007,-42.5"/>
<text text-anchor="start" x="71.1007" y="-53.9" font-family="Arial" font-size="14.00" fill="#000000">delete_flag </text>
<text text-anchor="start" x="143.4639" y="-53.9" font-family="Arial" font-size="14.00" fill="#666666">[nvarchar(1)]</text>
</g>
<!-- sh_t_salses_saved&#45;&gt;sh_t_order_details -->
<g id="edge1" class="edge">
<title>sh_t_salses_saved:project_number&#45;&gt;sh_t_order_details:project_number</title>
<path fill="none" stroke="#000000" d="M48.7184,-1085.9346C-31.8044,-1060.5704 -.0159,-734.5887 59.1007,-667 138.2227,-576.5391 247.9788,-721.4609 327.1007,-631 354.4591,-599.7209 368.6563,-537.5 327.1007,-537.5"/>
<polygon fill="#000000" stroke="#000000" points="49.2125,-1086.009 58.4298,-1091.9497 54.1566,-1086.7545 59.1007,-1087.5 59.1007,-1087.5 59.1007,-1087.5 54.1566,-1086.7545 59.7717,-1083.0503 49.2125,-1086.009 49.2125,-1086.009"/>
</g>
</g>
</svg>
