<?xml version="1.0" encoding="UTF-8" standalone="no"?>
<!DOCTYPE svg PUBLIC "-//W3C//DTD SVG 1.1//EN"
 "http://www.w3.org/Graphics/SVG/1.1/DTD/svg11.dtd">
<!-- Generated by graphviz version 2.40.1 (20161225.0304)
 -->
<!-- Title: sh_t_plans_production_costs_saved Pages: 1 -->
<svg width="538pt" height="1312pt"
 viewBox="0.00 0.00 538.01 1312.00" xmlns="http://www.w3.org/2000/svg" xmlns:xlink="http://www.w3.org/1999/xlink">
<g id="graph0" class="graph" transform="scale(1 1) rotate(0) translate(4 1308)">
<title>sh_t_plans_production_costs_saved</title>
<polygon fill="#ffffff" stroke="transparent" points="-4,4 -4,-1308 534.011,-1308 534.011,4 -4,4"/>
<!-- sh_t_plans_production_costs_saved -->
<g id="node1" class="node">
<title>sh_t_plans_production_costs_saved</title>
<polygon fill="#efefef" stroke="transparent" points="46.5,-1222.5 46.5,-1257.5 453.5,-1257.5 453.5,-1222.5 46.5,-1222.5"/>
<polygon fill="none" stroke="#000000" points="46.5,-1222.5 46.5,-1257.5 453.5,-1257.5 453.5,-1222.5 46.5,-1222.5"/>
<text text-anchor="start" x="53.4903" y="-1235.3" font-family="Arial Bold" font-size="18.00" fill="#000000">sh_t_plans_production_costs_saved</text>
<text text-anchor="start" x="344.5953" y="-1235.3" font-family="Arial" font-size="14.00" fill="#000000"> </text>
<text text-anchor="start" x="348.4859" y="-1235.3" font-family="Arial" font-size="14.00" fill="#666666">[BASIC TABLE]</text>
<polygon fill="none" stroke="#000000" points="46.5,-1192.5 46.5,-1222.5 453.5,-1222.5 453.5,-1192.5 46.5,-1192.5"/>
<text text-anchor="start" x="53.5" y="-1203.9" font-family="Arial" font-size="14.00" fill="#000000">project_number </text>
<text text-anchor="start" x="154.6304" y="-1203.9" font-family="Arial" font-size="14.00" fill="#666666">[nvarchar(255)]</text>
<polygon fill="none" stroke="#000000" points="46.5,-1162.5 46.5,-1192.5 453.5,-1192.5 453.5,-1162.5 46.5,-1162.5"/>
<text text-anchor="start" x="53.5" y="-1173.9" font-family="Arial" font-size="14.00" fill="#000000">order_number </text>
<text text-anchor="start" x="145.2938" y="-1173.9" font-family="Arial" font-size="14.00" fill="#666666">[nvarchar(255)]</text>
<polygon fill="none" stroke="#000000" points="46.5,-1132.5 46.5,-1162.5 453.5,-1162.5 453.5,-1132.5 46.5,-1132.5"/>
<text text-anchor="start" x="53.5" y="-1143.9" font-family="Arial" font-size="14.00" fill="#000000">detail_number </text>
<text text-anchor="start" x="146.0764" y="-1143.9" font-family="Arial" font-size="14.00" fill="#666666">[nvarchar(255)]</text>
<polygon fill="none" stroke="#000000" points="46.5,-1102.5 46.5,-1132.5 453.5,-1132.5 453.5,-1102.5 46.5,-1102.5"/>
<text text-anchor="start" x="53.5" y="-1113.9" font-family="Arial" font-size="14.00" fill="#000000">department_cd </text>
<text text-anchor="start" x="150.7538" y="-1113.9" font-family="Arial" font-size="14.00" fill="#666666">[nvarchar(100)]</text>
<polygon fill="none" stroke="#000000" points="46.5,-1072.5 46.5,-1102.5 453.5,-1102.5 453.5,-1072.5 46.5,-1072.5"/>
<text text-anchor="start" x="53.5" y="-1083.9" font-family="Arial" font-size="14.00" fill="#000000">order_amount </text>
<text text-anchor="start" x="144.5238" y="-1083.9" font-family="Arial" font-size="14.00" fill="#666666">[int]</text>
<polygon fill="none" stroke="#000000" points="46.5,-1042.5 46.5,-1072.5 453.5,-1072.5 453.5,-1042.5 46.5,-1042.5"/>
<text text-anchor="start" x="53.5" y="-1053.9" font-family="Arial" font-size="14.00" fill="#000000">expected_days_total </text>
<text text-anchor="start" x="185.7776" y="-1053.9" font-family="Arial" font-size="14.00" fill="#666666">[decimal]</text>
<polygon fill="none" stroke="#000000" points="46.5,-1012.5 46.5,-1042.5 453.5,-1042.5 453.5,-1012.5 46.5,-1012.5"/>
<text text-anchor="start" x="53.5" y="-1023.9" font-family="Arial" font-size="14.00" fill="#000000">plans_production_costs </text>
<text text-anchor="start" x="204.4368" y="-1023.9" font-family="Arial" font-size="14.00" fill="#666666">[decimal]</text>
<polygon fill="none" stroke="#000000" points="46.5,-982.5 46.5,-1012.5 453.5,-1012.5 453.5,-982.5 46.5,-982.5"/>
<text text-anchor="start" x="53.5" y="-993.9" font-family="Arial" font-size="14.00" fill="#000000">outsourcing_cost_flag </text>
<text text-anchor="start" x="193.5448" y="-993.9" font-family="Arial" font-size="14.00" fill="#666666">[nvarchar(1)]</text>
<polygon fill="none" stroke="#000000" points="46.5,-952.5 46.5,-982.5 453.5,-982.5 453.5,-952.5 46.5,-952.5"/>
<text text-anchor="start" x="53.5" y="-963.9" font-family="Arial" font-size="14.00" fill="#000000">plans_outsourcing_cost </text>
<text text-anchor="start" x="204.4368" y="-963.9" font-family="Arial" font-size="14.00" fill="#666666">[int]</text>
<polygon fill="none" stroke="#000000" points="46.5,-922.5 46.5,-952.5 453.5,-952.5 453.5,-922.5 46.5,-922.5"/>
<text text-anchor="start" x="53.5" y="-933.9" font-family="Arial" font-size="14.00" fill="#000000">plans_outsourcing_cost_sales </text>
<text text-anchor="start" x="244.8912" y="-933.9" font-family="Arial" font-size="14.00" fill="#666666">[int]</text>
<polygon fill="none" stroke="#000000" points="46.5,-892.5 46.5,-922.5 453.5,-922.5 453.5,-892.5 46.5,-892.5"/>
<text text-anchor="start" x="53.5" y="-903.9" font-family="Arial" font-size="14.00" fill="#000000">comment </text>
<text text-anchor="start" x="114.9502" y="-903.9" font-family="Arial" font-size="14.00" fill="#666666">[nvarchar(2000)]</text>
<polygon fill="none" stroke="#000000" points="46.5,-862.5 46.5,-892.5 453.5,-892.5 453.5,-862.5 46.5,-862.5"/>
<text text-anchor="start" x="53.5" y="-873.9" font-family="Arial" font-size="14.00" fill="#000000">create_user_cd </text>
<text text-anchor="start" x="153.8632" y="-873.9" font-family="Arial" font-size="14.00" fill="#666666">[nvarchar(10)]</text>
<polygon fill="none" stroke="#000000" points="46.5,-832.5 46.5,-862.5 453.5,-862.5 453.5,-832.5 46.5,-832.5"/>
<text text-anchor="start" x="53.5" y="-843.9" font-family="Arial" font-size="14.00" fill="#000000">create_date </text>
<text text-anchor="start" x="131.3106" y="-843.9" font-family="Arial" font-size="14.00" fill="#666666">[datetime2]</text>
<polygon fill="none" stroke="#000000" points="46.5,-802.5 46.5,-832.5 453.5,-832.5 453.5,-802.5 46.5,-802.5"/>
<text text-anchor="start" x="53.5" y="-813.9" font-family="Arial" font-size="14.00" fill="#000000">record_user_cd </text>
<text text-anchor="start" x="154.6332" y="-813.9" font-family="Arial" font-size="14.00" fill="#666666">[nvarchar(10)]</text>
<polygon fill="none" stroke="#000000" points="46.5,-772.5 46.5,-802.5 453.5,-802.5 453.5,-772.5 46.5,-772.5"/>
<text text-anchor="start" x="53.5" y="-783.9" font-family="Arial" font-size="14.00" fill="#000000">record_date </text>
<text text-anchor="start" x="132.0806" y="-783.9" font-family="Arial" font-size="14.00" fill="#666666">[datetime2]</text>
<polygon fill="none" stroke="#000000" points="46.5,-742.5 46.5,-772.5 453.5,-772.5 453.5,-742.5 46.5,-742.5"/>
<text text-anchor="start" x="53.5" y="-753.9" font-family="Arial" font-size="14.00" fill="#000000">divide_flag </text>
<text text-anchor="start" x="124.2966" y="-753.9" font-family="Arial" font-size="14.00" fill="#666666">[nvarchar(1)]</text>
<polygon fill="none" stroke="#000000" points="46.5,-712.5 46.5,-742.5 453.5,-742.5 453.5,-712.5 46.5,-712.5"/>
<text text-anchor="start" x="53.5" y="-723.9" font-family="Arial" font-size="14.00" fill="#000000">delete_flag </text>
<text text-anchor="start" x="125.8632" y="-723.9" font-family="Arial" font-size="14.00" fill="#666666">[nvarchar(1)]</text>
<polygon fill="none" stroke="#000000" stroke-width="3" points="44.5,-711.5 44.5,-1259.5 454.5,-1259.5 454.5,-711.5 44.5,-711.5"/>
</g>
<!-- sh_t_order_department_details -->
<g id="node2" class="node">
<title>sh_t_order_department_details</title>
<polygon fill="#efefef" stroke="transparent" points="68.5,-552.5 68.5,-587.5 432.5,-587.5 432.5,-552.5 68.5,-552.5"/>
<polygon fill="none" stroke="#000000" points="68.5,-552.5 68.5,-587.5 432.5,-587.5 432.5,-552.5 68.5,-552.5"/>
<text text-anchor="start" x="75.0071" y="-565.3" font-family="Arial Bold" font-size="18.00" fill="#000000">sh_t_order_department_details</text>
<text text-anchor="start" x="324.0785" y="-565.3" font-family="Arial" font-size="14.00" fill="#000000"> </text>
<text text-anchor="start" x="327.9691" y="-565.3" font-family="Arial" font-size="14.00" fill="#666666">[BASIC TABLE]</text>
<polygon fill="none" stroke="#000000" points="68.5,-522.5 68.5,-552.5 432.5,-552.5 432.5,-522.5 68.5,-522.5"/>
<text text-anchor="start" x="75.5" y="-533.9" font-family="Arial" font-size="14.00" fill="#000000">project_number </text>
<text text-anchor="start" x="176.6304" y="-533.9" font-family="Arial" font-size="14.00" fill="#666666">[nvarchar(255)]</text>
<polygon fill="none" stroke="#000000" points="68.5,-492.5 68.5,-522.5 432.5,-522.5 432.5,-492.5 68.5,-492.5"/>
<text text-anchor="start" x="75.5" y="-503.9" font-family="Arial" font-size="14.00" fill="#000000">order_number </text>
<text text-anchor="start" x="167.2938" y="-503.9" font-family="Arial" font-size="14.00" fill="#666666">[nvarchar(255)]</text>
<polygon fill="none" stroke="#000000" points="68.5,-462.5 68.5,-492.5 432.5,-492.5 432.5,-462.5 68.5,-462.5"/>
<text text-anchor="start" x="75.5" y="-473.9" font-family="Arial" font-size="14.00" fill="#000000">detail_number </text>
<text text-anchor="start" x="168.0764" y="-473.9" font-family="Arial" font-size="14.00" fill="#666666">[nvarchar(255)]</text>
<polygon fill="none" stroke="#000000" points="68.5,-432.5 68.5,-462.5 432.5,-462.5 432.5,-432.5 68.5,-432.5"/>
<text text-anchor="start" x="75.5" y="-443.9" font-family="Arial" font-size="14.00" fill="#000000">department_cd </text>
<text text-anchor="start" x="172.7538" y="-443.9" font-family="Arial" font-size="14.00" fill="#666666">[nvarchar(100)]</text>
<polygon fill="none" stroke="#000000" points="68.5,-402.5 68.5,-432.5 432.5,-432.5 432.5,-402.5 68.5,-402.5"/>
<text text-anchor="start" x="75.5" y="-413.9" font-family="Arial" font-size="14.00" fill="#000000">main_department_cd </text>
<text text-anchor="start" x="210.8688" y="-413.9" font-family="Arial" font-size="14.00" fill="#666666">[nvarchar(100)]</text>
<polygon fill="none" stroke="#000000" points="68.5,-372.5 68.5,-402.5 432.5,-402.5 432.5,-372.5 68.5,-372.5"/>
<text text-anchor="start" x="75.5" y="-383.9" font-family="Arial" font-size="14.00" fill="#000000">order_amount </text>
<text text-anchor="start" x="166.5238" y="-383.9" font-family="Arial" font-size="14.00" fill="#666666">[int]</text>
<polygon fill="none" stroke="#000000" points="68.5,-342.5 68.5,-372.5 432.5,-372.5 432.5,-342.5 68.5,-342.5"/>
<text text-anchor="start" x="75.5" y="-353.9" font-family="Arial" font-size="14.00" fill="#000000">sales_confirmed_amount </text>
<text text-anchor="start" x="235.758" y="-353.9" font-family="Arial" font-size="14.00" fill="#666666">[int]</text>
<polygon fill="none" stroke="#000000" points="68.5,-312.5 68.5,-342.5 432.5,-342.5 432.5,-312.5 68.5,-312.5"/>
<text text-anchor="start" x="75.5" y="-323.9" font-family="Arial" font-size="14.00" fill="#000000">progress_sales_status_cd </text>
<text text-anchor="start" x="241.9908" y="-323.9" font-family="Arial" font-size="14.00" fill="#666666">[nvarchar(2)]</text>
<polygon fill="none" stroke="#000000" points="68.5,-282.5 68.5,-312.5 432.5,-312.5 432.5,-282.5 68.5,-282.5"/>
<text text-anchor="start" x="75.5" y="-293.9" font-family="Arial" font-size="14.00" fill="#000000">progress_plans_status_cd </text>
<text text-anchor="start" x="242.7734" y="-293.9" font-family="Arial" font-size="14.00" fill="#666666">[nvarchar(2)]</text>
<polygon fill="none" stroke="#000000" points="68.5,-252.5 68.5,-282.5 432.5,-282.5 432.5,-252.5 68.5,-252.5"/>
<text text-anchor="start" x="75.5" y="-263.9" font-family="Arial" font-size="14.00" fill="#000000">charge_division_cd </text>
<text text-anchor="start" x="199.197" y="-263.9" font-family="Arial" font-size="14.00" fill="#666666">[nvarchar(2)]</text>
<polygon fill="none" stroke="#000000" points="68.5,-222.5 68.5,-252.5 432.5,-252.5 432.5,-222.5 68.5,-222.5"/>
<text text-anchor="start" x="75.5" y="-233.9" font-family="Arial" font-size="14.00" fill="#000000">create_user_cd </text>
<text text-anchor="start" x="175.8632" y="-233.9" font-family="Arial" font-size="14.00" fill="#666666">[nvarchar(10)]</text>
<polygon fill="none" stroke="#000000" points="68.5,-192.5 68.5,-222.5 432.5,-222.5 432.5,-192.5 68.5,-192.5"/>
<text text-anchor="start" x="75.5" y="-203.9" font-family="Arial" font-size="14.00" fill="#000000">create_date </text>
<text text-anchor="start" x="153.3106" y="-203.9" font-family="Arial" font-size="14.00" fill="#666666">[datetime2]</text>
<polygon fill="none" stroke="#000000" points="68.5,-162.5 68.5,-192.5 432.5,-192.5 432.5,-162.5 68.5,-162.5"/>
<text text-anchor="start" x="75.5" y="-173.9" font-family="Arial" font-size="14.00" fill="#000000">record_user_cd </text>
<text text-anchor="start" x="176.6332" y="-173.9" font-family="Arial" font-size="14.00" fill="#666666">[nvarchar(10)]</text>
<polygon fill="none" stroke="#000000" points="68.5,-132.5 68.5,-162.5 432.5,-162.5 432.5,-132.5 68.5,-132.5"/>
<text text-anchor="start" x="75.5" y="-143.9" font-family="Arial" font-size="14.00" fill="#000000">record_date </text>
<text text-anchor="start" x="154.0806" y="-143.9" font-family="Arial" font-size="14.00" fill="#666666">[datetime2]</text>
<polygon fill="none" stroke="#000000" points="68.5,-102.5 68.5,-132.5 432.5,-132.5 432.5,-102.5 68.5,-102.5"/>
<text text-anchor="start" x="75.5" y="-113.9" font-family="Arial" font-size="14.00" fill="#000000">delete_flag </text>
<text text-anchor="start" x="147.8632" y="-113.9" font-family="Arial" font-size="14.00" fill="#666666">[nvarchar(1)]</text>
<polygon fill="none" stroke="#000000" points="68.5,-72.5 68.5,-102.5 432.5,-102.5 432.5,-72.5 68.5,-72.5"/>
<text text-anchor="start" x="75.5" y="-83.9" font-family="Arial" font-size="14.00" fill="#000000">expected_days_record_counter </text>
<text text-anchor="start" x="275.4578" y="-83.9" font-family="Arial" font-size="14.00" fill="#666666">[int]</text>
<polygon fill="none" stroke="#000000" points="68.5,-42.5 68.5,-72.5 432.5,-72.5 432.5,-42.5 68.5,-42.5"/>
<text text-anchor="start" x="75.5" y="-53.9" font-family="Arial" font-size="14.00" fill="#000000">sales_record_counter </text>
<text text-anchor="start" x="213.9782" y="-53.9" font-family="Arial" font-size="14.00" fill="#666666">[int]</text>
</g>
<!-- sh_t_plans_production_costs_saved&#45;&gt;sh_t_order_department_details -->
<g id="edge1" class="edge">
<title>sh_t_plans_production_costs_saved:project_number&#45;&gt;sh_t_order_department_details:project_number</title>
<path fill="none" stroke="#000000" d="M463.6493,-1206.3574C571.2767,-1181.3445 532.0117,-753.1955 453.5,-667 395.6367,-603.4737 126.3633,-694.5263 68.5,-631 40.517,-600.2784 26.9444,-537.5 68.5,-537.5"/>
<polygon fill="#000000" stroke="#000000" points="463.4372,-1206.3812 452.9965,-1203.0282 458.4686,-1206.9406 453.5,-1207.5 453.5,-1207.5 453.5,-1207.5 458.4686,-1206.9406 454.0035,-1211.9718 463.4372,-1206.3812 463.4372,-1206.3812"/>
</g>
</g>
</svg>
