<?xml version="1.0" encoding="UTF-8" standalone="no"?>
<!DOCTYPE svg PUBLIC "-//W3C//DTD SVG 1.1//EN"
 "http://www.w3.org/Graphics/SVG/1.1/DTD/svg11.dtd">
<!-- Generated by graphviz version 2.40.1 (20161225.0304)
 -->
<!-- Title: sh_t_plans_production_costs_info Pages: 1 -->
<svg width="583pt" height="2009pt"
 viewBox="0.00 0.00 582.93 2009.00" xmlns="http://www.w3.org/2000/svg" xmlns:xlink="http://www.w3.org/1999/xlink">
<g id="graph0" class="graph" transform="scale(1 1) rotate(0) translate(4 2005)">
<title>sh_t_plans_production_costs_info</title>
<polygon fill="#ffffff" stroke="transparent" points="-4,4 -4,-2005 578.9331,-2005 578.9331,4 -4,4"/>
<!-- sh_t_plans_production_costs_info -->
<g id="node1" class="node">
<title>sh_t_plans_production_costs_info</title>
<polygon fill="#efefef" stroke="transparent" points="75.5,-1222.5 75.5,-1257.5 463.5,-1257.5 463.5,-1222.5 75.5,-1222.5"/>
<polygon fill="none" stroke="#000000" points="75.5,-1222.5 75.5,-1257.5 463.5,-1257.5 463.5,-1222.5 75.5,-1222.5"/>
<text text-anchor="start" x="82.4952" y="-1235.3" font-family="Arial Bold" font-size="18.00" fill="#000000">sh_t_plans_production_costs_info</text>
<text text-anchor="start" x="354.5904" y="-1235.3" font-family="Arial" font-size="14.00" fill="#000000"> </text>
<text text-anchor="start" x="358.481" y="-1235.3" font-family="Arial" font-size="14.00" fill="#666666">[BASIC TABLE]</text>
<polygon fill="none" stroke="#000000" points="75.5,-1192.5 75.5,-1222.5 463.5,-1222.5 463.5,-1192.5 75.5,-1192.5"/>
<text text-anchor="start" x="82.5" y="-1203.9" font-family="Arial" font-size="14.00" fill="#000000">project_number </text>
<text text-anchor="start" x="183.6304" y="-1203.9" font-family="Arial" font-size="14.00" fill="#666666">[nvarchar(255)]</text>
<polygon fill="none" stroke="#000000" points="75.5,-1162.5 75.5,-1192.5 463.5,-1192.5 463.5,-1162.5 75.5,-1162.5"/>
<text text-anchor="start" x="82.5" y="-1173.9" font-family="Arial" font-size="14.00" fill="#000000">order_number </text>
<text text-anchor="start" x="174.2938" y="-1173.9" font-family="Arial" font-size="14.00" fill="#666666">[nvarchar(255)]</text>
<polygon fill="none" stroke="#000000" points="75.5,-1132.5 75.5,-1162.5 463.5,-1162.5 463.5,-1132.5 75.5,-1132.5"/>
<text text-anchor="start" x="82.5" y="-1143.9" font-family="Arial" font-size="14.00" fill="#000000">detail_number </text>
<text text-anchor="start" x="175.0764" y="-1143.9" font-family="Arial" font-size="14.00" fill="#666666">[nvarchar(255)]</text>
<polygon fill="none" stroke="#000000" points="75.5,-1102.5 75.5,-1132.5 463.5,-1132.5 463.5,-1102.5 75.5,-1102.5"/>
<text text-anchor="start" x="82.5" y="-1113.9" font-family="Arial" font-size="14.00" fill="#000000">department_cd </text>
<text text-anchor="start" x="179.7538" y="-1113.9" font-family="Arial" font-size="14.00" fill="#666666">[nvarchar(100)]</text>
<polygon fill="none" stroke="#000000" points="75.5,-1072.5 75.5,-1102.5 463.5,-1102.5 463.5,-1072.5 75.5,-1072.5"/>
<text text-anchor="start" x="82.5" y="-1083.9" font-family="Arial" font-size="14.00" fill="#000000">order_amount </text>
<text text-anchor="start" x="173.5238" y="-1083.9" font-family="Arial" font-size="14.00" fill="#666666">[int]</text>
<polygon fill="none" stroke="#000000" points="75.5,-1042.5 75.5,-1072.5 463.5,-1072.5 463.5,-1042.5 75.5,-1042.5"/>
<text text-anchor="start" x="82.5" y="-1053.9" font-family="Arial" font-size="14.00" fill="#000000">expected_days_total </text>
<text text-anchor="start" x="214.7776" y="-1053.9" font-family="Arial" font-size="14.00" fill="#666666">[decimal]</text>
<polygon fill="none" stroke="#000000" points="75.5,-1012.5 75.5,-1042.5 463.5,-1042.5 463.5,-1012.5 75.5,-1012.5"/>
<text text-anchor="start" x="82.5" y="-1023.9" font-family="Arial" font-size="14.00" fill="#000000">plans_production_costs </text>
<text text-anchor="start" x="233.4368" y="-1023.9" font-family="Arial" font-size="14.00" fill="#666666">[decimal]</text>
<polygon fill="none" stroke="#000000" points="75.5,-982.5 75.5,-1012.5 463.5,-1012.5 463.5,-982.5 75.5,-982.5"/>
<text text-anchor="start" x="82.5" y="-993.9" font-family="Arial" font-size="14.00" fill="#000000">outsourcing_cost_flag </text>
<text text-anchor="start" x="222.5448" y="-993.9" font-family="Arial" font-size="14.00" fill="#666666">[nvarchar(1)]</text>
<polygon fill="none" stroke="#000000" points="75.5,-952.5 75.5,-982.5 463.5,-982.5 463.5,-952.5 75.5,-952.5"/>
<text text-anchor="start" x="82.5" y="-963.9" font-family="Arial" font-size="14.00" fill="#000000">plans_outsourcing_cost </text>
<text text-anchor="start" x="233.4368" y="-963.9" font-family="Arial" font-size="14.00" fill="#666666">[int]</text>
<polygon fill="none" stroke="#000000" points="75.5,-922.5 75.5,-952.5 463.5,-952.5 463.5,-922.5 75.5,-922.5"/>
<text text-anchor="start" x="82.5" y="-933.9" font-family="Arial" font-size="14.00" fill="#000000">plans_outsourcing_cost_sales </text>
<text text-anchor="start" x="273.8912" y="-933.9" font-family="Arial" font-size="14.00" fill="#666666">[int]</text>
<polygon fill="none" stroke="#000000" points="75.5,-892.5 75.5,-922.5 463.5,-922.5 463.5,-892.5 75.5,-892.5"/>
<text text-anchor="start" x="82.5" y="-903.9" font-family="Arial" font-size="14.00" fill="#000000">comment </text>
<text text-anchor="start" x="143.9502" y="-903.9" font-family="Arial" font-size="14.00" fill="#666666">[nvarchar(2000)]</text>
<polygon fill="none" stroke="#000000" points="75.5,-862.5 75.5,-892.5 463.5,-892.5 463.5,-862.5 75.5,-862.5"/>
<text text-anchor="start" x="82.5" y="-873.9" font-family="Arial" font-size="14.00" fill="#000000">create_user_cd </text>
<text text-anchor="start" x="182.8632" y="-873.9" font-family="Arial" font-size="14.00" fill="#666666">[nvarchar(10)]</text>
<polygon fill="none" stroke="#000000" points="75.5,-832.5 75.5,-862.5 463.5,-862.5 463.5,-832.5 75.5,-832.5"/>
<text text-anchor="start" x="82.5" y="-843.9" font-family="Arial" font-size="14.00" fill="#000000">create_date </text>
<text text-anchor="start" x="160.3106" y="-843.9" font-family="Arial" font-size="14.00" fill="#666666">[datetime2]</text>
<polygon fill="none" stroke="#000000" points="75.5,-802.5 75.5,-832.5 463.5,-832.5 463.5,-802.5 75.5,-802.5"/>
<text text-anchor="start" x="82.5" y="-813.9" font-family="Arial" font-size="14.00" fill="#000000">record_user_cd </text>
<text text-anchor="start" x="183.6332" y="-813.9" font-family="Arial" font-size="14.00" fill="#666666">[nvarchar(10)]</text>
<polygon fill="none" stroke="#000000" points="75.5,-772.5 75.5,-802.5 463.5,-802.5 463.5,-772.5 75.5,-772.5"/>
<text text-anchor="start" x="82.5" y="-783.9" font-family="Arial" font-size="14.00" fill="#000000">record_date </text>
<text text-anchor="start" x="161.0806" y="-783.9" font-family="Arial" font-size="14.00" fill="#666666">[datetime2]</text>
<polygon fill="none" stroke="#000000" points="75.5,-742.5 75.5,-772.5 463.5,-772.5 463.5,-742.5 75.5,-742.5"/>
<text text-anchor="start" x="82.5" y="-753.9" font-family="Arial" font-size="14.00" fill="#000000">divide_flag </text>
<text text-anchor="start" x="153.2966" y="-753.9" font-family="Arial" font-size="14.00" fill="#666666">[nvarchar(1)]</text>
<polygon fill="none" stroke="#000000" points="75.5,-712.5 75.5,-742.5 463.5,-742.5 463.5,-712.5 75.5,-712.5"/>
<text text-anchor="start" x="82.5" y="-723.9" font-family="Arial" font-size="14.00" fill="#000000">delete_flag </text>
<text text-anchor="start" x="154.8632" y="-723.9" font-family="Arial" font-size="14.00" fill="#666666">[nvarchar(1)]</text>
<polygon fill="none" stroke="#000000" stroke-width="3" points="74,-711.5 74,-1259.5 465,-1259.5 465,-711.5 74,-711.5"/>
</g>
<!-- sh_t_order_department_details -->
<g id="node2" class="node">
<title>sh_t_order_department_details</title>
<polygon fill="#efefef" stroke="transparent" points="87.5,-552.5 87.5,-587.5 451.5,-587.5 451.5,-552.5 87.5,-552.5"/>
<polygon fill="none" stroke="#000000" points="87.5,-552.5 87.5,-587.5 451.5,-587.5 451.5,-552.5 87.5,-552.5"/>
<text text-anchor="start" x="94.0071" y="-565.3" font-family="Arial Bold" font-size="18.00" fill="#000000">sh_t_order_department_details</text>
<text text-anchor="start" x="343.0785" y="-565.3" font-family="Arial" font-size="14.00" fill="#000000"> </text>
<text text-anchor="start" x="346.9691" y="-565.3" font-family="Arial" font-size="14.00" fill="#666666">[BASIC TABLE]</text>
<polygon fill="none" stroke="#000000" points="87.5,-522.5 87.5,-552.5 451.5,-552.5 451.5,-522.5 87.5,-522.5"/>
<text text-anchor="start" x="94.5" y="-533.9" font-family="Arial" font-size="14.00" fill="#000000">project_number </text>
<text text-anchor="start" x="195.6304" y="-533.9" font-family="Arial" font-size="14.00" fill="#666666">[nvarchar(255)]</text>
<polygon fill="none" stroke="#000000" points="87.5,-492.5 87.5,-522.5 451.5,-522.5 451.5,-492.5 87.5,-492.5"/>
<text text-anchor="start" x="94.5" y="-503.9" font-family="Arial" font-size="14.00" fill="#000000">order_number </text>
<text text-anchor="start" x="186.2938" y="-503.9" font-family="Arial" font-size="14.00" fill="#666666">[nvarchar(255)]</text>
<polygon fill="none" stroke="#000000" points="87.5,-462.5 87.5,-492.5 451.5,-492.5 451.5,-462.5 87.5,-462.5"/>
<text text-anchor="start" x="94.5" y="-473.9" font-family="Arial" font-size="14.00" fill="#000000">detail_number </text>
<text text-anchor="start" x="187.0764" y="-473.9" font-family="Arial" font-size="14.00" fill="#666666">[nvarchar(255)]</text>
<polygon fill="none" stroke="#000000" points="87.5,-432.5 87.5,-462.5 451.5,-462.5 451.5,-432.5 87.5,-432.5"/>
<text text-anchor="start" x="94.5" y="-443.9" font-family="Arial" font-size="14.00" fill="#000000">department_cd </text>
<text text-anchor="start" x="191.7538" y="-443.9" font-family="Arial" font-size="14.00" fill="#666666">[nvarchar(100)]</text>
<polygon fill="none" stroke="#000000" points="87.5,-402.5 87.5,-432.5 451.5,-432.5 451.5,-402.5 87.5,-402.5"/>
<text text-anchor="start" x="94.5" y="-413.9" font-family="Arial" font-size="14.00" fill="#000000">main_department_cd </text>
<text text-anchor="start" x="229.8688" y="-413.9" font-family="Arial" font-size="14.00" fill="#666666">[nvarchar(100)]</text>
<polygon fill="none" stroke="#000000" points="87.5,-372.5 87.5,-402.5 451.5,-402.5 451.5,-372.5 87.5,-372.5"/>
<text text-anchor="start" x="94.5" y="-383.9" font-family="Arial" font-size="14.00" fill="#000000">order_amount </text>
<text text-anchor="start" x="185.5238" y="-383.9" font-family="Arial" font-size="14.00" fill="#666666">[int]</text>
<polygon fill="none" stroke="#000000" points="87.5,-342.5 87.5,-372.5 451.5,-372.5 451.5,-342.5 87.5,-342.5"/>
<text text-anchor="start" x="94.5" y="-353.9" font-family="Arial" font-size="14.00" fill="#000000">sales_confirmed_amount </text>
<text text-anchor="start" x="254.758" y="-353.9" font-family="Arial" font-size="14.00" fill="#666666">[int]</text>
<polygon fill="none" stroke="#000000" points="87.5,-312.5 87.5,-342.5 451.5,-342.5 451.5,-312.5 87.5,-312.5"/>
<text text-anchor="start" x="94.5" y="-323.9" font-family="Arial" font-size="14.00" fill="#000000">progress_sales_status_cd </text>
<text text-anchor="start" x="260.9908" y="-323.9" font-family="Arial" font-size="14.00" fill="#666666">[nvarchar(2)]</text>
<polygon fill="none" stroke="#000000" points="87.5,-282.5 87.5,-312.5 451.5,-312.5 451.5,-282.5 87.5,-282.5"/>
<text text-anchor="start" x="94.5" y="-293.9" font-family="Arial" font-size="14.00" fill="#000000">progress_plans_status_cd </text>
<text text-anchor="start" x="261.7734" y="-293.9" font-family="Arial" font-size="14.00" fill="#666666">[nvarchar(2)]</text>
<polygon fill="none" stroke="#000000" points="87.5,-252.5 87.5,-282.5 451.5,-282.5 451.5,-252.5 87.5,-252.5"/>
<text text-anchor="start" x="94.5" y="-263.9" font-family="Arial" font-size="14.00" fill="#000000">charge_division_cd </text>
<text text-anchor="start" x="218.197" y="-263.9" font-family="Arial" font-size="14.00" fill="#666666">[nvarchar(2)]</text>
<polygon fill="none" stroke="#000000" points="87.5,-222.5 87.5,-252.5 451.5,-252.5 451.5,-222.5 87.5,-222.5"/>
<text text-anchor="start" x="94.5" y="-233.9" font-family="Arial" font-size="14.00" fill="#000000">create_user_cd </text>
<text text-anchor="start" x="194.8632" y="-233.9" font-family="Arial" font-size="14.00" fill="#666666">[nvarchar(10)]</text>
<polygon fill="none" stroke="#000000" points="87.5,-192.5 87.5,-222.5 451.5,-222.5 451.5,-192.5 87.5,-192.5"/>
<text text-anchor="start" x="94.5" y="-203.9" font-family="Arial" font-size="14.00" fill="#000000">create_date </text>
<text text-anchor="start" x="172.3106" y="-203.9" font-family="Arial" font-size="14.00" fill="#666666">[datetime2]</text>
<polygon fill="none" stroke="#000000" points="87.5,-162.5 87.5,-192.5 451.5,-192.5 451.5,-162.5 87.5,-162.5"/>
<text text-anchor="start" x="94.5" y="-173.9" font-family="Arial" font-size="14.00" fill="#000000">record_user_cd </text>
<text text-anchor="start" x="195.6332" y="-173.9" font-family="Arial" font-size="14.00" fill="#666666">[nvarchar(10)]</text>
<polygon fill="none" stroke="#000000" points="87.5,-132.5 87.5,-162.5 451.5,-162.5 451.5,-132.5 87.5,-132.5"/>
<text text-anchor="start" x="94.5" y="-143.9" font-family="Arial" font-size="14.00" fill="#000000">record_date </text>
<text text-anchor="start" x="173.0806" y="-143.9" font-family="Arial" font-size="14.00" fill="#666666">[datetime2]</text>
<polygon fill="none" stroke="#000000" points="87.5,-102.5 87.5,-132.5 451.5,-132.5 451.5,-102.5 87.5,-102.5"/>
<text text-anchor="start" x="94.5" y="-113.9" font-family="Arial" font-size="14.00" fill="#000000">delete_flag </text>
<text text-anchor="start" x="166.8632" y="-113.9" font-family="Arial" font-size="14.00" fill="#666666">[nvarchar(1)]</text>
<polygon fill="none" stroke="#000000" points="87.5,-72.5 87.5,-102.5 451.5,-102.5 451.5,-72.5 87.5,-72.5"/>
<text text-anchor="start" x="94.5" y="-83.9" font-family="Arial" font-size="14.00" fill="#000000">expected_days_record_counter </text>
<text text-anchor="start" x="294.4578" y="-83.9" font-family="Arial" font-size="14.00" fill="#666666">[int]</text>
<polygon fill="none" stroke="#000000" points="87.5,-42.5 87.5,-72.5 451.5,-72.5 451.5,-42.5 87.5,-42.5"/>
<text text-anchor="start" x="94.5" y="-53.9" font-family="Arial" font-size="14.00" fill="#000000">sales_record_counter </text>
<text text-anchor="start" x="232.9782" y="-53.9" font-family="Arial" font-size="14.00" fill="#666666">[int]</text>
</g>
<!-- sh_t_plans_production_costs_info&#45;&gt;sh_t_order_department_details -->
<g id="edge1" class="edge">
<title>sh_t_plans_production_costs_info:project_number&#45;&gt;sh_t_order_department_details:project_number</title>
<path fill="none" stroke="#000000" d="M473.7056,-1206.4131C611.7751,-1176.4618 596.9226,-537.5 451.5,-537.5"/>
<polygon fill="#000000" stroke="#000000" points="473.4438,-1206.4409 463.0234,-1203.0253 468.4719,-1206.9705 463.5,-1207.5 463.5,-1207.5 463.5,-1207.5 468.4719,-1206.9705 463.9766,-1211.9747 473.4438,-1206.4409 473.4438,-1206.4409"/>
</g>
<!-- sh_t_plans_production_costs_info_history -->
<g id="node3" class="node">
<title>sh_t_plans_production_costs_info_history</title>
<polygon fill="#efefef" stroke="transparent" points="43.5,-1922.5 43.5,-1957.5 494.5,-1957.5 494.5,-1922.5 43.5,-1922.5"/>
<polygon fill="none" stroke="#000000" points="43.5,-1922.5 43.5,-1957.5 494.5,-1957.5 494.5,-1922.5 43.5,-1922.5"/>
<text text-anchor="start" x="50.4916" y="-1935.3" font-family="Arial Bold" font-size="18.00" fill="#000000">sh_t_plans_production_costs_info_history</text>
<text text-anchor="start" x="385.594" y="-1935.3" font-family="Arial" font-size="14.00" fill="#000000"> </text>
<text text-anchor="start" x="389.4846" y="-1935.3" font-family="Arial" font-size="14.00" fill="#666666">[BASIC TABLE]</text>
<polygon fill="none" stroke="#000000" points="43.5,-1892.5 43.5,-1922.5 494.5,-1922.5 494.5,-1892.5 43.5,-1892.5"/>
<text text-anchor="start" x="50.5" y="-1903.9" font-family="Arial" font-size="14.00" fill="#000000">project_number </text>
<text text-anchor="start" x="151.6304" y="-1903.9" font-family="Arial" font-size="14.00" fill="#666666">[nvarchar(255)]</text>
<polygon fill="none" stroke="#000000" points="43.5,-1862.5 43.5,-1892.5 494.5,-1892.5 494.5,-1862.5 43.5,-1862.5"/>
<text text-anchor="start" x="50.5" y="-1873.9" font-family="Arial" font-size="14.00" fill="#000000">order_number </text>
<text text-anchor="start" x="142.2938" y="-1873.9" font-family="Arial" font-size="14.00" fill="#666666">[nvarchar(255)]</text>
<polygon fill="none" stroke="#000000" points="43.5,-1832.5 43.5,-1862.5 494.5,-1862.5 494.5,-1832.5 43.5,-1832.5"/>
<text text-anchor="start" x="50.5" y="-1843.9" font-family="Arial" font-size="14.00" fill="#000000">detail_number </text>
<text text-anchor="start" x="143.0764" y="-1843.9" font-family="Arial" font-size="14.00" fill="#666666">[nvarchar(255)]</text>
<polygon fill="none" stroke="#000000" points="43.5,-1802.5 43.5,-1832.5 494.5,-1832.5 494.5,-1802.5 43.5,-1802.5"/>
<text text-anchor="start" x="50.5" y="-1813.9" font-family="Arial" font-size="14.00" fill="#000000">department_cd </text>
<text text-anchor="start" x="147.7538" y="-1813.9" font-family="Arial" font-size="14.00" fill="#666666">[nvarchar(100)]</text>
<polygon fill="none" stroke="#000000" points="43.5,-1772.5 43.5,-1802.5 494.5,-1802.5 494.5,-1772.5 43.5,-1772.5"/>
<text text-anchor="start" x="50.5" y="-1783.9" font-family="Arial" font-size="14.00" fill="#000000">order_amount </text>
<text text-anchor="start" x="141.5238" y="-1783.9" font-family="Arial" font-size="14.00" fill="#666666">[int]</text>
<polygon fill="none" stroke="#000000" points="43.5,-1742.5 43.5,-1772.5 494.5,-1772.5 494.5,-1742.5 43.5,-1742.5"/>
<text text-anchor="start" x="50.5" y="-1753.9" font-family="Arial" font-size="14.00" fill="#000000">expected_days_total </text>
<text text-anchor="start" x="182.7776" y="-1753.9" font-family="Arial" font-size="14.00" fill="#666666">[decimal]</text>
<polygon fill="none" stroke="#000000" points="43.5,-1712.5 43.5,-1742.5 494.5,-1742.5 494.5,-1712.5 43.5,-1712.5"/>
<text text-anchor="start" x="50.5" y="-1723.9" font-family="Arial" font-size="14.00" fill="#000000">history_number </text>
<text text-anchor="start" x="150.8478" y="-1723.9" font-family="Arial" font-size="14.00" fill="#666666">[int]</text>
<polygon fill="none" stroke="#000000" points="43.5,-1682.5 43.5,-1712.5 494.5,-1712.5 494.5,-1682.5 43.5,-1682.5"/>
<text text-anchor="start" x="50.5" y="-1693.9" font-family="Arial" font-size="14.00" fill="#000000">plans_production_costs </text>
<text text-anchor="start" x="201.4368" y="-1693.9" font-family="Arial" font-size="14.00" fill="#666666">[decimal]</text>
<polygon fill="none" stroke="#000000" points="43.5,-1652.5 43.5,-1682.5 494.5,-1682.5 494.5,-1652.5 43.5,-1652.5"/>
<text text-anchor="start" x="50.5" y="-1663.9" font-family="Arial" font-size="14.00" fill="#000000">outsourcing_cost_flag </text>
<text text-anchor="start" x="190.5448" y="-1663.9" font-family="Arial" font-size="14.00" fill="#666666">[nvarchar(1)]</text>
<polygon fill="none" stroke="#000000" points="43.5,-1622.5 43.5,-1652.5 494.5,-1652.5 494.5,-1622.5 43.5,-1622.5"/>
<text text-anchor="start" x="50.5" y="-1633.9" font-family="Arial" font-size="14.00" fill="#000000">plans_outsourcing_cost </text>
<text text-anchor="start" x="201.4368" y="-1633.9" font-family="Arial" font-size="14.00" fill="#666666">[int]</text>
<polygon fill="none" stroke="#000000" points="43.5,-1592.5 43.5,-1622.5 494.5,-1622.5 494.5,-1592.5 43.5,-1592.5"/>
<text text-anchor="start" x="50.5" y="-1603.9" font-family="Arial" font-size="14.00" fill="#000000">plans_outsourcing_cost_sales </text>
<text text-anchor="start" x="241.8912" y="-1603.9" font-family="Arial" font-size="14.00" fill="#666666">[int]</text>
<polygon fill="none" stroke="#000000" points="43.5,-1562.5 43.5,-1592.5 494.5,-1592.5 494.5,-1562.5 43.5,-1562.5"/>
<text text-anchor="start" x="50.5" y="-1573.9" font-family="Arial" font-size="14.00" fill="#000000">comment </text>
<text text-anchor="start" x="111.9502" y="-1573.9" font-family="Arial" font-size="14.00" fill="#666666">[nvarchar(2000)]</text>
<polygon fill="none" stroke="#000000" points="43.5,-1532.5 43.5,-1562.5 494.5,-1562.5 494.5,-1532.5 43.5,-1532.5"/>
<text text-anchor="start" x="50.5" y="-1543.9" font-family="Arial" font-size="14.00" fill="#000000">create_user_cd </text>
<text text-anchor="start" x="150.8632" y="-1543.9" font-family="Arial" font-size="14.00" fill="#666666">[nvarchar(10)]</text>
<polygon fill="none" stroke="#000000" points="43.5,-1502.5 43.5,-1532.5 494.5,-1532.5 494.5,-1502.5 43.5,-1502.5"/>
<text text-anchor="start" x="50.5" y="-1513.9" font-family="Arial" font-size="14.00" fill="#000000">create_date </text>
<text text-anchor="start" x="128.3106" y="-1513.9" font-family="Arial" font-size="14.00" fill="#666666">[datetime2]</text>
<polygon fill="none" stroke="#000000" points="43.5,-1472.5 43.5,-1502.5 494.5,-1502.5 494.5,-1472.5 43.5,-1472.5"/>
<text text-anchor="start" x="50.5" y="-1483.9" font-family="Arial" font-size="14.00" fill="#000000">record_user_cd </text>
<text text-anchor="start" x="151.6332" y="-1483.9" font-family="Arial" font-size="14.00" fill="#666666">[nvarchar(10)]</text>
<polygon fill="none" stroke="#000000" points="43.5,-1442.5 43.5,-1472.5 494.5,-1472.5 494.5,-1442.5 43.5,-1442.5"/>
<text text-anchor="start" x="50.5" y="-1453.9" font-family="Arial" font-size="14.00" fill="#000000">record_date </text>
<text text-anchor="start" x="129.0806" y="-1453.9" font-family="Arial" font-size="14.00" fill="#666666">[datetime2]</text>
<polygon fill="none" stroke="#000000" points="43.5,-1412.5 43.5,-1442.5 494.5,-1442.5 494.5,-1412.5 43.5,-1412.5"/>
<text text-anchor="start" x="50.5" y="-1423.9" font-family="Arial" font-size="14.00" fill="#000000">divide_flag </text>
<text text-anchor="start" x="121.2966" y="-1423.9" font-family="Arial" font-size="14.00" fill="#666666">[nvarchar(1)]</text>
<polygon fill="none" stroke="#000000" points="43.5,-1382.5 43.5,-1412.5 494.5,-1412.5 494.5,-1382.5 43.5,-1382.5"/>
<text text-anchor="start" x="50.5" y="-1393.9" font-family="Arial" font-size="14.00" fill="#000000">delete_flag </text>
<text text-anchor="start" x="122.8632" y="-1393.9" font-family="Arial" font-size="14.00" fill="#666666">[nvarchar(1)]</text>
</g>
<!-- sh_t_plans_production_costs_info_history&#45;&gt;sh_t_plans_production_costs_info -->
<g id="edge2" class="edge">
<title>sh_t_plans_production_costs_info_history:project_number&#45;&gt;sh_t_plans_production_costs_info:project_number</title>
<path fill="none" stroke="#000000" d="M504.4731,-1906.453C618.3445,-1881.8314 577.4402,-1430.3719 494.5,-1340 431.3096,-1271.1476 138.6904,-1372.8524 75.5,-1304 46.5001,-1272.4016 32.6111,-1207.5 75.5,-1207.5"/>
<polygon fill="#000000" stroke="#000000" points="504.4453,-1906.4558 494.0301,-1903.0246 499.4727,-1906.9779 494.5,-1907.5 494.5,-1907.5 494.5,-1907.5 499.4727,-1906.9779 494.9699,-1911.9754 504.4453,-1906.4558 504.4453,-1906.4558"/>
</g>
</g>
</svg>
