<?xml version="1.0" encoding="UTF-8" standalone="no"?>
<!DOCTYPE svg PUBLIC "-//W3C//DTD SVG 1.1//EN"
 "http://www.w3.org/Graphics/SVG/1.1/DTD/svg11.dtd">
<!-- Generated by graphviz version 2.40.1 (20161225.0304)
 -->
<!-- Title: sh_t_progress_sales_info Pages: 1 -->
<svg width="492pt" height="2399pt"
 viewBox="0.00 0.00 491.59 2399.00" xmlns="http://www.w3.org/2000/svg" xmlns:xlink="http://www.w3.org/1999/xlink">
<g id="graph0" class="graph" transform="scale(1 1) rotate(0) translate(4 2395)">
<title>sh_t_progress_sales_info</title>
<polygon fill="#ffffff" stroke="transparent" points="-4,4 -4,-2395 487.5889,-2395 487.5889,4 -4,4"/>
<!-- sh_t_progress_sales_info -->
<g id="node1" class="node">
<title>sh_t_progress_sales_info</title>
<polygon fill="#efefef" stroke="transparent" points="75.5,-1372.5 75.5,-1407.5 395.5,-1407.5 395.5,-1372.5 75.5,-1372.5"/>
<polygon fill="none" stroke="#000000" points="75.5,-1372.5 75.5,-1407.5 395.5,-1407.5 395.5,-1372.5 75.5,-1372.5"/>
<text text-anchor="start" x="82.0139" y="-1385.3" font-family="Arial Bold" font-size="18.00" fill="#000000">sh_t_progress_sales_info</text>
<text text-anchor="start" x="287.0717" y="-1385.3" font-family="Arial" font-size="14.00" fill="#000000"> </text>
<text text-anchor="start" x="290.9623" y="-1385.3" font-family="Arial" font-size="14.00" fill="#666666">[BASIC TABLE]</text>
<polygon fill="none" stroke="#000000" points="75.5,-1342.5 75.5,-1372.5 395.5,-1372.5 395.5,-1342.5 75.5,-1342.5"/>
<text text-anchor="start" x="82.5" y="-1353.9" font-family="Arial" font-size="14.00" fill="#000000">project_number </text>
<text text-anchor="start" x="183.6304" y="-1353.9" font-family="Arial" font-size="14.00" fill="#666666">[nvarchar(255)]</text>
<polygon fill="none" stroke="#000000" points="75.5,-1312.5 75.5,-1342.5 395.5,-1342.5 395.5,-1312.5 75.5,-1312.5"/>
<text text-anchor="start" x="82.5" y="-1323.9" font-family="Arial" font-size="14.00" fill="#000000">order_number </text>
<text text-anchor="start" x="174.2938" y="-1323.9" font-family="Arial" font-size="14.00" fill="#666666">[nvarchar(255)]</text>
<polygon fill="none" stroke="#000000" points="75.5,-1282.5 75.5,-1312.5 395.5,-1312.5 395.5,-1282.5 75.5,-1282.5"/>
<text text-anchor="start" x="82.5" y="-1293.9" font-family="Arial" font-size="14.00" fill="#000000">detail_number </text>
<text text-anchor="start" x="175.0764" y="-1293.9" font-family="Arial" font-size="14.00" fill="#666666">[nvarchar(255)]</text>
<polygon fill="none" stroke="#000000" points="75.5,-1252.5 75.5,-1282.5 395.5,-1282.5 395.5,-1252.5 75.5,-1252.5"/>
<text text-anchor="start" x="82.5" y="-1263.9" font-family="Arial" font-size="14.00" fill="#000000">department_cd </text>
<text text-anchor="start" x="179.7538" y="-1263.9" font-family="Arial" font-size="14.00" fill="#666666">[nvarchar(100)]</text>
<polygon fill="none" stroke="#000000" points="75.5,-1222.5 75.5,-1252.5 395.5,-1252.5 395.5,-1222.5 75.5,-1222.5"/>
<text text-anchor="start" x="82.5" y="-1233.9" font-family="Arial" font-size="14.00" fill="#000000">main_department_cd </text>
<text text-anchor="start" x="217.8688" y="-1233.9" font-family="Arial" font-size="14.00" fill="#666666">[nvarchar(100)]</text>
<polygon fill="none" stroke="#000000" points="75.5,-1192.5 75.5,-1222.5 395.5,-1222.5 395.5,-1192.5 75.5,-1192.5"/>
<text text-anchor="start" x="82.5" y="-1203.9" font-family="Arial" font-size="14.00" fill="#000000">year </text>
<text text-anchor="start" x="113.6164" y="-1203.9" font-family="Arial" font-size="14.00" fill="#666666">[int]</text>
<polygon fill="none" stroke="#000000" points="75.5,-1162.5 75.5,-1192.5 395.5,-1192.5 395.5,-1162.5 75.5,-1162.5"/>
<text text-anchor="start" x="82.5" y="-1173.9" font-family="Arial" font-size="14.00" fill="#000000">month </text>
<text text-anchor="start" x="125.2896" y="-1173.9" font-family="Arial" font-size="14.00" fill="#666666">[int]</text>
<polygon fill="none" stroke="#000000" points="75.5,-1132.5 75.5,-1162.5 395.5,-1162.5 395.5,-1132.5 75.5,-1132.5"/>
<text text-anchor="start" x="82.5" y="-1143.9" font-family="Arial" font-size="14.00" fill="#000000">overall_progress </text>
<text text-anchor="start" x="189.8464" y="-1143.9" font-family="Arial" font-size="14.00" fill="#666666">[decimal]</text>
<polygon fill="none" stroke="#000000" points="75.5,-1102.5 75.5,-1132.5 395.5,-1132.5 395.5,-1102.5 75.5,-1102.5"/>
<text text-anchor="start" x="82.5" y="-1113.9" font-family="Arial" font-size="14.00" fill="#000000">progress_manhour </text>
<text text-anchor="start" x="203.859" y="-1113.9" font-family="Arial" font-size="14.00" fill="#666666">[decimal]</text>
<polygon fill="none" stroke="#000000" points="75.5,-1072.5 75.5,-1102.5 395.5,-1102.5 395.5,-1072.5 75.5,-1072.5"/>
<text text-anchor="start" x="82.5" y="-1083.9" font-family="Arial" font-size="14.00" fill="#000000">progress_cost_outsourcing </text>
<text text-anchor="start" x="254.434" y="-1083.9" font-family="Arial" font-size="14.00" fill="#666666">[decimal]</text>
<polygon fill="none" stroke="#000000" points="75.5,-1042.5 75.5,-1072.5 395.5,-1072.5 395.5,-1042.5 75.5,-1042.5"/>
<text text-anchor="start" x="82.5" y="-1053.9" font-family="Arial" font-size="14.00" fill="#000000">sales_adjusted_change_flag </text>
<text text-anchor="start" x="263.7958" y="-1053.9" font-family="Arial" font-size="14.00" fill="#666666">[nvarchar(1)]</text>
<polygon fill="none" stroke="#000000" points="75.5,-1012.5 75.5,-1042.5 395.5,-1042.5 395.5,-1012.5 75.5,-1012.5"/>
<text text-anchor="start" x="82.5" y="-1023.9" font-family="Arial" font-size="14.00" fill="#000000">sales_adjusted_value </text>
<text text-anchor="start" x="220.9922" y="-1023.9" font-family="Arial" font-size="14.00" fill="#666666">[int]</text>
<polygon fill="none" stroke="#000000" points="75.5,-982.5 75.5,-1012.5 395.5,-1012.5 395.5,-982.5 75.5,-982.5"/>
<text text-anchor="start" x="82.5" y="-993.9" font-family="Arial" font-size="14.00" fill="#000000">progress_sales_theory </text>
<text text-anchor="start" x="227.9782" y="-993.9" font-family="Arial" font-size="14.00" fill="#666666">[int]</text>
<polygon fill="none" stroke="#000000" points="75.5,-952.5 75.5,-982.5 395.5,-982.5 395.5,-952.5 75.5,-952.5"/>
<text text-anchor="start" x="82.5" y="-963.9" font-family="Arial" font-size="14.00" fill="#000000">progress_sales_report </text>
<text text-anchor="start" x="225.6388" y="-963.9" font-family="Arial" font-size="14.00" fill="#666666">[int]</text>
<polygon fill="none" stroke="#000000" points="75.5,-922.5 75.5,-952.5 395.5,-952.5 395.5,-922.5 75.5,-922.5"/>
<text text-anchor="start" x="82.5" y="-933.9" font-family="Arial" font-size="14.00" fill="#000000">sales_confirmed_amount </text>
<text text-anchor="start" x="242.758" y="-933.9" font-family="Arial" font-size="14.00" fill="#666666">[int]</text>
<polygon fill="none" stroke="#000000" points="75.5,-892.5 75.5,-922.5 395.5,-922.5 395.5,-892.5 75.5,-892.5"/>
<text text-anchor="start" x="82.5" y="-903.9" font-family="Arial" font-size="14.00" fill="#000000">end_flag </text>
<text text-anchor="start" x="140.0834" y="-903.9" font-family="Arial" font-size="14.00" fill="#666666">[nvarchar(1)]</text>
<polygon fill="none" stroke="#000000" points="75.5,-862.5 75.5,-892.5 395.5,-892.5 395.5,-862.5 75.5,-862.5"/>
<text text-anchor="start" x="82.5" y="-873.9" font-family="Arial" font-size="14.00" fill="#000000">comment </text>
<text text-anchor="start" x="143.9502" y="-873.9" font-family="Arial" font-size="14.00" fill="#666666">[nvarchar(2000)]</text>
<polygon fill="none" stroke="#000000" points="75.5,-832.5 75.5,-862.5 395.5,-862.5 395.5,-832.5 75.5,-832.5"/>
<text text-anchor="start" x="82.5" y="-843.9" font-family="Arial" font-size="14.00" fill="#000000">order_status_cd </text>
<text text-anchor="start" x="186.7538" y="-843.9" font-family="Arial" font-size="14.00" fill="#666666">[nvarchar(10)]</text>
<polygon fill="none" stroke="#000000" points="75.5,-802.5 75.5,-832.5 395.5,-832.5 395.5,-802.5 75.5,-802.5"/>
<text text-anchor="start" x="82.5" y="-813.9" font-family="Arial" font-size="14.00" fill="#000000">order_status_name </text>
<text text-anchor="start" x="206.9796" y="-813.9" font-family="Arial" font-size="14.00" fill="#666666">[nvarchar(10)]</text>
<polygon fill="none" stroke="#000000" points="75.5,-772.5 75.5,-802.5 395.5,-802.5 395.5,-772.5 75.5,-772.5"/>
<text text-anchor="start" x="82.5" y="-783.9" font-family="Arial" font-size="14.00" fill="#000000">create_user_cd </text>
<text text-anchor="start" x="182.8632" y="-783.9" font-family="Arial" font-size="14.00" fill="#666666">[nvarchar(10)]</text>
<polygon fill="none" stroke="#000000" points="75.5,-742.5 75.5,-772.5 395.5,-772.5 395.5,-742.5 75.5,-742.5"/>
<text text-anchor="start" x="82.5" y="-753.9" font-family="Arial" font-size="14.00" fill="#000000">create_date </text>
<text text-anchor="start" x="160.3106" y="-753.9" font-family="Arial" font-size="14.00" fill="#666666">[datetime2]</text>
<polygon fill="none" stroke="#000000" points="75.5,-712.5 75.5,-742.5 395.5,-742.5 395.5,-712.5 75.5,-712.5"/>
<text text-anchor="start" x="82.5" y="-723.9" font-family="Arial" font-size="14.00" fill="#000000">record_user_cd </text>
<text text-anchor="start" x="183.6332" y="-723.9" font-family="Arial" font-size="14.00" fill="#666666">[nvarchar(10)]</text>
<polygon fill="none" stroke="#000000" points="75.5,-682.5 75.5,-712.5 395.5,-712.5 395.5,-682.5 75.5,-682.5"/>
<text text-anchor="start" x="82.5" y="-693.9" font-family="Arial" font-size="14.00" fill="#000000">record_date </text>
<text text-anchor="start" x="161.0806" y="-693.9" font-family="Arial" font-size="14.00" fill="#666666">[datetime2]</text>
<polygon fill="none" stroke="#000000" points="75.5,-652.5 75.5,-682.5 395.5,-682.5 395.5,-652.5 75.5,-652.5"/>
<text text-anchor="start" x="82.5" y="-663.9" font-family="Arial" font-size="14.00" fill="#000000">delete_flag </text>
<text text-anchor="start" x="154.8632" y="-663.9" font-family="Arial" font-size="14.00" fill="#666666">[nvarchar(1)]</text>
<polygon fill="none" stroke="#000000" stroke-width="3" points="74,-651.5 74,-1409.5 397,-1409.5 397,-651.5 74,-651.5"/>
</g>
<!-- sh_t_order_department_details -->
<g id="node2" class="node">
<title>sh_t_order_department_details</title>
<polygon fill="#efefef" stroke="transparent" points="53.5,-492.5 53.5,-527.5 417.5,-527.5 417.5,-492.5 53.5,-492.5"/>
<polygon fill="none" stroke="#000000" points="53.5,-492.5 53.5,-527.5 417.5,-527.5 417.5,-492.5 53.5,-492.5"/>
<text text-anchor="start" x="60.0071" y="-505.3" font-family="Arial Bold" font-size="18.00" fill="#000000">sh_t_order_department_details</text>
<text text-anchor="start" x="309.0785" y="-505.3" font-family="Arial" font-size="14.00" fill="#000000"> </text>
<text text-anchor="start" x="312.9691" y="-505.3" font-family="Arial" font-size="14.00" fill="#666666">[BASIC TABLE]</text>
<polygon fill="none" stroke="#000000" points="53.5,-462.5 53.5,-492.5 417.5,-492.5 417.5,-462.5 53.5,-462.5"/>
<text text-anchor="start" x="60.5" y="-473.9" font-family="Arial" font-size="14.00" fill="#000000">project_number </text>
<text text-anchor="start" x="161.6304" y="-473.9" font-family="Arial" font-size="14.00" fill="#666666">[nvarchar(255)]</text>
<polygon fill="none" stroke="#000000" points="53.5,-432.5 53.5,-462.5 417.5,-462.5 417.5,-432.5 53.5,-432.5"/>
<text text-anchor="start" x="60.5" y="-443.9" font-family="Arial" font-size="14.00" fill="#000000">order_number </text>
<text text-anchor="start" x="152.2938" y="-443.9" font-family="Arial" font-size="14.00" fill="#666666">[nvarchar(255)]</text>
<polygon fill="none" stroke="#000000" points="53.5,-402.5 53.5,-432.5 417.5,-432.5 417.5,-402.5 53.5,-402.5"/>
<text text-anchor="start" x="60.5" y="-413.9" font-family="Arial" font-size="14.00" fill="#000000">detail_number </text>
<text text-anchor="start" x="153.0764" y="-413.9" font-family="Arial" font-size="14.00" fill="#666666">[nvarchar(255)]</text>
<polygon fill="none" stroke="#000000" points="53.5,-372.5 53.5,-402.5 417.5,-402.5 417.5,-372.5 53.5,-372.5"/>
<text text-anchor="start" x="60.5" y="-383.9" font-family="Arial" font-size="14.00" fill="#000000">department_cd </text>
<text text-anchor="start" x="157.7538" y="-383.9" font-family="Arial" font-size="14.00" fill="#666666">[nvarchar(100)]</text>
<polygon fill="none" stroke="#000000" points="53.5,-342.5 53.5,-372.5 417.5,-372.5 417.5,-342.5 53.5,-342.5"/>
<text text-anchor="start" x="60.5" y="-353.9" font-family="Arial" font-size="14.00" fill="#000000">main_department_cd </text>
<text text-anchor="start" x="195.8688" y="-353.9" font-family="Arial" font-size="14.00" fill="#666666">[nvarchar(100)]</text>
<polygon fill="none" stroke="#000000" points="53.5,-312.5 53.5,-342.5 417.5,-342.5 417.5,-312.5 53.5,-312.5"/>
<text text-anchor="start" x="60.5" y="-323.9" font-family="Arial" font-size="14.00" fill="#000000">order_amount </text>
<text text-anchor="start" x="151.5238" y="-323.9" font-family="Arial" font-size="14.00" fill="#666666">[int]</text>
<polygon fill="none" stroke="#000000" points="53.5,-282.5 53.5,-312.5 417.5,-312.5 417.5,-282.5 53.5,-282.5"/>
<text text-anchor="start" x="60.5" y="-293.9" font-family="Arial" font-size="14.00" fill="#000000">sales_confirmed_amount </text>
<text text-anchor="start" x="220.758" y="-293.9" font-family="Arial" font-size="14.00" fill="#666666">[int]</text>
<polygon fill="none" stroke="#000000" points="53.5,-252.5 53.5,-282.5 417.5,-282.5 417.5,-252.5 53.5,-252.5"/>
<text text-anchor="start" x="60.5" y="-263.9" font-family="Arial" font-size="14.00" fill="#000000">progress_sales_status_cd </text>
<text text-anchor="start" x="226.9908" y="-263.9" font-family="Arial" font-size="14.00" fill="#666666">[nvarchar(2)]</text>
<polygon fill="none" stroke="#000000" points="53.5,-222.5 53.5,-252.5 417.5,-252.5 417.5,-222.5 53.5,-222.5"/>
<text text-anchor="start" x="60.5" y="-233.9" font-family="Arial" font-size="14.00" fill="#000000">progress_plans_status_cd </text>
<text text-anchor="start" x="227.7734" y="-233.9" font-family="Arial" font-size="14.00" fill="#666666">[nvarchar(2)]</text>
<polygon fill="none" stroke="#000000" points="53.5,-192.5 53.5,-222.5 417.5,-222.5 417.5,-192.5 53.5,-192.5"/>
<text text-anchor="start" x="60.5" y="-203.9" font-family="Arial" font-size="14.00" fill="#000000">charge_division_cd </text>
<text text-anchor="start" x="184.197" y="-203.9" font-family="Arial" font-size="14.00" fill="#666666">[nvarchar(2)]</text>
<polygon fill="none" stroke="#000000" points="53.5,-162.5 53.5,-192.5 417.5,-192.5 417.5,-162.5 53.5,-162.5"/>
<text text-anchor="start" x="60.5" y="-173.9" font-family="Arial" font-size="14.00" fill="#000000">create_user_cd </text>
<text text-anchor="start" x="160.8632" y="-173.9" font-family="Arial" font-size="14.00" fill="#666666">[nvarchar(10)]</text>
<polygon fill="none" stroke="#000000" points="53.5,-132.5 53.5,-162.5 417.5,-162.5 417.5,-132.5 53.5,-132.5"/>
<text text-anchor="start" x="60.5" y="-143.9" font-family="Arial" font-size="14.00" fill="#000000">create_date </text>
<text text-anchor="start" x="138.3106" y="-143.9" font-family="Arial" font-size="14.00" fill="#666666">[datetime2]</text>
<polygon fill="none" stroke="#000000" points="53.5,-102.5 53.5,-132.5 417.5,-132.5 417.5,-102.5 53.5,-102.5"/>
<text text-anchor="start" x="60.5" y="-113.9" font-family="Arial" font-size="14.00" fill="#000000">record_user_cd </text>
<text text-anchor="start" x="161.6332" y="-113.9" font-family="Arial" font-size="14.00" fill="#666666">[nvarchar(10)]</text>
<polygon fill="none" stroke="#000000" points="53.5,-72.5 53.5,-102.5 417.5,-102.5 417.5,-72.5 53.5,-72.5"/>
<text text-anchor="start" x="60.5" y="-83.9" font-family="Arial" font-size="14.00" fill="#000000">record_date </text>
<text text-anchor="start" x="139.0806" y="-83.9" font-family="Arial" font-size="14.00" fill="#666666">[datetime2]</text>
<polygon fill="none" stroke="#000000" points="53.5,-42.5 53.5,-72.5 417.5,-72.5 417.5,-42.5 53.5,-42.5"/>
<text text-anchor="start" x="60.5" y="-53.9" font-family="Arial" font-size="14.00" fill="#000000">delete_flag </text>
<text text-anchor="start" x="132.8632" y="-53.9" font-family="Arial" font-size="14.00" fill="#666666">[nvarchar(1)]</text>
</g>
<!-- sh_t_progress_sales_info&#45;&gt;sh_t_order_department_details -->
<g id="edge1" class="edge">
<title>sh_t_progress_sales_info:project_number&#45;&gt;sh_t_order_department_details:project_number</title>
<path fill="none" stroke="#000000" d="M405.2617,-1354.4861C494.6723,-1298.3718 511.9653,-477.5 417.5,-477.5"/>
<polygon fill="#000000" stroke="#000000" points="405.055,-1354.5499 394.1724,-1353.2003 400.2775,-1356.0249 395.5,-1357.5 395.5,-1357.5 395.5,-1357.5 400.2775,-1356.0249 396.8276,-1361.7997 405.055,-1354.5499 405.055,-1354.5499"/>
</g>
<!-- sh_t_progress_sales_info_history -->
<g id="node3" class="node">
<title>sh_t_progress_sales_info_history</title>
<polygon fill="#efefef" stroke="transparent" points="43.5,-2312.5 43.5,-2347.5 426.5,-2347.5 426.5,-2312.5 43.5,-2312.5"/>
<polygon fill="none" stroke="#000000" points="43.5,-2312.5 43.5,-2347.5 426.5,-2347.5 426.5,-2312.5 43.5,-2312.5"/>
<text text-anchor="start" x="50.0103" y="-2325.3" font-family="Arial Bold" font-size="18.00" fill="#000000">sh_t_progress_sales_info_history</text>
<text text-anchor="start" x="318.0753" y="-2325.3" font-family="Arial" font-size="14.00" fill="#000000"> </text>
<text text-anchor="start" x="321.9659" y="-2325.3" font-family="Arial" font-size="14.00" fill="#666666">[BASIC TABLE]</text>
<polygon fill="none" stroke="#000000" points="43.5,-2282.5 43.5,-2312.5 426.5,-2312.5 426.5,-2282.5 43.5,-2282.5"/>
<text text-anchor="start" x="50.5" y="-2293.9" font-family="Arial" font-size="14.00" fill="#000000">project_number </text>
<text text-anchor="start" x="151.6304" y="-2293.9" font-family="Arial" font-size="14.00" fill="#666666">[nvarchar(255)]</text>
<polygon fill="none" stroke="#000000" points="43.5,-2252.5 43.5,-2282.5 426.5,-2282.5 426.5,-2252.5 43.5,-2252.5"/>
<text text-anchor="start" x="50.5" y="-2263.9" font-family="Arial" font-size="14.00" fill="#000000">order_number </text>
<text text-anchor="start" x="142.2938" y="-2263.9" font-family="Arial" font-size="14.00" fill="#666666">[nvarchar(255)]</text>
<polygon fill="none" stroke="#000000" points="43.5,-2222.5 43.5,-2252.5 426.5,-2252.5 426.5,-2222.5 43.5,-2222.5"/>
<text text-anchor="start" x="50.5" y="-2233.9" font-family="Arial" font-size="14.00" fill="#000000">detail_number </text>
<text text-anchor="start" x="143.0764" y="-2233.9" font-family="Arial" font-size="14.00" fill="#666666">[nvarchar(255)]</text>
<polygon fill="none" stroke="#000000" points="43.5,-2192.5 43.5,-2222.5 426.5,-2222.5 426.5,-2192.5 43.5,-2192.5"/>
<text text-anchor="start" x="50.5" y="-2203.9" font-family="Arial" font-size="14.00" fill="#000000">department_cd </text>
<text text-anchor="start" x="147.7538" y="-2203.9" font-family="Arial" font-size="14.00" fill="#666666">[nvarchar(100)]</text>
<polygon fill="none" stroke="#000000" points="43.5,-2162.5 43.5,-2192.5 426.5,-2192.5 426.5,-2162.5 43.5,-2162.5"/>
<text text-anchor="start" x="50.5" y="-2173.9" font-family="Arial" font-size="14.00" fill="#000000">history_number </text>
<text text-anchor="start" x="150.8478" y="-2173.9" font-family="Arial" font-size="14.00" fill="#666666">[int]</text>
<polygon fill="none" stroke="#000000" points="43.5,-2132.5 43.5,-2162.5 426.5,-2162.5 426.5,-2132.5 43.5,-2132.5"/>
<text text-anchor="start" x="50.5" y="-2143.9" font-family="Arial" font-size="14.00" fill="#000000">main_department_cd </text>
<text text-anchor="start" x="185.8688" y="-2143.9" font-family="Arial" font-size="14.00" fill="#666666">[nvarchar(100)]</text>
<polygon fill="none" stroke="#000000" points="43.5,-2102.5 43.5,-2132.5 426.5,-2132.5 426.5,-2102.5 43.5,-2102.5"/>
<text text-anchor="start" x="50.5" y="-2113.9" font-family="Arial" font-size="14.00" fill="#000000">year </text>
<text text-anchor="start" x="81.6164" y="-2113.9" font-family="Arial" font-size="14.00" fill="#666666">[int]</text>
<polygon fill="none" stroke="#000000" points="43.5,-2072.5 43.5,-2102.5 426.5,-2102.5 426.5,-2072.5 43.5,-2072.5"/>
<text text-anchor="start" x="50.5" y="-2083.9" font-family="Arial" font-size="14.00" fill="#000000">month </text>
<text text-anchor="start" x="93.2896" y="-2083.9" font-family="Arial" font-size="14.00" fill="#666666">[int]</text>
<polygon fill="none" stroke="#000000" points="43.5,-2042.5 43.5,-2072.5 426.5,-2072.5 426.5,-2042.5 43.5,-2042.5"/>
<text text-anchor="start" x="50.5" y="-2053.9" font-family="Arial" font-size="14.00" fill="#000000">progress_sales_status_cd </text>
<text text-anchor="start" x="216.9908" y="-2053.9" font-family="Arial" font-size="14.00" fill="#666666">[nvarchar(2)]</text>
<polygon fill="none" stroke="#000000" points="43.5,-2012.5 43.5,-2042.5 426.5,-2042.5 426.5,-2012.5 43.5,-2012.5"/>
<text text-anchor="start" x="50.5" y="-2023.9" font-family="Arial" font-size="14.00" fill="#000000">overall_progress </text>
<text text-anchor="start" x="157.8464" y="-2023.9" font-family="Arial" font-size="14.00" fill="#666666">[decimal]</text>
<polygon fill="none" stroke="#000000" points="43.5,-1982.5 43.5,-2012.5 426.5,-2012.5 426.5,-1982.5 43.5,-1982.5"/>
<text text-anchor="start" x="50.5" y="-1993.9" font-family="Arial" font-size="14.00" fill="#000000">progress_manhour </text>
<text text-anchor="start" x="171.859" y="-1993.9" font-family="Arial" font-size="14.00" fill="#666666">[decimal]</text>
<polygon fill="none" stroke="#000000" points="43.5,-1952.5 43.5,-1982.5 426.5,-1982.5 426.5,-1952.5 43.5,-1952.5"/>
<text text-anchor="start" x="50.5" y="-1963.9" font-family="Arial" font-size="14.00" fill="#000000">progress_cost_outsourcing </text>
<text text-anchor="start" x="222.434" y="-1963.9" font-family="Arial" font-size="14.00" fill="#666666">[decimal]</text>
<polygon fill="none" stroke="#000000" points="43.5,-1922.5 43.5,-1952.5 426.5,-1952.5 426.5,-1922.5 43.5,-1922.5"/>
<text text-anchor="start" x="50.5" y="-1933.9" font-family="Arial" font-size="14.00" fill="#000000">sales_adjusted_change_flag </text>
<text text-anchor="start" x="231.7958" y="-1933.9" font-family="Arial" font-size="14.00" fill="#666666">[nvarchar(1)]</text>
<polygon fill="none" stroke="#000000" points="43.5,-1892.5 43.5,-1922.5 426.5,-1922.5 426.5,-1892.5 43.5,-1892.5"/>
<text text-anchor="start" x="50.5" y="-1903.9" font-family="Arial" font-size="14.00" fill="#000000">sales_adjusted_value </text>
<text text-anchor="start" x="188.9922" y="-1903.9" font-family="Arial" font-size="14.00" fill="#666666">[int]</text>
<polygon fill="none" stroke="#000000" points="43.5,-1862.5 43.5,-1892.5 426.5,-1892.5 426.5,-1862.5 43.5,-1862.5"/>
<text text-anchor="start" x="50.5" y="-1873.9" font-family="Arial" font-size="14.00" fill="#000000">progress_sales_theory </text>
<text text-anchor="start" x="195.9782" y="-1873.9" font-family="Arial" font-size="14.00" fill="#666666">[int]</text>
<polygon fill="none" stroke="#000000" points="43.5,-1832.5 43.5,-1862.5 426.5,-1862.5 426.5,-1832.5 43.5,-1832.5"/>
<text text-anchor="start" x="50.5" y="-1843.9" font-family="Arial" font-size="14.00" fill="#000000">progress_sales_report </text>
<text text-anchor="start" x="193.6388" y="-1843.9" font-family="Arial" font-size="14.00" fill="#666666">[int]</text>
<polygon fill="none" stroke="#000000" points="43.5,-1802.5 43.5,-1832.5 426.5,-1832.5 426.5,-1802.5 43.5,-1802.5"/>
<text text-anchor="start" x="50.5" y="-1813.9" font-family="Arial" font-size="14.00" fill="#000000">sales_confirmed_amount </text>
<text text-anchor="start" x="210.758" y="-1813.9" font-family="Arial" font-size="14.00" fill="#666666">[int]</text>
<polygon fill="none" stroke="#000000" points="43.5,-1772.5 43.5,-1802.5 426.5,-1802.5 426.5,-1772.5 43.5,-1772.5"/>
<text text-anchor="start" x="50.5" y="-1783.9" font-family="Arial" font-size="14.00" fill="#000000">end_flag </text>
<text text-anchor="start" x="108.0834" y="-1783.9" font-family="Arial" font-size="14.00" fill="#666666">[nvarchar(1)]</text>
<polygon fill="none" stroke="#000000" points="43.5,-1742.5 43.5,-1772.5 426.5,-1772.5 426.5,-1742.5 43.5,-1742.5"/>
<text text-anchor="start" x="50.5" y="-1753.9" font-family="Arial" font-size="14.00" fill="#000000">comment </text>
<text text-anchor="start" x="111.9502" y="-1753.9" font-family="Arial" font-size="14.00" fill="#666666">[nvarchar(2000)]</text>
<polygon fill="none" stroke="#000000" points="43.5,-1712.5 43.5,-1742.5 426.5,-1742.5 426.5,-1712.5 43.5,-1712.5"/>
<text text-anchor="start" x="50.5" y="-1723.9" font-family="Arial" font-size="14.00" fill="#000000">order_status_cd </text>
<text text-anchor="start" x="154.7538" y="-1723.9" font-family="Arial" font-size="14.00" fill="#666666">[nvarchar(10)]</text>
<polygon fill="none" stroke="#000000" points="43.5,-1682.5 43.5,-1712.5 426.5,-1712.5 426.5,-1682.5 43.5,-1682.5"/>
<text text-anchor="start" x="50.5" y="-1693.9" font-family="Arial" font-size="14.00" fill="#000000">order_status_name </text>
<text text-anchor="start" x="174.9796" y="-1693.9" font-family="Arial" font-size="14.00" fill="#666666">[nvarchar(10)]</text>
<polygon fill="none" stroke="#000000" points="43.5,-1652.5 43.5,-1682.5 426.5,-1682.5 426.5,-1652.5 43.5,-1652.5"/>
<text text-anchor="start" x="50.5" y="-1663.9" font-family="Arial" font-size="14.00" fill="#000000">create_user_cd </text>
<text text-anchor="start" x="150.8632" y="-1663.9" font-family="Arial" font-size="14.00" fill="#666666">[nvarchar(10)]</text>
<polygon fill="none" stroke="#000000" points="43.5,-1622.5 43.5,-1652.5 426.5,-1652.5 426.5,-1622.5 43.5,-1622.5"/>
<text text-anchor="start" x="50.5" y="-1633.9" font-family="Arial" font-size="14.00" fill="#000000">create_date </text>
<text text-anchor="start" x="128.3106" y="-1633.9" font-family="Arial" font-size="14.00" fill="#666666">[datetime2]</text>
<polygon fill="none" stroke="#000000" points="43.5,-1592.5 43.5,-1622.5 426.5,-1622.5 426.5,-1592.5 43.5,-1592.5"/>
<text text-anchor="start" x="50.5" y="-1603.9" font-family="Arial" font-size="14.00" fill="#000000">record_user_cd </text>
<text text-anchor="start" x="151.6332" y="-1603.9" font-family="Arial" font-size="14.00" fill="#666666">[nvarchar(10)]</text>
<polygon fill="none" stroke="#000000" points="43.5,-1562.5 43.5,-1592.5 426.5,-1592.5 426.5,-1562.5 43.5,-1562.5"/>
<text text-anchor="start" x="50.5" y="-1573.9" font-family="Arial" font-size="14.00" fill="#000000">record_date </text>
<text text-anchor="start" x="129.0806" y="-1573.9" font-family="Arial" font-size="14.00" fill="#666666">[datetime2]</text>
<polygon fill="none" stroke="#000000" points="43.5,-1532.5 43.5,-1562.5 426.5,-1562.5 426.5,-1532.5 43.5,-1532.5"/>
<text text-anchor="start" x="50.5" y="-1543.9" font-family="Arial" font-size="14.00" fill="#000000">delete_flag </text>
<text text-anchor="start" x="122.8632" y="-1543.9" font-family="Arial" font-size="14.00" fill="#666666">[nvarchar(1)]</text>
</g>
<!-- sh_t_progress_sales_info_history&#45;&gt;sh_t_progress_sales_info -->
<g id="edge2" class="edge">
<title>sh_t_progress_sales_info_history:project_number&#45;&gt;sh_t_progress_sales_info:project_number</title>
<path fill="none" stroke="#000000" d="M436.4734,-2294.1928C513.863,-2240.6462 484.2712,-1553.9995 426.5,-1490 373.9608,-1431.7966 128.0392,-1512.2034 75.5,-1454 46.7617,-1422.1634 32.6111,-1357.5 75.5,-1357.5"/>
<polygon fill="#000000" stroke="#000000" points="435.9918,-2294.3524 425.0836,-2293.2287 431.2459,-2295.9262 426.5,-2297.5 426.5,-2297.5 426.5,-2297.5 431.2459,-2295.9262 427.9164,-2301.7713 435.9918,-2294.3524 435.9918,-2294.3524"/>
</g>
</g>
</svg>
