<?xml version="1.0" encoding="UTF-8" standalone="no"?>
<!DOCTYPE svg PUBLIC "-//W3C//DTD SVG 1.1//EN"
 "http://www.w3.org/Graphics/SVG/1.1/DTD/svg11.dtd">
<!-- Generated by graphviz version 2.40.1 (20161225.0304)
 -->
<!-- Title: sh_t_actual_production_costs_info Pages: 1 -->
<svg width="503pt" height="1162pt"
 viewBox="0.00 0.00 502.80 1162.00" xmlns="http://www.w3.org/2000/svg" xmlns:xlink="http://www.w3.org/1999/xlink">
<g id="graph0" class="graph" transform="scale(1 1) rotate(0) translate(4 1158)">
<title>sh_t_actual_production_costs_info</title>
<polygon fill="#ffffff" stroke="transparent" points="-4,4 -4,-1158 498.7959,-1158 498.7959,4 -4,4"/>
<!-- sh_t_actual_production_costs_info -->
<g id="node1" class="node">
<title>sh_t_actual_production_costs_info</title>
<polygon fill="#efefef" stroke="transparent" points="46.5,-1072.5 46.5,-1107.5 439.5,-1107.5 439.5,-1072.5 46.5,-1072.5"/>
<polygon fill="none" stroke="#000000" points="46.5,-1072.5 46.5,-1107.5 439.5,-1107.5 439.5,-1072.5 46.5,-1072.5"/>
<text text-anchor="start" x="53.4941" y="-1085.3" font-family="Arial Bold" font-size="18.00" fill="#000000">sh_t_actual_production_costs_info</text>
<text text-anchor="start" x="330.5915" y="-1085.3" font-family="Arial" font-size="14.00" fill="#000000"> </text>
<text text-anchor="start" x="334.4821" y="-1085.3" font-family="Arial" font-size="14.00" fill="#666666">[BASIC TABLE]</text>
<polygon fill="none" stroke="#000000" points="46.5,-1042.5 46.5,-1072.5 439.5,-1072.5 439.5,-1042.5 46.5,-1042.5"/>
<text text-anchor="start" x="53.5" y="-1053.9" font-family="Arial" font-size="14.00" fill="#000000">project_number </text>
<text text-anchor="start" x="154.6304" y="-1053.9" font-family="Arial" font-size="14.00" fill="#666666">[nvarchar(255)]</text>
<polygon fill="none" stroke="#000000" points="46.5,-1012.5 46.5,-1042.5 439.5,-1042.5 439.5,-1012.5 46.5,-1012.5"/>
<text text-anchor="start" x="53.5" y="-1023.9" font-family="Arial" font-size="14.00" fill="#000000">order_number </text>
<text text-anchor="start" x="145.2938" y="-1023.9" font-family="Arial" font-size="14.00" fill="#666666">[nvarchar(255)]</text>
<polygon fill="none" stroke="#000000" points="46.5,-982.5 46.5,-1012.5 439.5,-1012.5 439.5,-982.5 46.5,-982.5"/>
<text text-anchor="start" x="53.5" y="-993.9" font-family="Arial" font-size="14.00" fill="#000000">detail_number </text>
<text text-anchor="start" x="146.0764" y="-993.9" font-family="Arial" font-size="14.00" fill="#666666">[nvarchar(255)]</text>
<polygon fill="none" stroke="#000000" points="46.5,-952.5 46.5,-982.5 439.5,-982.5 439.5,-952.5 46.5,-952.5"/>
<text text-anchor="start" x="53.5" y="-963.9" font-family="Arial" font-size="14.00" fill="#000000">department_cd </text>
<text text-anchor="start" x="150.7538" y="-963.9" font-family="Arial" font-size="14.00" fill="#666666">[nvarchar(100)]</text>
<polygon fill="none" stroke="#000000" points="46.5,-922.5 46.5,-952.5 439.5,-952.5 439.5,-922.5 46.5,-922.5"/>
<text text-anchor="start" x="53.5" y="-933.9" font-family="Arial" font-size="14.00" fill="#000000">year </text>
<text text-anchor="start" x="84.6164" y="-933.9" font-family="Arial" font-size="14.00" fill="#666666">[int]</text>
<polygon fill="none" stroke="#000000" points="46.5,-892.5 46.5,-922.5 439.5,-922.5 439.5,-892.5 46.5,-892.5"/>
<text text-anchor="start" x="53.5" y="-903.9" font-family="Arial" font-size="14.00" fill="#000000">month </text>
<text text-anchor="start" x="96.2896" y="-903.9" font-family="Arial" font-size="14.00" fill="#666666">[int]</text>
<polygon fill="none" stroke="#000000" points="46.5,-862.5 46.5,-892.5 439.5,-892.5 439.5,-862.5 46.5,-862.5"/>
<text text-anchor="start" x="53.5" y="-873.9" font-family="Arial" font-size="14.00" fill="#000000">actual_production_costs </text>
<text text-anchor="start" x="208.3274" y="-873.9" font-family="Arial" font-size="14.00" fill="#666666">[decimal]</text>
<polygon fill="none" stroke="#000000" points="46.5,-832.5 46.5,-862.5 439.5,-862.5 439.5,-832.5 46.5,-832.5"/>
<text text-anchor="start" x="53.5" y="-843.9" font-family="Arial" font-size="14.00" fill="#000000">create_user_cd </text>
<text text-anchor="start" x="153.8632" y="-843.9" font-family="Arial" font-size="14.00" fill="#666666">[nvarchar(10)]</text>
<polygon fill="none" stroke="#000000" points="46.5,-802.5 46.5,-832.5 439.5,-832.5 439.5,-802.5 46.5,-802.5"/>
<text text-anchor="start" x="53.5" y="-813.9" font-family="Arial" font-size="14.00" fill="#000000">create_date </text>
<text text-anchor="start" x="131.3106" y="-813.9" font-family="Arial" font-size="14.00" fill="#666666">[datetime2]</text>
<polygon fill="none" stroke="#000000" points="46.5,-772.5 46.5,-802.5 439.5,-802.5 439.5,-772.5 46.5,-772.5"/>
<text text-anchor="start" x="53.5" y="-783.9" font-family="Arial" font-size="14.00" fill="#000000">record_user_cd </text>
<text text-anchor="start" x="154.6332" y="-783.9" font-family="Arial" font-size="14.00" fill="#666666">[nvarchar(10)]</text>
<polygon fill="none" stroke="#000000" points="46.5,-742.5 46.5,-772.5 439.5,-772.5 439.5,-742.5 46.5,-742.5"/>
<text text-anchor="start" x="53.5" y="-753.9" font-family="Arial" font-size="14.00" fill="#000000">record_date </text>
<text text-anchor="start" x="132.0806" y="-753.9" font-family="Arial" font-size="14.00" fill="#666666">[datetime2]</text>
<polygon fill="none" stroke="#000000" points="46.5,-712.5 46.5,-742.5 439.5,-742.5 439.5,-712.5 46.5,-712.5"/>
<text text-anchor="start" x="53.5" y="-723.9" font-family="Arial" font-size="14.00" fill="#000000">delete_flag </text>
<text text-anchor="start" x="125.8632" y="-723.9" font-family="Arial" font-size="14.00" fill="#666666">[nvarchar(1)]</text>
<polygon fill="none" stroke="#000000" stroke-width="3" points="44.5,-711.5 44.5,-1109.5 440.5,-1109.5 440.5,-711.5 44.5,-711.5"/>
</g>
<!-- sh_t_order_department_details -->
<g id="node2" class="node">
<title>sh_t_order_department_details</title>
<polygon fill="#efefef" stroke="transparent" points="61.5,-552.5 61.5,-587.5 425.5,-587.5 425.5,-552.5 61.5,-552.5"/>
<polygon fill="none" stroke="#000000" points="61.5,-552.5 61.5,-587.5 425.5,-587.5 425.5,-552.5 61.5,-552.5"/>
<text text-anchor="start" x="68.0071" y="-565.3" font-family="Arial Bold" font-size="18.00" fill="#000000">sh_t_order_department_details</text>
<text text-anchor="start" x="317.0785" y="-565.3" font-family="Arial" font-size="14.00" fill="#000000"> </text>
<text text-anchor="start" x="320.9691" y="-565.3" font-family="Arial" font-size="14.00" fill="#666666">[BASIC TABLE]</text>
<polygon fill="none" stroke="#000000" points="61.5,-522.5 61.5,-552.5 425.5,-552.5 425.5,-522.5 61.5,-522.5"/>
<text text-anchor="start" x="68.5" y="-533.9" font-family="Arial" font-size="14.00" fill="#000000">project_number </text>
<text text-anchor="start" x="169.6304" y="-533.9" font-family="Arial" font-size="14.00" fill="#666666">[nvarchar(255)]</text>
<polygon fill="none" stroke="#000000" points="61.5,-492.5 61.5,-522.5 425.5,-522.5 425.5,-492.5 61.5,-492.5"/>
<text text-anchor="start" x="68.5" y="-503.9" font-family="Arial" font-size="14.00" fill="#000000">order_number </text>
<text text-anchor="start" x="160.2938" y="-503.9" font-family="Arial" font-size="14.00" fill="#666666">[nvarchar(255)]</text>
<polygon fill="none" stroke="#000000" points="61.5,-462.5 61.5,-492.5 425.5,-492.5 425.5,-462.5 61.5,-462.5"/>
<text text-anchor="start" x="68.5" y="-473.9" font-family="Arial" font-size="14.00" fill="#000000">detail_number </text>
<text text-anchor="start" x="161.0764" y="-473.9" font-family="Arial" font-size="14.00" fill="#666666">[nvarchar(255)]</text>
<polygon fill="none" stroke="#000000" points="61.5,-432.5 61.5,-462.5 425.5,-462.5 425.5,-432.5 61.5,-432.5"/>
<text text-anchor="start" x="68.5" y="-443.9" font-family="Arial" font-size="14.00" fill="#000000">department_cd </text>
<text text-anchor="start" x="165.7538" y="-443.9" font-family="Arial" font-size="14.00" fill="#666666">[nvarchar(100)]</text>
<polygon fill="none" stroke="#000000" points="61.5,-402.5 61.5,-432.5 425.5,-432.5 425.5,-402.5 61.5,-402.5"/>
<text text-anchor="start" x="68.5" y="-413.9" font-family="Arial" font-size="14.00" fill="#000000">main_department_cd </text>
<text text-anchor="start" x="203.8688" y="-413.9" font-family="Arial" font-size="14.00" fill="#666666">[nvarchar(100)]</text>
<polygon fill="none" stroke="#000000" points="61.5,-372.5 61.5,-402.5 425.5,-402.5 425.5,-372.5 61.5,-372.5"/>
<text text-anchor="start" x="68.5" y="-383.9" font-family="Arial" font-size="14.00" fill="#000000">order_amount </text>
<text text-anchor="start" x="159.5238" y="-383.9" font-family="Arial" font-size="14.00" fill="#666666">[int]</text>
<polygon fill="none" stroke="#000000" points="61.5,-342.5 61.5,-372.5 425.5,-372.5 425.5,-342.5 61.5,-342.5"/>
<text text-anchor="start" x="68.5" y="-353.9" font-family="Arial" font-size="14.00" fill="#000000">sales_confirmed_amount </text>
<text text-anchor="start" x="228.758" y="-353.9" font-family="Arial" font-size="14.00" fill="#666666">[int]</text>
<polygon fill="none" stroke="#000000" points="61.5,-312.5 61.5,-342.5 425.5,-342.5 425.5,-312.5 61.5,-312.5"/>
<text text-anchor="start" x="68.5" y="-323.9" font-family="Arial" font-size="14.00" fill="#000000">progress_sales_status_cd </text>
<text text-anchor="start" x="234.9908" y="-323.9" font-family="Arial" font-size="14.00" fill="#666666">[nvarchar(2)]</text>
<polygon fill="none" stroke="#000000" points="61.5,-282.5 61.5,-312.5 425.5,-312.5 425.5,-282.5 61.5,-282.5"/>
<text text-anchor="start" x="68.5" y="-293.9" font-family="Arial" font-size="14.00" fill="#000000">progress_plans_status_cd </text>
<text text-anchor="start" x="235.7734" y="-293.9" font-family="Arial" font-size="14.00" fill="#666666">[nvarchar(2)]</text>
<polygon fill="none" stroke="#000000" points="61.5,-252.5 61.5,-282.5 425.5,-282.5 425.5,-252.5 61.5,-252.5"/>
<text text-anchor="start" x="68.5" y="-263.9" font-family="Arial" font-size="14.00" fill="#000000">charge_division_cd </text>
<text text-anchor="start" x="192.197" y="-263.9" font-family="Arial" font-size="14.00" fill="#666666">[nvarchar(2)]</text>
<polygon fill="none" stroke="#000000" points="61.5,-222.5 61.5,-252.5 425.5,-252.5 425.5,-222.5 61.5,-222.5"/>
<text text-anchor="start" x="68.5" y="-233.9" font-family="Arial" font-size="14.00" fill="#000000">create_user_cd </text>
<text text-anchor="start" x="168.8632" y="-233.9" font-family="Arial" font-size="14.00" fill="#666666">[nvarchar(10)]</text>
<polygon fill="none" stroke="#000000" points="61.5,-192.5 61.5,-222.5 425.5,-222.5 425.5,-192.5 61.5,-192.5"/>
<text text-anchor="start" x="68.5" y="-203.9" font-family="Arial" font-size="14.00" fill="#000000">create_date </text>
<text text-anchor="start" x="146.3106" y="-203.9" font-family="Arial" font-size="14.00" fill="#666666">[datetime2]</text>
<polygon fill="none" stroke="#000000" points="61.5,-162.5 61.5,-192.5 425.5,-192.5 425.5,-162.5 61.5,-162.5"/>
<text text-anchor="start" x="68.5" y="-173.9" font-family="Arial" font-size="14.00" fill="#000000">record_user_cd </text>
<text text-anchor="start" x="169.6332" y="-173.9" font-family="Arial" font-size="14.00" fill="#666666">[nvarchar(10)]</text>
<polygon fill="none" stroke="#000000" points="61.5,-132.5 61.5,-162.5 425.5,-162.5 425.5,-132.5 61.5,-132.5"/>
<text text-anchor="start" x="68.5" y="-143.9" font-family="Arial" font-size="14.00" fill="#000000">record_date </text>
<text text-anchor="start" x="147.0806" y="-143.9" font-family="Arial" font-size="14.00" fill="#666666">[datetime2]</text>
<polygon fill="none" stroke="#000000" points="61.5,-102.5 61.5,-132.5 425.5,-132.5 425.5,-102.5 61.5,-102.5"/>
<text text-anchor="start" x="68.5" y="-113.9" font-family="Arial" font-size="14.00" fill="#000000">delete_flag </text>
<text text-anchor="start" x="140.8632" y="-113.9" font-family="Arial" font-size="14.00" fill="#666666">[nvarchar(1)]</text>
<polygon fill="none" stroke="#000000" points="61.5,-72.5 61.5,-102.5 425.5,-102.5 425.5,-72.5 61.5,-72.5"/>
<text text-anchor="start" x="68.5" y="-83.9" font-family="Arial" font-size="14.00" fill="#000000">expected_days_record_counter </text>
<text text-anchor="start" x="268.4578" y="-83.9" font-family="Arial" font-size="14.00" fill="#666666">[int]</text>
<polygon fill="none" stroke="#000000" points="61.5,-42.5 61.5,-72.5 425.5,-72.5 425.5,-42.5 61.5,-42.5"/>
<text text-anchor="start" x="68.5" y="-53.9" font-family="Arial" font-size="14.00" fill="#000000">sales_record_counter </text>
<text text-anchor="start" x="206.9782" y="-53.9" font-family="Arial" font-size="14.00" fill="#666666">[int]</text>
</g>
<!-- sh_t_actual_production_costs_info&#45;&gt;sh_t_order_department_details -->
<g id="edge1" class="edge">
<title>sh_t_actual_production_costs_info:project_number&#45;&gt;sh_t_order_department_details:project_number</title>
<path fill="none" stroke="#000000" d="M449.6023,-1055.8938C523.8978,-1031.1745 495.4854,-728.5707 439.5,-667 382.7331,-604.5699 118.2669,-693.4301 61.5,-631 33.5434,-600.2544 19.9444,-537.5 61.5,-537.5"/>
<polygon fill="#000000" stroke="#000000" points="449.376,-1055.9297 438.7934,-1053.0558 444.438,-1056.7149 439.5,-1057.5 439.5,-1057.5 439.5,-1057.5 444.438,-1056.7149 440.2066,-1061.9442 449.376,-1055.9297 449.376,-1055.9297"/>
</g>
</g>
</svg>
