<?xml version="1.0" encoding="UTF-8" standalone="no"?>
<!DOCTYPE svg PUBLIC "-//W3C//DTD SVG 1.1//EN"
 "http://www.w3.org/Graphics/SVG/1.1/DTD/svg11.dtd">
<!-- Generated by graphviz version 2.40.1 (20161225.0304)
 -->
<!-- Title: sh_t_actual_production_costs_info Pages: 1 -->
<svg width="508pt" height="1162pt"
 viewBox="0.00 0.00 507.98 1162.00" xmlns="http://www.w3.org/2000/svg" xmlns:xlink="http://www.w3.org/1999/xlink">
<g id="graph0" class="graph" transform="scale(1 1) rotate(0) translate(4 1158)">
<title>sh_t_actual_production_costs_info</title>
<polygon fill="#ffffff" stroke="transparent" points="-4,4 -4,-1158 503.981,-1158 503.981,4 -4,4"/>
<!-- sh_t_actual_production_costs_info -->
<g id="node1" class="node">
<title>sh_t_actual_production_costs_info</title>
<polygon fill="#efefef" stroke="transparent" points="61.481,-1072.5 61.481,-1107.5 454.481,-1107.5 454.481,-1072.5 61.481,-1072.5"/>
<polygon fill="none" stroke="#000000" points="61.481,-1072.5 61.481,-1107.5 454.481,-1107.5 454.481,-1072.5 61.481,-1072.5"/>
<text text-anchor="start" x="68.4751" y="-1085.3" font-family="Arial Bold" font-size="18.00" fill="#000000">sh_t_actual_production_costs_info</text>
<text text-anchor="start" x="345.5725" y="-1085.3" font-family="Arial" font-size="14.00" fill="#000000"> </text>
<text text-anchor="start" x="349.4631" y="-1085.3" font-family="Arial" font-size="14.00" fill="#666666">[BASIC TABLE]</text>
<polygon fill="none" stroke="#000000" points="61.481,-1042.5 61.481,-1072.5 454.481,-1072.5 454.481,-1042.5 61.481,-1042.5"/>
<text text-anchor="start" x="68.481" y="-1053.9" font-family="Arial" font-size="14.00" fill="#000000">project_number </text>
<text text-anchor="start" x="169.6114" y="-1053.9" font-family="Arial" font-size="14.00" fill="#666666">[nvarchar(255)]</text>
<polygon fill="none" stroke="#000000" points="61.481,-1012.5 61.481,-1042.5 454.481,-1042.5 454.481,-1012.5 61.481,-1012.5"/>
<text text-anchor="start" x="68.481" y="-1023.9" font-family="Arial" font-size="14.00" fill="#000000">order_number </text>
<text text-anchor="start" x="160.2748" y="-1023.9" font-family="Arial" font-size="14.00" fill="#666666">[nvarchar(255)]</text>
<polygon fill="none" stroke="#000000" points="61.481,-982.5 61.481,-1012.5 454.481,-1012.5 454.481,-982.5 61.481,-982.5"/>
<text text-anchor="start" x="68.481" y="-993.9" font-family="Arial" font-size="14.00" fill="#000000">detail_number </text>
<text text-anchor="start" x="161.0574" y="-993.9" font-family="Arial" font-size="14.00" fill="#666666">[nvarchar(255)]</text>
<polygon fill="none" stroke="#000000" points="61.481,-952.5 61.481,-982.5 454.481,-982.5 454.481,-952.5 61.481,-952.5"/>
<text text-anchor="start" x="68.481" y="-963.9" font-family="Arial" font-size="14.00" fill="#000000">department_cd </text>
<text text-anchor="start" x="165.7348" y="-963.9" font-family="Arial" font-size="14.00" fill="#666666">[nvarchar(255)]</text>
<polygon fill="none" stroke="#000000" points="61.481,-922.5 61.481,-952.5 454.481,-952.5 454.481,-922.5 61.481,-922.5"/>
<text text-anchor="start" x="68.481" y="-933.9" font-family="Arial" font-size="14.00" fill="#000000">year </text>
<text text-anchor="start" x="99.5974" y="-933.9" font-family="Arial" font-size="14.00" fill="#666666">[int]</text>
<polygon fill="none" stroke="#000000" points="61.481,-892.5 61.481,-922.5 454.481,-922.5 454.481,-892.5 61.481,-892.5"/>
<text text-anchor="start" x="68.481" y="-903.9" font-family="Arial" font-size="14.00" fill="#000000">month </text>
<text text-anchor="start" x="111.2706" y="-903.9" font-family="Arial" font-size="14.00" fill="#666666">[int]</text>
<polygon fill="none" stroke="#000000" points="61.481,-862.5 61.481,-892.5 454.481,-892.5 454.481,-862.5 61.481,-862.5"/>
<text text-anchor="start" x="68.481" y="-873.9" font-family="Arial" font-size="14.00" fill="#000000">actual_production_costs </text>
<text text-anchor="start" x="223.3084" y="-873.9" font-family="Arial" font-size="14.00" fill="#666666">[decimal]</text>
<polygon fill="none" stroke="#000000" points="61.481,-832.5 61.481,-862.5 454.481,-862.5 454.481,-832.5 61.481,-832.5"/>
<text text-anchor="start" x="68.481" y="-843.9" font-family="Arial" font-size="14.00" fill="#000000">create_user_cd </text>
<text text-anchor="start" x="168.8442" y="-843.9" font-family="Arial" font-size="14.00" fill="#666666">[nvarchar(10)]</text>
<polygon fill="none" stroke="#000000" points="61.481,-802.5 61.481,-832.5 454.481,-832.5 454.481,-802.5 61.481,-802.5"/>
<text text-anchor="start" x="68.481" y="-813.9" font-family="Arial" font-size="14.00" fill="#000000">create_date </text>
<text text-anchor="start" x="146.2916" y="-813.9" font-family="Arial" font-size="14.00" fill="#666666">[datetime2]</text>
<polygon fill="none" stroke="#000000" points="61.481,-772.5 61.481,-802.5 454.481,-802.5 454.481,-772.5 61.481,-772.5"/>
<text text-anchor="start" x="68.481" y="-783.9" font-family="Arial" font-size="14.00" fill="#000000">record_user_cd </text>
<text text-anchor="start" x="169.6142" y="-783.9" font-family="Arial" font-size="14.00" fill="#666666">[nvarchar(10)]</text>
<polygon fill="none" stroke="#000000" points="61.481,-742.5 61.481,-772.5 454.481,-772.5 454.481,-742.5 61.481,-742.5"/>
<text text-anchor="start" x="68.481" y="-753.9" font-family="Arial" font-size="14.00" fill="#000000">record_date </text>
<text text-anchor="start" x="147.0616" y="-753.9" font-family="Arial" font-size="14.00" fill="#666666">[datetime2]</text>
<polygon fill="none" stroke="#000000" points="61.481,-712.5 61.481,-742.5 454.481,-742.5 454.481,-712.5 61.481,-712.5"/>
<text text-anchor="start" x="68.481" y="-723.9" font-family="Arial" font-size="14.00" fill="#000000">delete_flag </text>
<text text-anchor="start" x="140.8442" y="-723.9" font-family="Arial" font-size="14.00" fill="#666666">[nvarchar(1)]</text>
<polygon fill="none" stroke="#000000" stroke-width="3" points="59.481,-711.5 59.481,-1109.5 455.481,-1109.5 455.481,-711.5 59.481,-711.5"/>
</g>
<!-- sh_t_order_details -->
<g id="node2" class="node">
<title>sh_t_order_details</title>
<polygon fill="#efefef" stroke="transparent" points="126.481,-552.5 126.481,-587.5 389.481,-587.5 389.481,-552.5 126.481,-552.5"/>
<polygon fill="none" stroke="#000000" points="126.481,-552.5 126.481,-587.5 389.481,-587.5 389.481,-552.5 126.481,-552.5"/>
<text text-anchor="start" x="133.0042" y="-565.3" font-family="Arial Bold" font-size="18.00" fill="#000000">sh_t_order_details</text>
<text text-anchor="start" x="281.0434" y="-565.3" font-family="Arial" font-size="14.00" fill="#000000"> </text>
<text text-anchor="start" x="284.934" y="-565.3" font-family="Arial" font-size="14.00" fill="#666666">[BASIC TABLE]</text>
<polygon fill="none" stroke="#000000" points="126.481,-522.5 126.481,-552.5 389.481,-552.5 389.481,-522.5 126.481,-522.5"/>
<text text-anchor="start" x="133.481" y="-533.9" font-family="Arial" font-size="14.00" fill="#000000">project_number </text>
<text text-anchor="start" x="234.6114" y="-533.9" font-family="Arial" font-size="14.00" fill="#666666">[nvarchar(255)]</text>
<polygon fill="none" stroke="#000000" points="126.481,-492.5 126.481,-522.5 389.481,-522.5 389.481,-492.5 126.481,-492.5"/>
<text text-anchor="start" x="133.481" y="-503.9" font-family="Arial" font-size="14.00" fill="#000000">order_number </text>
<text text-anchor="start" x="225.2748" y="-503.9" font-family="Arial" font-size="14.00" fill="#666666">[nvarchar(255)]</text>
<polygon fill="none" stroke="#000000" points="126.481,-462.5 126.481,-492.5 389.481,-492.5 389.481,-462.5 126.481,-462.5"/>
<text text-anchor="start" x="133.481" y="-473.9" font-family="Arial" font-size="14.00" fill="#000000">detail_number </text>
<text text-anchor="start" x="226.0574" y="-473.9" font-family="Arial" font-size="14.00" fill="#666666">[nvarchar(255)]</text>
<polygon fill="none" stroke="#000000" points="126.481,-432.5 126.481,-462.5 389.481,-462.5 389.481,-432.5 126.481,-432.5"/>
<text text-anchor="start" x="133.481" y="-443.9" font-family="Arial" font-size="14.00" fill="#000000">department_cd </text>
<text text-anchor="start" x="230.7348" y="-443.9" font-family="Arial" font-size="14.00" fill="#666666">[nvarchar(255)]</text>
<polygon fill="none" stroke="#000000" points="126.481,-402.5 126.481,-432.5 389.481,-432.5 389.481,-402.5 126.481,-402.5"/>
<text text-anchor="start" x="133.481" y="-413.9" font-family="Arial" font-size="14.00" fill="#000000">main_department_cd </text>
<text text-anchor="start" x="268.8498" y="-413.9" font-family="Arial" font-size="14.00" fill="#666666">[nvarchar(100)]</text>
<polygon fill="none" stroke="#000000" points="126.481,-372.5 126.481,-402.5 389.481,-402.5 389.481,-372.5 126.481,-372.5"/>
<text text-anchor="start" x="133.481" y="-383.9" font-family="Arial" font-size="14.00" fill="#000000">details </text>
<text text-anchor="start" x="177.8232" y="-383.9" font-family="Arial" font-size="14.00" fill="#666666">[nvarchar(1000)]</text>
<polygon fill="none" stroke="#000000" points="126.481,-342.5 126.481,-372.5 389.481,-372.5 389.481,-342.5 126.481,-342.5"/>
<text text-anchor="start" x="133.481" y="-353.9" font-family="Arial" font-size="14.00" fill="#000000">order_amount </text>
<text text-anchor="start" x="224.5048" y="-353.9" font-family="Arial" font-size="14.00" fill="#666666">[decimal]</text>
<polygon fill="none" stroke="#000000" points="126.481,-312.5 126.481,-342.5 389.481,-342.5 389.481,-312.5 126.481,-312.5"/>
<text text-anchor="start" x="133.481" y="-323.9" font-family="Arial" font-size="14.00" fill="#000000">sales_confirmed_amount </text>
<text text-anchor="start" x="293.739" y="-323.9" font-family="Arial" font-size="14.00" fill="#666666">[numeric]</text>
<polygon fill="none" stroke="#000000" points="126.481,-282.5 126.481,-312.5 389.481,-312.5 389.481,-282.5 126.481,-282.5"/>
<text text-anchor="start" x="133.481" y="-293.9" font-family="Arial" font-size="14.00" fill="#000000">progress_cost_flag </text>
<text text-anchor="start" x="255.624" y="-293.9" font-family="Arial" font-size="14.00" fill="#666666">[nvarchar(1)]</text>
<polygon fill="none" stroke="#000000" points="126.481,-252.5 126.481,-282.5 389.481,-282.5 389.481,-252.5 126.481,-252.5"/>
<text text-anchor="start" x="133.481" y="-263.9" font-family="Arial" font-size="14.00" fill="#000000">progress_sales_status_cd </text>
<text text-anchor="start" x="299.9718" y="-263.9" font-family="Arial" font-size="14.00" fill="#666666">[nvarchar(2)]</text>
<polygon fill="none" stroke="#000000" points="126.481,-222.5 126.481,-252.5 389.481,-252.5 389.481,-222.5 126.481,-222.5"/>
<text text-anchor="start" x="133.481" y="-233.9" font-family="Arial" font-size="14.00" fill="#000000">progress_plans_status_cd </text>
<text text-anchor="start" x="300.7544" y="-233.9" font-family="Arial" font-size="14.00" fill="#666666">[nvarchar(2)]</text>
<polygon fill="none" stroke="#000000" points="126.481,-192.5 126.481,-222.5 389.481,-222.5 389.481,-192.5 126.481,-192.5"/>
<text text-anchor="start" x="133.481" y="-203.9" font-family="Arial" font-size="14.00" fill="#000000">charge_division_cd </text>
<text text-anchor="start" x="257.178" y="-203.9" font-family="Arial" font-size="14.00" fill="#666666">[nvarchar(2)]</text>
<polygon fill="none" stroke="#000000" points="126.481,-162.5 126.481,-192.5 389.481,-192.5 389.481,-162.5 126.481,-162.5"/>
<text text-anchor="start" x="133.481" y="-173.9" font-family="Arial" font-size="14.00" fill="#000000">create_user_cd </text>
<text text-anchor="start" x="233.8442" y="-173.9" font-family="Arial" font-size="14.00" fill="#666666">[nvarchar(10)]</text>
<polygon fill="none" stroke="#000000" points="126.481,-132.5 126.481,-162.5 389.481,-162.5 389.481,-132.5 126.481,-132.5"/>
<text text-anchor="start" x="133.481" y="-143.9" font-family="Arial" font-size="14.00" fill="#000000">create_date </text>
<text text-anchor="start" x="211.2916" y="-143.9" font-family="Arial" font-size="14.00" fill="#666666">[datetime2]</text>
<polygon fill="none" stroke="#000000" points="126.481,-102.5 126.481,-132.5 389.481,-132.5 389.481,-102.5 126.481,-102.5"/>
<text text-anchor="start" x="133.481" y="-113.9" font-family="Arial" font-size="14.00" fill="#000000">record_user_cd </text>
<text text-anchor="start" x="234.6142" y="-113.9" font-family="Arial" font-size="14.00" fill="#666666">[nvarchar(10)]</text>
<polygon fill="none" stroke="#000000" points="126.481,-72.5 126.481,-102.5 389.481,-102.5 389.481,-72.5 126.481,-72.5"/>
<text text-anchor="start" x="133.481" y="-83.9" font-family="Arial" font-size="14.00" fill="#000000">record_date </text>
<text text-anchor="start" x="212.0616" y="-83.9" font-family="Arial" font-size="14.00" fill="#666666">[datetime2]</text>
<polygon fill="none" stroke="#000000" points="126.481,-42.5 126.481,-72.5 389.481,-72.5 389.481,-42.5 126.481,-42.5"/>
<text text-anchor="start" x="133.481" y="-53.9" font-family="Arial" font-size="14.00" fill="#000000">delete_flag </text>
<text text-anchor="start" x="205.8442" y="-53.9" font-family="Arial" font-size="14.00" fill="#666666">[nvarchar(1)]</text>
</g>
<!-- sh_t_actual_production_costs_info&#45;&gt;sh_t_order_details -->
<g id="edge1" class="edge">
<title>sh_t_actual_production_costs_info:project_number&#45;&gt;sh_t_order_details:project_number</title>
<path fill="none" stroke="#000000" d="M51.3998,-1056.0991C-50.9911,-1026.4922 13.5517,-537.5 126.481,-537.5"/>
<polygon fill="#000000" stroke="#000000" points="51.5762,-1056.1236 60.8616,-1061.9572 56.5286,-1056.8118 61.481,-1057.5 61.481,-1057.5 61.481,-1057.5 56.5286,-1056.8118 62.1004,-1053.0428 51.5762,-1056.1236 51.5762,-1056.1236"/>
</g>
</g>
</svg>
