<?xml version="1.0" encoding="UTF-8" standalone="no"?>
<!DOCTYPE svg PUBLIC "-//W3C//DTD SVG 1.1//EN"
 "http://www.w3.org/Graphics/SVG/1.1/DTD/svg11.dtd">
<!-- Generated by graphviz version 2.40.1 (20161225.0304)
 -->
<!-- Title: sh_t_plans_production_costs_info Pages: 1 -->
<svg width="609pt" height="1739pt"
 viewBox="0.00 0.00 608.50 1739.00" xmlns="http://www.w3.org/2000/svg" xmlns:xlink="http://www.w3.org/1999/xlink">
<g id="graph0" class="graph" transform="scale(1 1) rotate(0) translate(4 1735)">
<title>sh_t_plans_production_costs_info</title>
<polygon fill="#ffffff" stroke="transparent" points="-4,4 -4,-1735 604.5003,-1735 604.5003,4 -4,4"/>
<!-- sh_t_plans_production_costs_info -->
<g id="node1" class="node">
<title>sh_t_plans_production_costs_info</title>
<polygon fill="#efefef" stroke="transparent" points="118.0407,-1072.5 118.0407,-1107.5 506.0407,-1107.5 506.0407,-1072.5 118.0407,-1072.5"/>
<polygon fill="none" stroke="#000000" points="118.0407,-1072.5 118.0407,-1107.5 506.0407,-1107.5 506.0407,-1072.5 118.0407,-1072.5"/>
<text text-anchor="start" x="125.0359" y="-1085.3" font-family="Arial Bold" font-size="18.00" fill="#000000">sh_t_plans_production_costs_info</text>
<text text-anchor="start" x="397.1311" y="-1085.3" font-family="Arial" font-size="14.00" fill="#000000"> </text>
<text text-anchor="start" x="401.0217" y="-1085.3" font-family="Arial" font-size="14.00" fill="#666666">[BASIC TABLE]</text>
<polygon fill="none" stroke="#000000" points="118.0407,-1042.5 118.0407,-1072.5 506.0407,-1072.5 506.0407,-1042.5 118.0407,-1042.5"/>
<text text-anchor="start" x="125.0407" y="-1053.9" font-family="Arial" font-size="14.00" fill="#000000">project_number </text>
<text text-anchor="start" x="226.1711" y="-1053.9" font-family="Arial" font-size="14.00" fill="#666666">[nvarchar(255)]</text>
<polygon fill="none" stroke="#000000" points="118.0407,-1012.5 118.0407,-1042.5 506.0407,-1042.5 506.0407,-1012.5 118.0407,-1012.5"/>
<text text-anchor="start" x="125.0407" y="-1023.9" font-family="Arial" font-size="14.00" fill="#000000">order_number </text>
<text text-anchor="start" x="216.8345" y="-1023.9" font-family="Arial" font-size="14.00" fill="#666666">[nvarchar(255)]</text>
<polygon fill="none" stroke="#000000" points="118.0407,-982.5 118.0407,-1012.5 506.0407,-1012.5 506.0407,-982.5 118.0407,-982.5"/>
<text text-anchor="start" x="125.0407" y="-993.9" font-family="Arial" font-size="14.00" fill="#000000">detail_number </text>
<text text-anchor="start" x="217.6171" y="-993.9" font-family="Arial" font-size="14.00" fill="#666666">[nvarchar(255)]</text>
<polygon fill="none" stroke="#000000" points="118.0407,-952.5 118.0407,-982.5 506.0407,-982.5 506.0407,-952.5 118.0407,-952.5"/>
<text text-anchor="start" x="125.0407" y="-963.9" font-family="Arial" font-size="14.00" fill="#000000">department_cd </text>
<text text-anchor="start" x="222.2945" y="-963.9" font-family="Arial" font-size="14.00" fill="#666666">[nvarchar(255)]</text>
<polygon fill="none" stroke="#000000" points="118.0407,-922.5 118.0407,-952.5 506.0407,-952.5 506.0407,-922.5 118.0407,-922.5"/>
<text text-anchor="start" x="125.0407" y="-933.9" font-family="Arial" font-size="14.00" fill="#000000">plans_outsourcing_cost </text>
<text text-anchor="start" x="275.9775" y="-933.9" font-family="Arial" font-size="14.00" fill="#666666">[int]</text>
<polygon fill="none" stroke="#000000" points="118.0407,-892.5 118.0407,-922.5 506.0407,-922.5 506.0407,-892.5 118.0407,-892.5"/>
<text text-anchor="start" x="125.0407" y="-903.9" font-family="Arial" font-size="14.00" fill="#000000">plans_outsourcing_cost_sales </text>
<text text-anchor="start" x="316.4319" y="-903.9" font-family="Arial" font-size="14.00" fill="#666666">[int]</text>
<polygon fill="none" stroke="#000000" points="118.0407,-862.5 118.0407,-892.5 506.0407,-892.5 506.0407,-862.5 118.0407,-862.5"/>
<text text-anchor="start" x="125.0407" y="-873.9" font-family="Arial" font-size="14.00" fill="#000000">plans_produnction_costs </text>
<text text-anchor="start" x="283.7601" y="-873.9" font-family="Arial" font-size="14.00" fill="#666666">[decimal]</text>
<polygon fill="none" stroke="#000000" points="118.0407,-832.5 118.0407,-862.5 506.0407,-862.5 506.0407,-832.5 118.0407,-832.5"/>
<text text-anchor="start" x="125.0407" y="-843.9" font-family="Arial" font-size="14.00" fill="#000000">comment </text>
<text text-anchor="start" x="186.4909" y="-843.9" font-family="Arial" font-size="14.00" fill="#666666">[nvarchar(1000)]</text>
<polygon fill="none" stroke="#000000" points="118.0407,-802.5 118.0407,-832.5 506.0407,-832.5 506.0407,-802.5 118.0407,-802.5"/>
<text text-anchor="start" x="125.0407" y="-813.9" font-family="Arial" font-size="14.00" fill="#000000">create_user_cd </text>
<text text-anchor="start" x="225.4039" y="-813.9" font-family="Arial" font-size="14.00" fill="#666666">[nvarchar(10)]</text>
<polygon fill="none" stroke="#000000" points="118.0407,-772.5 118.0407,-802.5 506.0407,-802.5 506.0407,-772.5 118.0407,-772.5"/>
<text text-anchor="start" x="125.0407" y="-783.9" font-family="Arial" font-size="14.00" fill="#000000">create_date </text>
<text text-anchor="start" x="202.8513" y="-783.9" font-family="Arial" font-size="14.00" fill="#666666">[datetime2]</text>
<polygon fill="none" stroke="#000000" points="118.0407,-742.5 118.0407,-772.5 506.0407,-772.5 506.0407,-742.5 118.0407,-742.5"/>
<text text-anchor="start" x="125.0407" y="-753.9" font-family="Arial" font-size="14.00" fill="#000000">record_user_cd </text>
<text text-anchor="start" x="226.1739" y="-753.9" font-family="Arial" font-size="14.00" fill="#666666">[nvarchar(10)]</text>
<polygon fill="none" stroke="#000000" points="118.0407,-712.5 118.0407,-742.5 506.0407,-742.5 506.0407,-712.5 118.0407,-712.5"/>
<text text-anchor="start" x="125.0407" y="-723.9" font-family="Arial" font-size="14.00" fill="#000000">record_date </text>
<text text-anchor="start" x="203.6213" y="-723.9" font-family="Arial" font-size="14.00" fill="#666666">[datetime2]</text>
<polygon fill="none" stroke="#000000" points="118.0407,-682.5 118.0407,-712.5 506.0407,-712.5 506.0407,-682.5 118.0407,-682.5"/>
<text text-anchor="start" x="125.0407" y="-693.9" font-family="Arial" font-size="14.00" fill="#000000">delete_flag </text>
<text text-anchor="start" x="197.4039" y="-693.9" font-family="Arial" font-size="14.00" fill="#666666">[nvarchar(1)]</text>
<polygon fill="none" stroke="#000000" stroke-width="3" points="116.5407,-681.5 116.5407,-1109.5 507.5407,-1109.5 507.5407,-681.5 116.5407,-681.5"/>
</g>
<!-- sh_t_order_details -->
<g id="node2" class="node">
<title>sh_t_order_details</title>
<polygon fill="#efefef" stroke="transparent" points="180.0407,-522.5 180.0407,-557.5 443.0407,-557.5 443.0407,-522.5 180.0407,-522.5"/>
<polygon fill="none" stroke="#000000" points="180.0407,-522.5 180.0407,-557.5 443.0407,-557.5 443.0407,-522.5 180.0407,-522.5"/>
<text text-anchor="start" x="186.5639" y="-535.3" font-family="Arial Bold" font-size="18.00" fill="#000000">sh_t_order_details</text>
<text text-anchor="start" x="334.6031" y="-535.3" font-family="Arial" font-size="14.00" fill="#000000"> </text>
<text text-anchor="start" x="338.4937" y="-535.3" font-family="Arial" font-size="14.00" fill="#666666">[BASIC TABLE]</text>
<polygon fill="none" stroke="#000000" points="180.0407,-492.5 180.0407,-522.5 443.0407,-522.5 443.0407,-492.5 180.0407,-492.5"/>
<text text-anchor="start" x="187.0407" y="-503.9" font-family="Arial" font-size="14.00" fill="#000000">project_number </text>
<text text-anchor="start" x="288.1711" y="-503.9" font-family="Arial" font-size="14.00" fill="#666666">[nvarchar(255)]</text>
<polygon fill="none" stroke="#000000" points="180.0407,-462.5 180.0407,-492.5 443.0407,-492.5 443.0407,-462.5 180.0407,-462.5"/>
<text text-anchor="start" x="187.0407" y="-473.9" font-family="Arial" font-size="14.00" fill="#000000">order_number </text>
<text text-anchor="start" x="278.8345" y="-473.9" font-family="Arial" font-size="14.00" fill="#666666">[nvarchar(255)]</text>
<polygon fill="none" stroke="#000000" points="180.0407,-432.5 180.0407,-462.5 443.0407,-462.5 443.0407,-432.5 180.0407,-432.5"/>
<text text-anchor="start" x="187.0407" y="-443.9" font-family="Arial" font-size="14.00" fill="#000000">detail_number </text>
<text text-anchor="start" x="279.6171" y="-443.9" font-family="Arial" font-size="14.00" fill="#666666">[nvarchar(255)]</text>
<polygon fill="none" stroke="#000000" points="180.0407,-402.5 180.0407,-432.5 443.0407,-432.5 443.0407,-402.5 180.0407,-402.5"/>
<text text-anchor="start" x="187.0407" y="-413.9" font-family="Arial" font-size="14.00" fill="#000000">department_cd </text>
<text text-anchor="start" x="284.2945" y="-413.9" font-family="Arial" font-size="14.00" fill="#666666">[nvarchar(255)]</text>
<polygon fill="none" stroke="#000000" points="180.0407,-372.5 180.0407,-402.5 443.0407,-402.5 443.0407,-372.5 180.0407,-372.5"/>
<text text-anchor="start" x="187.0407" y="-383.9" font-family="Arial" font-size="14.00" fill="#000000">main_department_cd </text>
<text text-anchor="start" x="322.4095" y="-383.9" font-family="Arial" font-size="14.00" fill="#666666">[nvarchar(100)]</text>
<polygon fill="none" stroke="#000000" points="180.0407,-342.5 180.0407,-372.5 443.0407,-372.5 443.0407,-342.5 180.0407,-342.5"/>
<text text-anchor="start" x="187.0407" y="-353.9" font-family="Arial" font-size="14.00" fill="#000000">details </text>
<text text-anchor="start" x="231.3829" y="-353.9" font-family="Arial" font-size="14.00" fill="#666666">[nvarchar(1000)]</text>
<polygon fill="none" stroke="#000000" points="180.0407,-312.5 180.0407,-342.5 443.0407,-342.5 443.0407,-312.5 180.0407,-312.5"/>
<text text-anchor="start" x="187.0407" y="-323.9" font-family="Arial" font-size="14.00" fill="#000000">order_amount </text>
<text text-anchor="start" x="278.0645" y="-323.9" font-family="Arial" font-size="14.00" fill="#666666">[decimal]</text>
<polygon fill="none" stroke="#000000" points="180.0407,-282.5 180.0407,-312.5 443.0407,-312.5 443.0407,-282.5 180.0407,-282.5"/>
<text text-anchor="start" x="187.0407" y="-293.9" font-family="Arial" font-size="14.00" fill="#000000">sales_confirmed_amount </text>
<text text-anchor="start" x="347.2987" y="-293.9" font-family="Arial" font-size="14.00" fill="#666666">[numeric]</text>
<polygon fill="none" stroke="#000000" points="180.0407,-252.5 180.0407,-282.5 443.0407,-282.5 443.0407,-252.5 180.0407,-252.5"/>
<text text-anchor="start" x="187.0407" y="-263.9" font-family="Arial" font-size="14.00" fill="#000000">progress_cost_flag </text>
<text text-anchor="start" x="309.1837" y="-263.9" font-family="Arial" font-size="14.00" fill="#666666">[nvarchar(1)]</text>
<polygon fill="none" stroke="#000000" points="180.0407,-222.5 180.0407,-252.5 443.0407,-252.5 443.0407,-222.5 180.0407,-222.5"/>
<text text-anchor="start" x="187.0407" y="-233.9" font-family="Arial" font-size="14.00" fill="#000000">progress_sales_status_cd </text>
<text text-anchor="start" x="353.5315" y="-233.9" font-family="Arial" font-size="14.00" fill="#666666">[nvarchar(2)]</text>
<polygon fill="none" stroke="#000000" points="180.0407,-192.5 180.0407,-222.5 443.0407,-222.5 443.0407,-192.5 180.0407,-192.5"/>
<text text-anchor="start" x="187.0407" y="-203.9" font-family="Arial" font-size="14.00" fill="#000000">progress_plans_status_cd </text>
<text text-anchor="start" x="354.3141" y="-203.9" font-family="Arial" font-size="14.00" fill="#666666">[nvarchar(2)]</text>
<polygon fill="none" stroke="#000000" points="180.0407,-162.5 180.0407,-192.5 443.0407,-192.5 443.0407,-162.5 180.0407,-162.5"/>
<text text-anchor="start" x="187.0407" y="-173.9" font-family="Arial" font-size="14.00" fill="#000000">create_user_cd </text>
<text text-anchor="start" x="287.4039" y="-173.9" font-family="Arial" font-size="14.00" fill="#666666">[nvarchar(10)]</text>
<polygon fill="none" stroke="#000000" points="180.0407,-132.5 180.0407,-162.5 443.0407,-162.5 443.0407,-132.5 180.0407,-132.5"/>
<text text-anchor="start" x="187.0407" y="-143.9" font-family="Arial" font-size="14.00" fill="#000000">create_date </text>
<text text-anchor="start" x="264.8513" y="-143.9" font-family="Arial" font-size="14.00" fill="#666666">[datetime2]</text>
<polygon fill="none" stroke="#000000" points="180.0407,-102.5 180.0407,-132.5 443.0407,-132.5 443.0407,-102.5 180.0407,-102.5"/>
<text text-anchor="start" x="187.0407" y="-113.9" font-family="Arial" font-size="14.00" fill="#000000">record_user_cd </text>
<text text-anchor="start" x="288.1739" y="-113.9" font-family="Arial" font-size="14.00" fill="#666666">[nvarchar(10)]</text>
<polygon fill="none" stroke="#000000" points="180.0407,-72.5 180.0407,-102.5 443.0407,-102.5 443.0407,-72.5 180.0407,-72.5"/>
<text text-anchor="start" x="187.0407" y="-83.9" font-family="Arial" font-size="14.00" fill="#000000">record_date </text>
<text text-anchor="start" x="265.6213" y="-83.9" font-family="Arial" font-size="14.00" fill="#666666">[datetime2]</text>
<polygon fill="none" stroke="#000000" points="180.0407,-42.5 180.0407,-72.5 443.0407,-72.5 443.0407,-42.5 180.0407,-42.5"/>
<text text-anchor="start" x="187.0407" y="-53.9" font-family="Arial" font-size="14.00" fill="#000000">delete_flag </text>
<text text-anchor="start" x="259.4039" y="-53.9" font-family="Arial" font-size="14.00" fill="#666666">[nvarchar(1)]</text>
</g>
<!-- sh_t_plans_production_costs_info&#45;&gt;sh_t_order_details -->
<g id="edge1" class="edge">
<title>sh_t_plans_production_costs_info:project_number&#45;&gt;sh_t_order_details:project_number</title>
<path fill="none" stroke="#000000" d="M107.8938,-1057.2122C-66.5176,-1047.1113 -4.31,-773.6516 118.0407,-637 166.5109,-582.8642 394.5704,-655.1358 443.0407,-601 470.7602,-570.0405 484.5962,-507.5 443.0407,-507.5"/>
<polygon fill="#000000" stroke="#000000" points="108.0447,-1057.2164 117.913,-1061.9982 113.0427,-1057.3582 118.0407,-1057.5 118.0407,-1057.5 118.0407,-1057.5 113.0427,-1057.3582 118.1683,-1053.0018 108.0447,-1057.2164 108.0447,-1057.2164"/>
</g>
<!-- sh_t_plans_production_costs_info_history -->
<g id="node3" class="node">
<title>sh_t_plans_production_costs_info_history</title>
<polygon fill="#efefef" stroke="transparent" points="86.0407,-1652.5 86.0407,-1687.5 537.0407,-1687.5 537.0407,-1652.5 86.0407,-1652.5"/>
<polygon fill="none" stroke="#000000" points="86.0407,-1652.5 86.0407,-1687.5 537.0407,-1687.5 537.0407,-1652.5 86.0407,-1652.5"/>
<text text-anchor="start" x="93.0323" y="-1665.3" font-family="Arial Bold" font-size="18.00" fill="#000000">sh_t_plans_production_costs_info_history</text>
<text text-anchor="start" x="428.1347" y="-1665.3" font-family="Arial" font-size="14.00" fill="#000000"> </text>
<text text-anchor="start" x="432.0253" y="-1665.3" font-family="Arial" font-size="14.00" fill="#666666">[BASIC TABLE]</text>
<polygon fill="none" stroke="#000000" points="86.0407,-1622.5 86.0407,-1652.5 537.0407,-1652.5 537.0407,-1622.5 86.0407,-1622.5"/>
<text text-anchor="start" x="93.0407" y="-1633.9" font-family="Arial" font-size="14.00" fill="#000000">project_number </text>
<text text-anchor="start" x="194.1711" y="-1633.9" font-family="Arial" font-size="14.00" fill="#666666">[nvarchar(255)]</text>
<polygon fill="none" stroke="#000000" points="86.0407,-1592.5 86.0407,-1622.5 537.0407,-1622.5 537.0407,-1592.5 86.0407,-1592.5"/>
<text text-anchor="start" x="93.0407" y="-1603.9" font-family="Arial" font-size="14.00" fill="#000000">order_number </text>
<text text-anchor="start" x="184.8345" y="-1603.9" font-family="Arial" font-size="14.00" fill="#666666">[nvarchar(255)]</text>
<polygon fill="none" stroke="#000000" points="86.0407,-1562.5 86.0407,-1592.5 537.0407,-1592.5 537.0407,-1562.5 86.0407,-1562.5"/>
<text text-anchor="start" x="93.0407" y="-1573.9" font-family="Arial" font-size="14.00" fill="#000000">detail_number </text>
<text text-anchor="start" x="185.6171" y="-1573.9" font-family="Arial" font-size="14.00" fill="#666666">[nvarchar(255)]</text>
<polygon fill="none" stroke="#000000" points="86.0407,-1532.5 86.0407,-1562.5 537.0407,-1562.5 537.0407,-1532.5 86.0407,-1532.5"/>
<text text-anchor="start" x="93.0407" y="-1543.9" font-family="Arial" font-size="14.00" fill="#000000">department_cd </text>
<text text-anchor="start" x="190.2945" y="-1543.9" font-family="Arial" font-size="14.00" fill="#666666">[nvarchar(255)]</text>
<polygon fill="none" stroke="#000000" points="86.0407,-1502.5 86.0407,-1532.5 537.0407,-1532.5 537.0407,-1502.5 86.0407,-1502.5"/>
<text text-anchor="start" x="93.0407" y="-1513.9" font-family="Arial" font-size="14.00" fill="#000000">history_number </text>
<text text-anchor="start" x="193.3885" y="-1513.9" font-family="Arial" font-size="14.00" fill="#666666">[int]</text>
<polygon fill="none" stroke="#000000" points="86.0407,-1472.5 86.0407,-1502.5 537.0407,-1502.5 537.0407,-1472.5 86.0407,-1472.5"/>
<text text-anchor="start" x="93.0407" y="-1483.9" font-family="Arial" font-size="14.00" fill="#000000">plans_outsourcing_cost </text>
<text text-anchor="start" x="243.9775" y="-1483.9" font-family="Arial" font-size="14.00" fill="#666666">[int]</text>
<polygon fill="none" stroke="#000000" points="86.0407,-1442.5 86.0407,-1472.5 537.0407,-1472.5 537.0407,-1442.5 86.0407,-1442.5"/>
<text text-anchor="start" x="93.0407" y="-1453.9" font-family="Arial" font-size="14.00" fill="#000000">plans_outsourcing_cost_sales </text>
<text text-anchor="start" x="284.4319" y="-1453.9" font-family="Arial" font-size="14.00" fill="#666666">[int]</text>
<polygon fill="none" stroke="#000000" points="86.0407,-1412.5 86.0407,-1442.5 537.0407,-1442.5 537.0407,-1412.5 86.0407,-1412.5"/>
<text text-anchor="start" x="93.0407" y="-1423.9" font-family="Arial" font-size="14.00" fill="#000000">plans_produnction_costs </text>
<text text-anchor="start" x="251.7601" y="-1423.9" font-family="Arial" font-size="14.00" fill="#666666">[decimal]</text>
<polygon fill="none" stroke="#000000" points="86.0407,-1382.5 86.0407,-1412.5 537.0407,-1412.5 537.0407,-1382.5 86.0407,-1382.5"/>
<text text-anchor="start" x="93.0407" y="-1393.9" font-family="Arial" font-size="14.00" fill="#000000">comment </text>
<text text-anchor="start" x="154.4909" y="-1393.9" font-family="Arial" font-size="14.00" fill="#666666">[nvarchar(1000)]</text>
<polygon fill="none" stroke="#000000" points="86.0407,-1352.5 86.0407,-1382.5 537.0407,-1382.5 537.0407,-1352.5 86.0407,-1352.5"/>
<text text-anchor="start" x="93.0407" y="-1363.9" font-family="Arial" font-size="14.00" fill="#000000">create_user_cd </text>
<text text-anchor="start" x="193.4039" y="-1363.9" font-family="Arial" font-size="14.00" fill="#666666">[nvarchar(10)]</text>
<polygon fill="none" stroke="#000000" points="86.0407,-1322.5 86.0407,-1352.5 537.0407,-1352.5 537.0407,-1322.5 86.0407,-1322.5"/>
<text text-anchor="start" x="93.0407" y="-1333.9" font-family="Arial" font-size="14.00" fill="#000000">create_date </text>
<text text-anchor="start" x="170.8513" y="-1333.9" font-family="Arial" font-size="14.00" fill="#666666">[datetime2]</text>
<polygon fill="none" stroke="#000000" points="86.0407,-1292.5 86.0407,-1322.5 537.0407,-1322.5 537.0407,-1292.5 86.0407,-1292.5"/>
<text text-anchor="start" x="93.0407" y="-1303.9" font-family="Arial" font-size="14.00" fill="#000000">record_user_cd </text>
<text text-anchor="start" x="194.1739" y="-1303.9" font-family="Arial" font-size="14.00" fill="#666666">[nvarchar(10)]</text>
<polygon fill="none" stroke="#000000" points="86.0407,-1262.5 86.0407,-1292.5 537.0407,-1292.5 537.0407,-1262.5 86.0407,-1262.5"/>
<text text-anchor="start" x="93.0407" y="-1273.9" font-family="Arial" font-size="14.00" fill="#000000">record_date </text>
<text text-anchor="start" x="171.6213" y="-1273.9" font-family="Arial" font-size="14.00" fill="#666666">[datetime2]</text>
<polygon fill="none" stroke="#000000" points="86.0407,-1232.5 86.0407,-1262.5 537.0407,-1262.5 537.0407,-1232.5 86.0407,-1232.5"/>
<text text-anchor="start" x="93.0407" y="-1243.9" font-family="Arial" font-size="14.00" fill="#000000">delete_flag </text>
<text text-anchor="start" x="165.4039" y="-1243.9" font-family="Arial" font-size="14.00" fill="#666666">[nvarchar(1)]</text>
</g>
<!-- sh_t_plans_production_costs_info_history&#45;&gt;sh_t_plans_production_costs_info -->
<g id="edge2" class="edge">
<title>sh_t_plans_production_costs_info_history:project_number&#45;&gt;sh_t_plans_production_costs_info:project_number</title>
<path fill="none" stroke="#000000" d="M547.045,-1636.1417C634.1775,-1611.5586 601.9175,-1260.69 537.0407,-1190 473.8503,-1121.1476 181.231,-1222.8524 118.0407,-1154 89.0407,-1122.4016 75.1518,-1057.5 118.0407,-1057.5"/>
<polygon fill="#000000" stroke="#000000" points="546.9497,-1636.1546 536.4352,-1633.0409 541.9952,-1636.8273 537.0407,-1637.5 537.0407,-1637.5 537.0407,-1637.5 541.9952,-1636.8273 537.6461,-1641.9591 546.9497,-1636.1546 546.9497,-1636.1546"/>
</g>
</g>
</svg>
