<?xml version="1.0" encoding="UTF-8" standalone="no"?>
<!DOCTYPE svg PUBLIC "-//W3C//DTD SVG 1.1//EN"
 "http://www.w3.org/Graphics/SVG/1.1/DTD/svg11.dtd">
<!-- Generated by graphviz version 2.40.1 (20161225.0304)
 -->
<!-- Title: sh_t_plans_production_costs_info_history Pages: 1 -->
<svg width="574pt" height="1162pt"
 viewBox="0.00 0.00 573.63 1162.00" xmlns="http://www.w3.org/2000/svg" xmlns:xlink="http://www.w3.org/1999/xlink">
<g id="graph0" class="graph" transform="scale(1 1) rotate(0) translate(4 1158)">
<title>sh_t_plans_production_costs_info_history</title>
<polygon fill="#ffffff" stroke="transparent" points="-4,4 -4,-1158 569.6312,-1158 569.6312,4 -4,4"/>
<!-- sh_t_plans_production_costs_info_history -->
<g id="node1" class="node">
<title>sh_t_plans_production_costs_info_history</title>
<polygon fill="#efefef" stroke="transparent" points="46.5,-1072.5 46.5,-1107.5 497.5,-1107.5 497.5,-1072.5 46.5,-1072.5"/>
<polygon fill="none" stroke="#000000" points="46.5,-1072.5 46.5,-1107.5 497.5,-1107.5 497.5,-1072.5 46.5,-1072.5"/>
<text text-anchor="start" x="53.4916" y="-1085.3" font-family="Arial Bold" font-size="18.00" fill="#000000">sh_t_plans_production_costs_info_history</text>
<text text-anchor="start" x="388.594" y="-1085.3" font-family="Arial" font-size="14.00" fill="#000000"> </text>
<text text-anchor="start" x="392.4846" y="-1085.3" font-family="Arial" font-size="14.00" fill="#666666">[BASIC TABLE]</text>
<polygon fill="none" stroke="#000000" points="46.5,-1042.5 46.5,-1072.5 497.5,-1072.5 497.5,-1042.5 46.5,-1042.5"/>
<text text-anchor="start" x="53.5" y="-1053.9" font-family="Arial" font-size="14.00" fill="#000000">project_number </text>
<text text-anchor="start" x="154.6304" y="-1053.9" font-family="Arial" font-size="14.00" fill="#666666">[nvarchar(255)]</text>
<polygon fill="none" stroke="#000000" points="46.5,-1012.5 46.5,-1042.5 497.5,-1042.5 497.5,-1012.5 46.5,-1012.5"/>
<text text-anchor="start" x="53.5" y="-1023.9" font-family="Arial" font-size="14.00" fill="#000000">order_number </text>
<text text-anchor="start" x="145.2938" y="-1023.9" font-family="Arial" font-size="14.00" fill="#666666">[nvarchar(255)]</text>
<polygon fill="none" stroke="#000000" points="46.5,-982.5 46.5,-1012.5 497.5,-1012.5 497.5,-982.5 46.5,-982.5"/>
<text text-anchor="start" x="53.5" y="-993.9" font-family="Arial" font-size="14.00" fill="#000000">detail_number </text>
<text text-anchor="start" x="146.0764" y="-993.9" font-family="Arial" font-size="14.00" fill="#666666">[nvarchar(255)]</text>
<polygon fill="none" stroke="#000000" points="46.5,-952.5 46.5,-982.5 497.5,-982.5 497.5,-952.5 46.5,-952.5"/>
<text text-anchor="start" x="53.5" y="-963.9" font-family="Arial" font-size="14.00" fill="#000000">department_cd </text>
<text text-anchor="start" x="150.7538" y="-963.9" font-family="Arial" font-size="14.00" fill="#666666">[nvarchar(100)]</text>
<polygon fill="none" stroke="#000000" points="46.5,-922.5 46.5,-952.5 497.5,-952.5 497.5,-922.5 46.5,-922.5"/>
<text text-anchor="start" x="53.5" y="-933.9" font-family="Arial" font-size="14.00" fill="#000000">history_number </text>
<text text-anchor="start" x="153.8478" y="-933.9" font-family="Arial" font-size="14.00" fill="#666666">[int]</text>
<polygon fill="none" stroke="#000000" points="46.5,-892.5 46.5,-922.5 497.5,-922.5 497.5,-892.5 46.5,-892.5"/>
<text text-anchor="start" x="53.5" y="-903.9" font-family="Arial" font-size="14.00" fill="#000000">plans_produnction_costs </text>
<text text-anchor="start" x="212.2194" y="-903.9" font-family="Arial" font-size="14.00" fill="#666666">[decimal]</text>
<polygon fill="none" stroke="#000000" points="46.5,-862.5 46.5,-892.5 497.5,-892.5 497.5,-862.5 46.5,-862.5"/>
<text text-anchor="start" x="53.5" y="-873.9" font-family="Arial" font-size="14.00" fill="#000000">progress_cost_flag </text>
<text text-anchor="start" x="175.643" y="-873.9" font-family="Arial" font-size="14.00" fill="#666666">[nvarchar(1)]</text>
<polygon fill="none" stroke="#000000" points="46.5,-832.5 46.5,-862.5 497.5,-862.5 497.5,-832.5 46.5,-832.5"/>
<text text-anchor="start" x="53.5" y="-843.9" font-family="Arial" font-size="14.00" fill="#000000">plans_outsourcing_cost </text>
<text text-anchor="start" x="204.4368" y="-843.9" font-family="Arial" font-size="14.00" fill="#666666">[int]</text>
<polygon fill="none" stroke="#000000" points="46.5,-802.5 46.5,-832.5 497.5,-832.5 497.5,-802.5 46.5,-802.5"/>
<text text-anchor="start" x="53.5" y="-813.9" font-family="Arial" font-size="14.00" fill="#000000">plans_outsourcing_cost_sales </text>
<text text-anchor="start" x="244.8912" y="-813.9" font-family="Arial" font-size="14.00" fill="#666666">[int]</text>
<polygon fill="none" stroke="#000000" points="46.5,-772.5 46.5,-802.5 497.5,-802.5 497.5,-772.5 46.5,-772.5"/>
<text text-anchor="start" x="53.5" y="-783.9" font-family="Arial" font-size="14.00" fill="#000000">comment </text>
<text text-anchor="start" x="114.9502" y="-783.9" font-family="Arial" font-size="14.00" fill="#666666">[nvarchar(2000)]</text>
<polygon fill="none" stroke="#000000" points="46.5,-742.5 46.5,-772.5 497.5,-772.5 497.5,-742.5 46.5,-742.5"/>
<text text-anchor="start" x="53.5" y="-753.9" font-family="Arial" font-size="14.00" fill="#000000">create_user_cd </text>
<text text-anchor="start" x="153.8632" y="-753.9" font-family="Arial" font-size="14.00" fill="#666666">[nvarchar(10)]</text>
<polygon fill="none" stroke="#000000" points="46.5,-712.5 46.5,-742.5 497.5,-742.5 497.5,-712.5 46.5,-712.5"/>
<text text-anchor="start" x="53.5" y="-723.9" font-family="Arial" font-size="14.00" fill="#000000">create_date </text>
<text text-anchor="start" x="131.3106" y="-723.9" font-family="Arial" font-size="14.00" fill="#666666">[datetime2]</text>
<polygon fill="none" stroke="#000000" points="46.5,-682.5 46.5,-712.5 497.5,-712.5 497.5,-682.5 46.5,-682.5"/>
<text text-anchor="start" x="53.5" y="-693.9" font-family="Arial" font-size="14.00" fill="#000000">record_user_cd </text>
<text text-anchor="start" x="154.6332" y="-693.9" font-family="Arial" font-size="14.00" fill="#666666">[nvarchar(10)]</text>
<polygon fill="none" stroke="#000000" points="46.5,-652.5 46.5,-682.5 497.5,-682.5 497.5,-652.5 46.5,-652.5"/>
<text text-anchor="start" x="53.5" y="-663.9" font-family="Arial" font-size="14.00" fill="#000000">record_date </text>
<text text-anchor="start" x="132.0806" y="-663.9" font-family="Arial" font-size="14.00" fill="#666666">[datetime2]</text>
<polygon fill="none" stroke="#000000" points="46.5,-622.5 46.5,-652.5 497.5,-652.5 497.5,-622.5 46.5,-622.5"/>
<text text-anchor="start" x="53.5" y="-633.9" font-family="Arial" font-size="14.00" fill="#000000">delete_flag </text>
<text text-anchor="start" x="125.8632" y="-633.9" font-family="Arial" font-size="14.00" fill="#666666">[nvarchar(1)]</text>
<polygon fill="none" stroke="#000000" stroke-width="3" points="44.5,-621.5 44.5,-1109.5 498.5,-1109.5 498.5,-621.5 44.5,-621.5"/>
</g>
<!-- sh_t_plans_production_costs_info -->
<g id="node2" class="node">
<title>sh_t_plans_production_costs_info</title>
<polygon fill="#efefef" stroke="transparent" points="78.5,-462.5 78.5,-497.5 466.5,-497.5 466.5,-462.5 78.5,-462.5"/>
<polygon fill="none" stroke="#000000" points="78.5,-462.5 78.5,-497.5 466.5,-497.5 466.5,-462.5 78.5,-462.5"/>
<text text-anchor="start" x="85.4952" y="-475.3" font-family="Arial Bold" font-size="18.00" fill="#000000">sh_t_plans_production_costs_info</text>
<text text-anchor="start" x="357.5904" y="-475.3" font-family="Arial" font-size="14.00" fill="#000000"> </text>
<text text-anchor="start" x="361.481" y="-475.3" font-family="Arial" font-size="14.00" fill="#666666">[BASIC TABLE]</text>
<polygon fill="none" stroke="#000000" points="78.5,-432.5 78.5,-462.5 466.5,-462.5 466.5,-432.5 78.5,-432.5"/>
<text text-anchor="start" x="85.5" y="-443.9" font-family="Arial" font-size="14.00" fill="#000000">project_number </text>
<text text-anchor="start" x="186.6304" y="-443.9" font-family="Arial" font-size="14.00" fill="#666666">[nvarchar(255)]</text>
<polygon fill="none" stroke="#000000" points="78.5,-402.5 78.5,-432.5 466.5,-432.5 466.5,-402.5 78.5,-402.5"/>
<text text-anchor="start" x="85.5" y="-413.9" font-family="Arial" font-size="14.00" fill="#000000">order_number </text>
<text text-anchor="start" x="177.2938" y="-413.9" font-family="Arial" font-size="14.00" fill="#666666">[nvarchar(255)]</text>
<polygon fill="none" stroke="#000000" points="78.5,-372.5 78.5,-402.5 466.5,-402.5 466.5,-372.5 78.5,-372.5"/>
<text text-anchor="start" x="85.5" y="-383.9" font-family="Arial" font-size="14.00" fill="#000000">detail_number </text>
<text text-anchor="start" x="178.0764" y="-383.9" font-family="Arial" font-size="14.00" fill="#666666">[nvarchar(255)]</text>
<polygon fill="none" stroke="#000000" points="78.5,-342.5 78.5,-372.5 466.5,-372.5 466.5,-342.5 78.5,-342.5"/>
<text text-anchor="start" x="85.5" y="-353.9" font-family="Arial" font-size="14.00" fill="#000000">department_cd </text>
<text text-anchor="start" x="182.7538" y="-353.9" font-family="Arial" font-size="14.00" fill="#666666">[nvarchar(100)]</text>
<polygon fill="none" stroke="#000000" points="78.5,-312.5 78.5,-342.5 466.5,-342.5 466.5,-312.5 78.5,-312.5"/>
<text text-anchor="start" x="85.5" y="-323.9" font-family="Arial" font-size="14.00" fill="#000000">plans_produnction_costs </text>
<text text-anchor="start" x="244.2194" y="-323.9" font-family="Arial" font-size="14.00" fill="#666666">[decimal]</text>
<polygon fill="none" stroke="#000000" points="78.5,-282.5 78.5,-312.5 466.5,-312.5 466.5,-282.5 78.5,-282.5"/>
<text text-anchor="start" x="85.5" y="-293.9" font-family="Arial" font-size="14.00" fill="#000000">progress_cost_flag </text>
<text text-anchor="start" x="207.643" y="-293.9" font-family="Arial" font-size="14.00" fill="#666666">[nvarchar(1)]</text>
<polygon fill="none" stroke="#000000" points="78.5,-252.5 78.5,-282.5 466.5,-282.5 466.5,-252.5 78.5,-252.5"/>
<text text-anchor="start" x="85.5" y="-263.9" font-family="Arial" font-size="14.00" fill="#000000">plans_outsourcing_cost </text>
<text text-anchor="start" x="236.4368" y="-263.9" font-family="Arial" font-size="14.00" fill="#666666">[int]</text>
<polygon fill="none" stroke="#000000" points="78.5,-222.5 78.5,-252.5 466.5,-252.5 466.5,-222.5 78.5,-222.5"/>
<text text-anchor="start" x="85.5" y="-233.9" font-family="Arial" font-size="14.00" fill="#000000">plans_outsourcing_cost_sales </text>
<text text-anchor="start" x="276.8912" y="-233.9" font-family="Arial" font-size="14.00" fill="#666666">[int]</text>
<polygon fill="none" stroke="#000000" points="78.5,-192.5 78.5,-222.5 466.5,-222.5 466.5,-192.5 78.5,-192.5"/>
<text text-anchor="start" x="85.5" y="-203.9" font-family="Arial" font-size="14.00" fill="#000000">comment </text>
<text text-anchor="start" x="146.9502" y="-203.9" font-family="Arial" font-size="14.00" fill="#666666">[nvarchar(2000)]</text>
<polygon fill="none" stroke="#000000" points="78.5,-162.5 78.5,-192.5 466.5,-192.5 466.5,-162.5 78.5,-162.5"/>
<text text-anchor="start" x="85.5" y="-173.9" font-family="Arial" font-size="14.00" fill="#000000">create_user_cd </text>
<text text-anchor="start" x="185.8632" y="-173.9" font-family="Arial" font-size="14.00" fill="#666666">[nvarchar(10)]</text>
<polygon fill="none" stroke="#000000" points="78.5,-132.5 78.5,-162.5 466.5,-162.5 466.5,-132.5 78.5,-132.5"/>
<text text-anchor="start" x="85.5" y="-143.9" font-family="Arial" font-size="14.00" fill="#000000">create_date </text>
<text text-anchor="start" x="163.3106" y="-143.9" font-family="Arial" font-size="14.00" fill="#666666">[datetime2]</text>
<polygon fill="none" stroke="#000000" points="78.5,-102.5 78.5,-132.5 466.5,-132.5 466.5,-102.5 78.5,-102.5"/>
<text text-anchor="start" x="85.5" y="-113.9" font-family="Arial" font-size="14.00" fill="#000000">record_user_cd </text>
<text text-anchor="start" x="186.6332" y="-113.9" font-family="Arial" font-size="14.00" fill="#666666">[nvarchar(10)]</text>
<polygon fill="none" stroke="#000000" points="78.5,-72.5 78.5,-102.5 466.5,-102.5 466.5,-72.5 78.5,-72.5"/>
<text text-anchor="start" x="85.5" y="-83.9" font-family="Arial" font-size="14.00" fill="#000000">record_date </text>
<text text-anchor="start" x="164.0806" y="-83.9" font-family="Arial" font-size="14.00" fill="#666666">[datetime2]</text>
<polygon fill="none" stroke="#000000" points="78.5,-42.5 78.5,-72.5 466.5,-72.5 466.5,-42.5 78.5,-42.5"/>
<text text-anchor="start" x="85.5" y="-53.9" font-family="Arial" font-size="14.00" fill="#000000">delete_flag </text>
<text text-anchor="start" x="157.8632" y="-53.9" font-family="Arial" font-size="14.00" fill="#666666">[nvarchar(1)]</text>
</g>
<!-- sh_t_plans_production_costs_info_history&#45;&gt;sh_t_plans_production_costs_info -->
<g id="edge1" class="edge">
<title>sh_t_plans_production_costs_info_history:project_number&#45;&gt;sh_t_plans_production_costs_info:project_number</title>
<path fill="none" stroke="#000000" d="M507.6724,-1056.1975C601.9401,-1031.1722 567.3021,-653.0566 497.5,-577 434.3096,-508.1476 141.6904,-609.8524 78.5,-541 50.4016,-510.3839 36.9444,-447.5 78.5,-447.5"/>
<polygon fill="#000000" stroke="#000000" points="507.419,-1056.2299 496.9285,-1053.0364 502.4595,-1056.8649 497.5,-1057.5 497.5,-1057.5 497.5,-1057.5 502.4595,-1056.8649 498.0715,-1061.9636 507.419,-1056.2299 507.419,-1056.2299"/>
</g>
</g>
</svg>
