<?xml version="1.0" encoding="UTF-8" standalone="no"?>
<!DOCTYPE svg PUBLIC "-//W3C//DTD SVG 1.1//EN"
 "http://www.w3.org/Graphics/SVG/1.1/DTD/svg11.dtd">
<!-- Generated by graphviz version 2.40.1 (20161225.0304)
 -->
<!-- Title: sh_t_batch_schedule Pages: 1 -->
<svg width="385pt" height="435pt"
 viewBox="0.00 0.00 385.00 435.00" xmlns="http://www.w3.org/2000/svg" xmlns:xlink="http://www.w3.org/1999/xlink">
<g id="graph0" class="graph" transform="scale(1 1) rotate(0) translate(4 431)">
<title>sh_t_batch_schedule</title>
<polygon fill="#ffffff" stroke="transparent" points="-4,4 -4,-431 381,-431 381,4 -4,4"/>
<!-- sh_t_batch_schedule -->
<g id="node1" class="node">
<title>sh_t_batch_schedule</title>
<polygon fill="#efefef" stroke="transparent" points="46.5,-345.5 46.5,-380.5 331.5,-380.5 331.5,-345.5 46.5,-345.5"/>
<polygon fill="none" stroke="#000000" points="46.5,-345.5 46.5,-380.5 331.5,-380.5 331.5,-345.5 46.5,-345.5"/>
<text text-anchor="start" x="53.0063" y="-358.3" font-family="Arial Bold" font-size="18.00" fill="#000000">sh_t_batch_schedule</text>
<text text-anchor="start" x="223.0793" y="-358.3" font-family="Arial" font-size="14.00" fill="#000000"> </text>
<text text-anchor="start" x="226.9699" y="-358.3" font-family="Arial" font-size="14.00" fill="#666666">[BASIC TABLE]</text>
<polygon fill="none" stroke="#000000" points="46.5,-315.5 46.5,-345.5 331.5,-345.5 331.5,-315.5 46.5,-315.5"/>
<text text-anchor="start" x="53.5" y="-326.9" font-family="Arial" font-size="14.00" fill="#000000">batch_cd </text>
<text text-anchor="start" x="114.1942" y="-326.9" font-family="Arial" font-size="14.00" fill="#666666">[nvarchar(10)]</text>
<polygon fill="none" stroke="#000000" points="46.5,-285.5 46.5,-315.5 331.5,-315.5 331.5,-285.5 46.5,-285.5"/>
<text text-anchor="start" x="53.5" y="-296.9" font-family="Arial" font-size="14.00" fill="#000000">year </text>
<text text-anchor="start" x="84.6164" y="-296.9" font-family="Arial" font-size="14.00" fill="#666666">[int]</text>
<polygon fill="none" stroke="#000000" points="46.5,-255.5 46.5,-285.5 331.5,-285.5 331.5,-255.5 46.5,-255.5"/>
<text text-anchor="start" x="53.5" y="-266.9" font-family="Arial" font-size="14.00" fill="#000000">month </text>
<text text-anchor="start" x="96.2896" y="-266.9" font-family="Arial" font-size="14.00" fill="#666666">[int]</text>
<polygon fill="none" stroke="#000000" points="46.5,-225.5 46.5,-255.5 331.5,-255.5 331.5,-225.5 46.5,-225.5"/>
<text text-anchor="start" x="53.5" y="-236.9" font-family="Arial" font-size="14.00" fill="#000000">day </text>
<text text-anchor="start" x="79.9558" y="-236.9" font-family="Arial" font-size="14.00" fill="#666666">[int]</text>
<polygon fill="none" stroke="#000000" points="46.5,-195.5 46.5,-225.5 331.5,-225.5 331.5,-195.5 46.5,-195.5"/>
<text text-anchor="start" x="53.5" y="-206.9" font-family="Arial" font-size="14.00" fill="#000000">time </text>
<text text-anchor="start" x="83.831" y="-206.9" font-family="Arial" font-size="14.00" fill="#666666">[int]</text>
<polygon fill="none" stroke="#000000" points="46.5,-165.5 46.5,-195.5 331.5,-195.5 331.5,-165.5 46.5,-165.5"/>
<text text-anchor="start" x="53.5" y="-176.9" font-family="Arial" font-size="14.00" fill="#000000">create_user_cd </text>
<text text-anchor="start" x="153.8632" y="-176.9" font-family="Arial" font-size="14.00" fill="#666666">[nvarchar(10)]</text>
<polygon fill="none" stroke="#000000" points="46.5,-135.5 46.5,-165.5 331.5,-165.5 331.5,-135.5 46.5,-135.5"/>
<text text-anchor="start" x="53.5" y="-146.9" font-family="Arial" font-size="14.00" fill="#000000">create_date </text>
<text text-anchor="start" x="131.3106" y="-146.9" font-family="Arial" font-size="14.00" fill="#666666">[datetime2]</text>
<polygon fill="none" stroke="#000000" points="46.5,-105.5 46.5,-135.5 331.5,-135.5 331.5,-105.5 46.5,-105.5"/>
<text text-anchor="start" x="53.5" y="-116.9" font-family="Arial" font-size="14.00" fill="#000000">record_user_cd </text>
<text text-anchor="start" x="154.6332" y="-116.9" font-family="Arial" font-size="14.00" fill="#666666">[nvarchar(10)]</text>
<polygon fill="none" stroke="#000000" points="46.5,-75.5 46.5,-105.5 331.5,-105.5 331.5,-75.5 46.5,-75.5"/>
<text text-anchor="start" x="53.5" y="-86.9" font-family="Arial" font-size="14.00" fill="#000000">record_date </text>
<text text-anchor="start" x="132.0806" y="-86.9" font-family="Arial" font-size="14.00" fill="#666666">[datetime2]</text>
<polygon fill="none" stroke="#000000" points="46.5,-45.5 46.5,-75.5 331.5,-75.5 331.5,-45.5 46.5,-45.5"/>
<text text-anchor="start" x="53.5" y="-56.9" font-family="Arial" font-size="14.00" fill="#000000">delete_flag </text>
<text text-anchor="start" x="125.8632" y="-56.9" font-family="Arial" font-size="14.00" fill="#666666">[nvarchar(1)]</text>
<polygon fill="none" stroke="#000000" stroke-width="3" points="44.5,-44.5 44.5,-382.5 332.5,-382.5 332.5,-44.5 44.5,-44.5"/>
</g>
</g>
</svg>
