<?xml version="1.0" encoding="UTF-8" standalone="no"?>
<!DOCTYPE svg PUBLIC "-//W3C//DTD SVG 1.1//EN"
 "http://www.w3.org/Graphics/SVG/1.1/DTD/svg11.dtd">
<!-- Generated by graphviz version 2.40.1 (20161225.0304)
 -->
<!-- Title: sh_t_progress_user Pages: 1 -->
<svg width="374pt" height="225pt"
 viewBox="0.00 0.00 374.00 225.00" xmlns="http://www.w3.org/2000/svg" xmlns:xlink="http://www.w3.org/1999/xlink">
<g id="graph0" class="graph" transform="scale(1 1) rotate(0) translate(4 221)">
<title>sh_t_progress_user</title>
<polygon fill="#ffffff" stroke="transparent" points="-4,4 -4,-221 370,-221 370,4 -4,4"/>
<!-- sh_t_progress_user -->
<g id="node1" class="node">
<title>sh_t_progress_user</title>
<polygon fill="#efefef" stroke="transparent" points="46,-135.5 46,-170.5 320,-170.5 320,-135.5 46,-135.5"/>
<polygon fill="none" stroke="#000000" points="46,-135.5 46,-170.5 320,-170.5 320,-135.5 46,-135.5"/>
<text text-anchor="start" x="52.5224" y="-148.3" font-family="Arial Bold" font-size="18.00" fill="#000000">sh_t_progress_user</text>
<text text-anchor="start" x="211.5632" y="-148.3" font-family="Arial" font-size="14.00" fill="#000000"> </text>
<text text-anchor="start" x="215.4538" y="-148.3" font-family="Arial" font-size="14.00" fill="#666666">[BASIC TABLE]</text>
<polygon fill="none" stroke="#000000" points="46,-105.5 46,-135.5 320,-135.5 320,-105.5 46,-105.5"/>
<text text-anchor="start" x="53" y="-116.9" font-family="Arial" font-size="14.00" fill="#000000">id </text>
<text text-anchor="start" x="67.7798" y="-116.9" font-family="Arial" font-size="14.00" fill="#666666">[int]</text>
<polygon fill="none" stroke="#000000" points="46,-75.5 46,-105.5 320,-105.5 320,-75.5 46,-75.5"/>
<text text-anchor="start" x="53" y="-86.9" font-family="Arial" font-size="14.00" fill="#000000">username </text>
<text text-anchor="start" x="119.1248" y="-86.9" font-family="Arial" font-size="14.00" fill="#666666">[varchar(50)]</text>
<polygon fill="none" stroke="#000000" points="46,-45.5 46,-75.5 320,-75.5 320,-45.5 46,-45.5"/>
<text text-anchor="start" x="53" y="-56.9" font-family="Arial" font-size="14.00" fill="#000000">password </text>
<text text-anchor="start" x="116.7882" y="-56.9" font-family="Arial" font-size="14.00" fill="#666666">[varchar(50)]</text>
<polygon fill="none" stroke="#000000" stroke-width="3" points="44.5,-44.5 44.5,-172.5 321.5,-172.5 321.5,-44.5 44.5,-44.5"/>
</g>
</g>
</svg>
